<svg width="25" height="25" viewBox="0 0 25 25" fill="none" xmlns="http://www.w3.org/2000/svg">
<path d="M15.0299 9.96998L9.96992 15.03C9.31992 14.38 8.91992 13.49 8.91992 12.5C8.91992 10.52 10.5199 8.91998 12.4999 8.91998C13.4899 8.91998 14.3799 9.31998 15.0299 9.96998Z" stroke="#8B9398" stroke-width="1.5" stroke-linecap="round" stroke-linejoin="round"/>
<path d="M18.3198 6.26998C16.5698 4.94998 14.5698 4.22998 12.4998 4.22998C8.96984 4.22998 5.67984 6.30998 3.38984 9.90998C2.48984 11.32 2.48984 13.69 3.38984 15.1C4.17984 16.34 5.09984 17.41 6.09984 18.27" stroke="#8B9398" stroke-width="1.5" stroke-linecap="round" stroke-linejoin="round"/>
<path d="M8.91992 20.03C10.0599 20.51 11.2699 20.77 12.4999 20.77C16.0299 20.77 19.3199 18.69 21.6099 15.09C22.5099 13.68 22.5099 11.31 21.6099 9.89999C21.2799 9.37999 20.9199 8.88999 20.5499 8.42999" stroke="#8B9398" stroke-width="1.5" stroke-linecap="round" stroke-linejoin="round"/>
<path d="M16.0104 13.2C15.7504 14.61 14.6004 15.76 13.1904 16.02" stroke="#8B9398" stroke-width="1.5" stroke-linecap="round" stroke-linejoin="round"/>
<path d="M9.97 15.03L2.5 22.5" stroke="#8B9398" stroke-width="1.5" stroke-linecap="round" stroke-linejoin="round"/>
<path d="M22.5003 2.5L15.0303 9.97" stroke="#8B9398" stroke-width="1.5" stroke-linecap="round" stroke-linejoin="round"/>
</svg>
