<svg width="32" height="21" viewBox="0 0 32 21" fill="none" xmlns="http://www.w3.org/2000/svg">
<path fill-rule="evenodd" clip-rule="evenodd" d="M29.571 0.466797H2.112C1.55168 0.467327 1.01449 0.690285 0.618469 1.08668C0.22245 1.48307 -2.50759e-07 2.02048 0 2.5808L0 18.4188C0.00026472 18.9792 0.222937 19.5166 0.619115 19.913C1.01529 20.3093 1.55259 20.5323 2.113 20.5328H29.572C30.1325 20.5325 30.6699 20.3097 31.0662 19.9133C31.4624 19.5168 31.685 18.9793 31.685 18.4188V2.5808C31.6847 2.02021 31.4619 1.48266 31.0655 1.08627C30.6691 0.689871 30.1316 0.467062 29.571 0.466797Z" fill="#227FBB"/>
<path fill-rule="evenodd" clip-rule="evenodd" d="M29.679 10.4052C29.691 11.4956 29.4866 12.5776 29.0776 13.5886C28.6686 14.5995 28.0632 15.5192 27.2963 16.2946C26.5295 17.0699 25.6164 17.6855 24.6101 18.1056C23.6037 18.5257 22.524 18.742 21.4335 18.742C20.343 18.742 19.2633 18.5257 18.2569 18.1056C17.2506 17.6855 16.3375 17.0699 15.5707 16.2946C14.8038 15.5192 14.1984 14.5995 13.7894 13.5886C13.3804 12.5776 13.176 11.4956 13.188 10.4052C13.176 9.31471 13.3804 8.2327 13.7894 7.22178C14.1984 6.21086 14.8038 5.2911 15.5707 4.51575C16.3375 3.7404 17.2506 3.12486 18.2569 2.70477C19.2633 2.28467 20.343 2.06836 21.4335 2.06836C22.524 2.06836 23.6037 2.28467 24.6101 2.70477C25.6164 3.12486 26.5295 3.7404 27.2963 4.51575C28.0632 5.2911 28.6686 6.21086 29.0776 7.22178C29.4866 8.2327 29.691 9.31471 29.679 10.4052Z" fill="#F2C500"/>
<path fill-rule="evenodd" clip-rule="evenodd" d="M10.3202 2.06936C8.1366 2.11725 6.059 3.02014 4.53415 4.58386C3.0093 6.14758 2.15898 8.24725 2.16606 10.4314C2.17313 12.6155 3.03703 14.7096 4.57198 16.2634C6.10693 17.8172 8.19033 18.7066 10.3742 18.7404C12.4311 18.741 14.4125 17.9653 15.9222 16.5684C16.2226 16.2915 16.5023 15.993 16.7592 15.6754H15.0682C14.8448 15.4026 14.6394 15.1157 14.4532 14.8164H17.3682C17.546 14.529 17.7063 14.2311 17.8482 13.9244H13.9752C13.8437 13.6391 13.7285 13.3467 13.6302 13.0484H18.1942C18.6647 11.6191 18.7455 10.0902 18.4282 8.61936H13.3882C13.4511 8.32333 13.5298 8.0309 13.6242 7.74336H18.1892C18.0877 7.43947 17.9688 7.14165 17.8332 6.85136H13.9742C14.1136 6.54985 14.2716 6.25729 14.4472 5.97536H17.3582C17.1647 5.66397 16.9509 5.36566 16.7182 5.08236H15.0952C15.3489 4.78095 15.6254 4.49946 15.9222 4.24036C14.412 2.84341 12.4304 2.06774 10.3732 2.06836L10.3202 2.06936Z" fill="#E94B35"/>
<path fill-rule="evenodd" clip-rule="evenodd" d="M13.3391 12.527L13.4491 11.773C13.3891 11.773 13.3011 11.799 13.2231 11.799C12.9171 11.799 12.8841 11.635 12.9031 11.513L13.1501 9.974H13.6151L13.7271 9.14H13.2901L13.3791 8.621H12.5011C12.4821 8.641 11.9831 11.54 11.9831 11.892C11.9682 11.9897 11.9755 12.0895 12.0046 12.184C12.0337 12.2784 12.0838 12.365 12.1511 12.4374C12.2185 12.5097 12.3013 12.5659 12.3934 12.6017C12.4856 12.6375 12.5846 12.6519 12.6831 12.644C12.9069 12.6378 13.1286 12.5987 13.3411 12.528L13.3391 12.527ZM13.6171 11.089C13.5907 11.2961 13.6114 11.5065 13.6777 11.7045C13.7441 11.9024 13.8543 12.0829 14.0002 12.2322C14.1461 12.3816 14.3239 12.496 14.5202 12.567C14.7166 12.6379 14.9264 12.6636 15.1341 12.642C15.45 12.6603 15.7661 12.6105 16.0611 12.496L16.2161 11.64C15.9208 11.7673 15.6052 11.8412 15.2841 11.858C14.3411 11.858 14.5061 11.147 14.5061 11.147H16.2901C16.3455 10.8797 16.3839 10.6092 16.4051 10.337C16.4223 10.1662 16.4021 9.99363 16.3459 9.83138C16.2897 9.66913 16.199 9.52104 16.0798 9.39737C15.9607 9.2737 15.8162 9.17741 15.6561 9.11518C15.4961 9.05296 15.3245 9.02628 15.1531 9.037C14.2701 9.037 13.6171 9.999 13.6171 11.085V11.089ZM15.1561 9.835C15.6561 9.835 15.5561 10.398 15.5561 10.443H14.5901C14.5901 10.385 14.6821 9.835 15.1601 9.835H15.1561ZM20.7161 12.527L20.8731 11.56C20.6463 11.6761 20.4003 11.75 20.1471 11.778C19.5241 11.778 19.2741 11.297 19.2741 10.778C19.2741 9.73 19.8101 9.154 20.4061 9.154C20.6931 9.16248 20.9721 9.25041 21.2121 9.408L21.3551 8.468C21.0395 8.34204 20.7054 8.26841 20.3661 8.25C19.3521 8.25 18.3661 9.139 18.3661 10.808C18.3661 11.915 18.8981 12.646 19.9461 12.646C20.2054 12.6306 20.4626 12.5901 20.7141 12.525L20.7161 12.527ZM8.51011 9.055C8.14626 9.05674 7.78575 9.12451 7.44611 9.255L7.31911 10.02C7.62625 9.91122 7.95031 9.85806 8.27611 9.863C8.60311 9.863 8.84211 9.9 8.84211 10.169C8.84727 10.2445 8.83741 10.3203 8.81311 10.392C8.81311 10.392 8.55511 10.37 8.43511 10.37C7.67611 10.37 6.87811 10.698 6.87811 11.685C6.8608 11.8054 6.86993 11.9282 6.90486 12.0448C6.93979 12.1613 6.99969 12.2689 7.08039 12.36C7.16109 12.451 7.26066 12.5234 7.37217 12.5721C7.48368 12.6209 7.60446 12.6447 7.72611 12.642C7.89705 12.6461 8.06672 12.6116 8.22252 12.5411C8.37833 12.4707 8.51627 12.366 8.62611 12.235L8.59711 12.574H9.37011L9.71511 10.13C9.72138 9.97582 9.6933 9.82218 9.63289 9.68019C9.57249 9.5382 9.48127 9.41141 9.36585 9.30901C9.25043 9.2066 9.11368 9.13113 8.96551 9.08807C8.81734 9.045 8.66144 9.03541 8.50911 9.06L8.51011 9.055ZM8.69811 11.045C8.71511 11.194 8.60611 11.894 8.07711 11.894C8.03189 11.8971 7.98653 11.8907 7.94397 11.8751C7.90142 11.8595 7.86264 11.8351 7.83016 11.8035C7.79769 11.7718 7.77226 11.7337 7.75554 11.6916C7.73881 11.6495 7.73117 11.6043 7.73311 11.559C7.73311 11.316 7.86411 11.025 8.50711 11.025C8.57152 11.0206 8.6362 11.0267 8.69811 11.045ZM10.5371 12.62C10.7371 12.62 11.8651 12.671 11.8651 11.492C11.8651 10.392 10.8191 10.607 10.8191 10.164C10.8191 9.944 10.9901 9.874 11.3011 9.874C11.4251 9.874 11.9011 9.914 11.9011 9.914L12.0121 9.131C11.7451 9.08054 11.4738 9.05709 11.2021 9.061C10.5521 9.061 9.89311 9.323 9.89311 10.22C9.89311 11.236 10.9931 11.134 10.9931 11.562C10.9931 11.848 10.6861 11.871 10.4491 11.871C10.1844 11.8625 9.92223 11.817 9.67011 11.736L9.55311 12.512C9.87214 12.6076 10.2059 12.6446 10.5381 12.621L10.5371 12.62ZM27.9901 8.351L27.8011 9.539C27.7013 9.4055 27.5739 9.29512 27.4276 9.21539C27.2812 9.13565 27.1194 9.08845 26.9531 9.077C26.1531 9.077 25.4781 10.058 25.4781 11.184C25.4781 11.911 25.8361 12.624 26.5671 12.624C26.7217 12.6236 26.8744 12.5903 27.0153 12.5266C27.1561 12.4628 27.2818 12.3699 27.3841 12.254L27.3451 12.571H28.1991L28.8701 8.35L27.9901 8.351ZM27.5821 10.667C27.5821 11.136 27.3521 11.762 26.8771 11.762C26.5611 11.762 26.4131 11.494 26.4131 11.073C26.4131 10.385 26.7181 9.931 27.1041 9.931C27.4201 9.931 27.5821 10.15 27.5821 10.667ZM3.75611 12.574L4.29011 9.388L4.36911 12.574H4.96911L6.09711 9.388L5.59711 12.574H6.49711L7.18911 8.348H5.79911L4.93311 10.941L4.89011 8.348H3.61211L2.91211 12.574H3.75611ZM17.2821 12.58C17.5371 11.111 17.5821 9.918 18.1951 10.136C18.2491 9.77802 18.3591 9.43078 18.5211 9.107C18.4653 9.09777 18.4087 9.09375 18.3521 9.095C17.9591 9.095 17.6681 9.638 17.6681 9.638L17.7461 9.138H16.9291L16.3811 12.578L17.2821 12.58ZM22.7401 9.054C22.3763 9.05574 22.0158 9.12351 21.6761 9.254L21.5491 10.019C21.8563 9.91026 22.1803 9.8571 22.5061 9.862C22.8331 9.862 23.0721 9.899 23.0721 10.168C23.0771 10.2435 23.0673 10.3193 23.0431 10.391C23.0431 10.391 22.7851 10.369 22.6651 10.369C21.9061 10.369 21.1081 10.697 21.1081 11.684C21.0908 11.8044 21.0999 11.9272 21.1349 12.0438C21.1698 12.1603 21.2297 12.2679 21.3104 12.359C21.3911 12.45 21.4907 12.5224 21.6022 12.5711C21.7137 12.6199 21.8345 12.6437 21.9561 12.641C22.1271 12.6451 22.2968 12.6107 22.4526 12.5402C22.6084 12.4698 22.7463 12.3651 22.8561 12.234L22.8271 12.573H23.6001L23.9451 10.129C23.9514 9.97482 23.9233 9.82118 23.8629 9.67919C23.8025 9.5372 23.7113 9.41041 23.5958 9.30801C23.4804 9.2056 23.3437 9.13013 23.1955 9.08707C23.0473 9.044 22.8914 9.03442 22.7391 9.059L22.7401 9.054ZM22.9291 11.044C22.9461 11.193 22.8361 11.893 22.3071 11.893C22.262 11.896 22.2167 11.8894 22.1743 11.8738C22.1318 11.8581 22.0932 11.8337 22.0608 11.8021C22.0285 11.7705 22.0031 11.7324 21.9865 11.6903C21.9698 11.6483 21.9622 11.6032 21.9641 11.558C21.9641 11.315 22.0941 11.024 22.7381 11.024C22.8025 11.0197 22.8672 11.0258 22.9291 11.044ZM24.6531 12.579C24.9091 11.11 24.9531 9.917 25.5661 10.135C25.6196 9.77748 25.7289 9.43058 25.8901 9.107C25.8343 9.09777 25.7777 9.09375 25.7211 9.095C25.3281 9.095 25.0371 9.638 25.0371 9.638L25.1151 9.138H24.3001L23.7521 12.578L24.6531 12.579Z" fill="white"/>
</svg>
