<svg width="70" height="70" viewBox="0 0 70 70" fill="none" xmlns="http://www.w3.org/2000/svg">
<rect width="70" height="70" rx="25" fill="#E1E5EF"/>
<path d="M43.0842 40.505L37.0242 35H32.9592L26.8992 40.505C25.2042 42.035 24.6492 44.39 25.4742 46.52C26.2992 48.635 28.3092 50 30.5742 50H39.4092C41.6892 50 43.6842 48.635 44.5092 46.52C45.3342 44.39 44.7792 42.035 43.0842 40.505ZM37.7292 44.21H32.2692C31.6992 44.21 31.2492 43.745 31.2492 43.19C31.2492 42.635 31.7142 42.17 32.2692 42.17H37.7292C38.2992 42.17 38.7492 42.635 38.7492 43.19C38.7492 43.745 38.2842 44.21 37.7292 44.21Z" fill="url(#paint0_linear_1466_7901)"/>
<path d="M44.526 23.48C43.701 21.365 41.691 20 39.426 20H30.576C28.311 20 26.301 21.365 25.476 23.48C24.666 25.61 25.221 27.965 26.916 29.495L32.976 35H37.041L43.101 29.495C44.781 27.965 45.336 25.61 44.526 23.48ZM37.731 27.845H32.271C31.701 27.845 31.251 27.38 31.251 26.825C31.251 26.27 31.716 25.805 32.271 25.805H37.731C38.301 25.805 38.751 26.27 38.751 26.825C38.751 27.38 38.286 27.845 37.731 27.845Z" fill="url(#paint1_linear_1466_7901)"/>
<defs>
<linearGradient id="paint0_linear_1466_7901" x1="44.4612" y1="48.0556" x2="24.9666" y2="46.7851" gradientUnits="userSpaceOnUse">
<stop stop-color="#0D2F8C"/>
<stop offset="1" stop-color="#5D7DD7"/>
</linearGradient>
<linearGradient id="paint1_linear_1466_7901" x1="44.4685" y1="33.0556" x2="24.9783" y2="31.7857" gradientUnits="userSpaceOnUse">
<stop stop-color="#0D2F8C"/>
<stop offset="1" stop-color="#5D7DD7"/>
</linearGradient>
</defs>
</svg>
