<svg width="40" height="40" viewBox="0 0 40 40" fill="none" xmlns="http://www.w3.org/2000/svg">
<g clip-path="url(#clip0_1851_32857)">
<path d="M7 10.7879C7 9.97978 7.2928 9.31311 7.87838 8.78788C8.46396 8.26262 9.22523 8 10.1622 8C11.0824 8 11.8269 8.25857 12.3958 8.77576C12.9813 9.30909 13.2741 10.004 13.2741 10.8606C13.2741 11.6364 12.9897 12.2828 12.4208 12.8C11.8353 13.3333 11.0656 13.6 10.112 13.6H10.0869C9.16666 13.6 8.42214 13.3333 7.85328 12.8C7.28442 12.2667 7 11.5959 7 10.7879ZM7.32625 32V15.806H12.8977V32H7.32625ZM15.9846 32H21.556V22.9576C21.556 22.3919 21.6229 21.9555 21.7568 21.6485C21.991 21.099 22.3465 20.6343 22.8234 20.2545C23.3002 19.8747 23.8983 19.6848 24.6178 19.6848C26.4916 19.6848 27.4286 20.905 27.4286 23.3454V32H33V22.7151C33 20.3232 32.4144 18.5091 31.2432 17.2727C30.0721 16.0364 28.5245 15.4182 26.6004 15.4182C24.4421 15.4182 22.7606 16.3151 21.556 18.1091V18.1576H21.5309L21.556 18.1091V15.806H15.9846C16.018 16.3232 16.0347 17.9313 16.0347 20.6303C16.0347 23.3293 16.018 27.1191 15.9846 32Z" fill="white"/>
</g>
<defs>
<clipPath id="clip0_1851_32857">
<rect width="26" height="24" fill="white" transform="translate(7 8)"/>
</clipPath>
</defs>
</svg>
