<svg width="40" height="40" viewBox="0 0 40 40" fill="none" xmlns="http://www.w3.org/2000/svg">
<path d="M32.7324 26.9742C29.1528 26.3602 27.5497 22.55 27.4836 22.3873L27.4761 22.373C27.3743 22.1998 27.3102 22.0055 27.2882 21.8037C27.2662 21.6018 27.2869 21.3975 27.3487 21.2049C27.5884 20.6143 28.385 20.3515 28.9106 20.1772C29.043 20.1343 29.1666 20.0926 29.264 20.0523C30.2166 19.6621 30.4101 19.2549 30.4051 18.983C30.3801 18.814 30.3074 18.6566 30.1962 18.5308C30.0851 18.405 29.9405 18.3165 29.7808 18.2766L29.7721 18.274C29.6309 18.2145 29.48 18.1841 29.3276 18.1843C29.1933 18.1823 29.06 18.2102 28.9368 18.2662C28.5651 18.462 28.1599 18.5796 27.7445 18.6123C27.5047 18.6181 27.2706 18.5362 27.0828 18.3807L27.1227 17.6912L27.1277 17.6067C27.3683 15.8539 27.2664 14.0685 26.8281 12.3577C26.3111 11.1293 25.4582 10.0868 24.376 9.36032C23.2937 8.63387 22.0301 8.2557 20.7428 8.27303L20.2409 8.27953C18.9559 8.26309 17.6947 8.64134 16.6147 9.36707C15.5347 10.0928 14.6838 11.1339 14.1681 12.3603C13.7293 14.0692 13.6265 15.8528 13.866 17.6041C13.8826 17.8634 13.8976 18.1227 13.9109 18.382C13.7039 18.5508 13.444 18.6334 13.1818 18.6136C12.7406 18.5938 12.3087 18.4749 11.9158 18.2649C11.8195 18.2206 11.7151 18.1988 11.6099 18.2012C11.393 18.1925 11.1789 18.2547 10.9976 18.379C10.8163 18.5033 10.6768 18.6836 10.5986 18.8945C10.4962 19.4539 11.2628 19.8611 11.7297 20.0523C11.8296 20.0939 11.952 20.1343 12.0831 20.1772C12.6099 20.3515 13.4065 20.6143 13.6462 21.2049C13.7079 21.3975 13.7285 21.6018 13.7065 21.8036C13.6845 22.0054 13.6204 22.1997 13.5189 22.373L13.5114 22.3873C13.1665 23.1704 12.7172 23.8987 12.1767 24.5507C11.1947 25.8227 9.8055 26.6832 8.26384 26.9742C8.1911 26.9869 8.12541 27.0271 8.07933 27.0871C8.03326 27.1471 8.01005 27.2227 8.01413 27.2994C8.01695 27.3576 8.02963 27.4149 8.05159 27.4685C8.27258 28.0032 9.37377 28.4441 11.2391 28.7446C11.4139 28.7733 11.4863 29.0699 11.5886 29.5538C11.6286 29.7489 11.6711 29.9505 11.7297 30.1587C11.7492 30.2509 11.8009 30.3323 11.8747 30.3871C11.9485 30.4419 12.0392 30.4662 12.1293 30.4553C12.3075 30.4452 12.4847 30.4191 12.6586 30.3772C13.1181 30.2727 13.5867 30.2173 14.057 30.212C14.3954 30.2127 14.7332 30.2422 15.067 30.3005C15.7712 30.4863 16.4262 30.8349 16.9835 31.3203C17.9241 32.1573 19.1063 32.6426 20.342 32.6993C20.3832 32.6993 20.4257 32.698 20.4669 32.6941C20.5168 32.6967 20.5855 32.6993 20.6554 32.6993C21.8919 32.6427 23.0749 32.1574 24.0164 31.3203C24.5729 30.8351 25.2271 30.4865 25.9304 30.3005C26.2638 30.2424 26.6012 30.2128 26.9392 30.212C27.4091 30.2145 27.8776 30.2663 28.3376 30.3668C28.5121 30.4063 28.6897 30.4294 28.8682 30.4358H28.8981C28.9824 30.4427 29.0662 30.4176 29.134 30.3649C29.2018 30.3123 29.2488 30.2357 29.2665 30.1496C29.3209 29.9511 29.3684 29.7506 29.4088 29.5486C29.5099 29.066 29.5836 28.7707 29.7584 28.742C31.6237 28.4428 32.7261 28.0006 32.9434 27.4698C32.966 27.4163 32.9796 27.3591 32.9833 27.3007C32.9874 27.224 32.9642 27.1484 32.9181 27.0884C32.872 27.0284 32.8063 26.9882 32.7336 26.9755L32.7324 26.9742Z" fill="white"/>
</svg>
