<svg width="40" height="40" viewBox="0 0 40 40" fill="none" xmlns="http://www.w3.org/2000/svg">
<path fill-rule="evenodd" clip-rule="evenodd" d="M20.5901 29.3092L15.1192 29.208C13.3478 29.1727 11.572 29.2431 9.83536 28.8776C7.19352 28.3314 7.00636 25.6536 6.81052 23.4073C6.54067 20.2494 6.64514 17.0342 7.15438 13.9027C7.44186 12.1456 8.57322 11.0971 10.3228 10.983C16.229 10.5689 22.1745 10.618 28.0676 10.8112C28.69 10.8289 29.3166 10.9257 29.9303 11.0358C32.9597 11.5732 33.0336 14.6078 33.23 17.1624C33.4258 19.7433 33.3431 22.3375 32.9688 24.9009C32.6685 27.0232 32.0939 28.8031 29.6692 28.9749C26.6311 29.1996 23.6628 29.3804 20.6162 29.3229C20.6163 29.3092 20.5988 29.3092 20.5901 29.3092ZM17.3327 24.0003C19.5734 22.6565 21.7714 21.3351 23.9993 20.0003C21.7544 18.6565 19.5606 17.3351 17.3327 16.0003V24.0003Z" fill="white"/>
</svg>
