<svg width="131" height="185" viewBox="0 0 131 185" fill="none" xmlns="http://www.w3.org/2000/svg">
<path d="M65.5085 0.36377C39.6517 0.36377 18.6562 21.3589 18.6562 47.2157V79.0122C19.1267 78.9732 19.5971 78.9337 20.107 78.9337H35.3781V47.2157C35.3781 30.592 48.8652 17.0656 65.5085 17.0656C82.3265 17.0656 95.6586 30.7878 95.6586 47.2157V78.9337H110.89C111.4 78.9337 111.871 78.9728 112.361 79.0122V47.2157C112.36 21.5912 91.5965 0.36377 65.5085 0.36377Z" fill="url(#paint0_linear_130_13997)"/>
<path d="M130.328 98.3708V165.203C130.328 175.922 121.65 184.636 110.894 184.636H20.1076C9.38795 184.636 0.673828 175.922 0.673828 165.203V98.3708C0.673828 87.6511 9.38795 78.937 20.1076 78.937H110.894C121.65 78.937 130.328 87.6511 130.328 98.3708Z" fill="url(#paint1_linear_130_13997)"/>
<path d="M39 135L56.9788 153L93 117" stroke="white" stroke-width="11" stroke-linecap="round" stroke-linejoin="round"/>
<defs>
<linearGradient id="paint0_linear_130_13997" x1="65.5085" y1="79.0122" x2="65.5085" y2="0.36377" gradientUnits="userSpaceOnUse">
<stop offset="0.017" stop-color="#4D5351"/>
<stop offset="1" stop-color="#4B5251"/>
</linearGradient>
<linearGradient id="paint1_linear_130_13997" x1="65.5007" y1="184.636" x2="65.5007" y2="78.937" gradientUnits="userSpaceOnUse">
<stop stop-color="#0D2F8C"/>
<stop offset="1" stop-color="#4E78EB"/>
</linearGradient>
</defs>
</svg>
