<svg width="41" height="40" viewBox="0 0 41 40" fill="none" xmlns="http://www.w3.org/2000/svg">
<path d="M16.4993 33.3327H24.4993C31.166 33.3327 33.8327 30.666 33.8327 23.9993V15.9993C33.8327 9.33268 31.166 6.66602 24.4993 6.66602H16.4993C9.83268 6.66602 7.16602 9.33268 7.16602 15.9993V23.9993C7.16602 30.666 9.83268 33.3327 16.4993 33.3327Z" stroke="#626878" stroke-width="1.5" stroke-linecap="round" stroke-linejoin="round"/>
<path d="M17.9993 28.3327H22.9993C27.166 28.3327 28.8327 26.666 28.8327 22.4993V17.4993C28.8327 13.3327 27.166 11.666 22.9993 11.666H17.9993C13.8327 11.666 12.166 13.3327 12.166 17.4993V22.4993C12.166 26.666 13.8327 28.3327 17.9993 28.3327Z" stroke="#626878" stroke-width="1.5" stroke-linecap="round" stroke-linejoin="round"/>
<path d="M13.8496 6.66732V3.33398" stroke="#626878" stroke-width="1.5" stroke-linecap="round" stroke-linejoin="round"/>
<path d="M20.5 6.66732V3.33398" stroke="#626878" stroke-width="1.5" stroke-linecap="round" stroke-linejoin="round"/>
<path d="M27.166 6.66732V3.33398" stroke="#626878" stroke-width="1.5" stroke-linecap="round" stroke-linejoin="round"/>
<path d="M33.834 13.334H37.1673" stroke="#626878" stroke-width="1.5" stroke-linecap="round" stroke-linejoin="round"/>
<path d="M33.834 20H37.1673" stroke="#626878" stroke-width="1.5" stroke-linecap="round" stroke-linejoin="round"/>
<path d="M33.834 26.666H37.1673" stroke="#626878" stroke-width="1.5" stroke-linecap="round" stroke-linejoin="round"/>
<path d="M27.166 33.334V36.6673" stroke="#626878" stroke-width="1.5" stroke-linecap="round" stroke-linejoin="round"/>
<path d="M20.5176 33.334V36.6673" stroke="#626878" stroke-width="1.5" stroke-linecap="round" stroke-linejoin="round"/>
<path d="M13.8496 33.334V36.6673" stroke="#626878" stroke-width="1.5" stroke-linecap="round" stroke-linejoin="round"/>
<path d="M3.83398 13.334H7.16732" stroke="#626878" stroke-width="1.5" stroke-linecap="round" stroke-linejoin="round"/>
<path d="M3.83398 20H7.16732" stroke="#626878" stroke-width="1.5" stroke-linecap="round" stroke-linejoin="round"/>
<path d="M3.83398 26.666H7.16732" stroke="#626878" stroke-width="1.5" stroke-linecap="round" stroke-linejoin="round"/>
</svg>
