<svg width="32" height="32" viewBox="0 0 32 32" fill="none" xmlns="http://www.w3.org/2000/svg">
<path opacity="0.4" d="M28.8801 13.9201L27.5734 19.4934C26.4534 24.3067 24.2401 26.2534 20.0801 25.8534C19.4134 25.8001 18.6934 25.6801 17.9201 25.4934L15.6801 24.9601C10.1201 23.6401 8.40008 20.8934 9.70674 15.3201L11.0134 9.73339C11.2801 8.60005 11.6001 7.61338 12.0001 6.80005C13.5601 3.57338 16.2134 2.70672 20.6667 3.76005L22.8934 4.28005C28.4801 5.58672 30.1867 8.34672 28.8801 13.9201Z" fill="#10907B"/>
<path d="M20.08 25.8534C19.2533 26.4134 18.2133 26.88 16.9466 27.2934L14.84 27.9867C9.54663 29.6934 6.75997 28.2667 5.03997 22.9734L3.3333 17.7067C1.62663 12.4134 3.03997 9.61338 8.3333 7.90672L10.44 7.21338C10.9866 7.04005 11.5066 6.89338 12 6.80005C11.6 7.61338 11.28 8.60005 11.0133 9.73338L9.70663 15.32C8.39997 20.8934 10.12 23.64 15.68 24.96L17.92 25.4934C18.6933 25.68 19.4133 25.8 20.08 25.8534Z" fill="#10907B"/>
</svg>
