<svg width="32" height="32" viewBox="0 0 32 32" fill="none" xmlns="http://www.w3.org/2000/svg">
<path opacity="0.4" d="M29.3333 22.0001V26.0001C29.3333 28.0001 28 29.3334 26 29.3334H8C8.54667 29.3334 9.10667 29.2534 9.62667 29.0801C9.77333 29.0267 9.91998 28.9734 10.0667 28.9067C10.5333 28.7201 10.9867 28.4534 11.3867 28.1068C11.5067 28.0134 11.64 27.8934 11.76 27.7734L11.8133 27.7201L20.88 18.6667H26C28 18.6667 29.3333 20.0001 29.3333 22.0001Z" fill="#0D2F8C"/>
<path opacity="0.6" d="M24.4925 15.0534L20.8792 18.6668L11.8125 27.7201C12.7458 26.7601 13.3325 25.4401 13.3325 24.0001V11.1201L16.9458 7.50678C18.3592 6.09344 20.2525 6.09344 21.6659 7.50678L24.4925 10.3334C25.9058 11.7468 25.9058 13.6401 24.4925 15.0534Z" fill="#0D2F8C"/>
<path d="M9.99935 2.66675H5.99935C3.99935 2.66675 2.66602 4.00008 2.66602 6.00008V24.0001C2.66602 24.3601 2.706 24.7201 2.77266 25.0668C2.81266 25.2401 2.85267 25.4134 2.90601 25.5868C2.97267 25.7868 3.03934 25.9867 3.11934 26.1734C3.13268 26.1867 3.13269 26.2001 3.13269 26.2001C3.14602 26.2001 3.14602 26.2001 3.13269 26.2134C3.31936 26.5868 3.53268 26.9467 3.78601 27.2801C3.93268 27.4534 4.07937 27.6134 4.22603 27.7734C4.3727 27.9334 4.53268 28.0668 4.70601 28.2001L4.71936 28.2134C5.05269 28.4668 5.41268 28.6801 5.78601 28.8668C5.79934 28.8534 5.79936 28.8534 5.79936 28.8668C5.99936 28.9601 6.19935 29.0267 6.41268 29.0934C6.58601 29.1467 6.75937 29.1867 6.9327 29.2267C7.27937 29.2934 7.63935 29.3334 7.99935 29.3334C8.54602 29.3334 9.10602 29.2534 9.62602 29.0801C9.77268 29.0267 9.91933 28.9734 10.066 28.9067C10.5327 28.7201 10.986 28.4534 11.386 28.1068C11.506 28.0134 11.6394 27.8934 11.7594 27.7734L11.8127 27.7201C12.746 26.7601 13.3327 25.4401 13.3327 24.0001V6.00008C13.3327 4.00008 11.9993 2.66675 9.99935 2.66675ZM7.99935 26.0001C6.89268 26.0001 5.99935 25.1067 5.99935 24.0001C5.99935 22.8934 6.89268 22.0001 7.99935 22.0001C9.10602 22.0001 9.99935 22.8934 9.99935 24.0001C9.99935 25.1067 9.10602 26.0001 7.99935 26.0001Z" fill="#0D2F8C"/>
</svg>
