<svg width="32" height="32" viewBox="0 0 32 32" fill="none" xmlns="http://www.w3.org/2000/svg">
<path opacity="0.4" d="M29.3333 22V26C29.3333 28 28 29.3334 26 29.3334H8C8.54667 29.3334 9.10667 29.2534 9.62667 29.08C9.77333 29.0267 9.91998 28.9734 10.0667 28.9067C10.5333 28.72 10.9867 28.4534 11.3867 28.1067C11.5067 28.0134 11.64 27.8934 11.76 27.7734L11.8133 27.72L20.88 18.6667H26C28 18.6667 29.3333 20 29.3333 22Z" fill="#10907B"/>
<path opacity="0.6" d="M24.4935 15.0533L20.8802 18.6667L11.8135 27.72C12.7468 26.76 13.3335 25.44 13.3335 24V11.12L16.9468 7.50666C18.3602 6.09332 20.2535 6.09332 21.6668 7.50666L24.4935 10.3333C25.9068 11.7467 25.9068 13.64 24.4935 15.0533Z" fill="#10907B"/>
<path d="M9.99984 2.66669H5.99984C3.99984 2.66669 2.6665 4.00002 2.6665 6.00002V24C2.6665 24.36 2.70649 24.72 2.77315 25.0667C2.81315 25.24 2.85316 25.4134 2.90649 25.5867C2.97316 25.7867 3.03983 25.9867 3.11983 26.1734C3.13317 26.1867 3.13318 26.2 3.13318 26.2C3.14651 26.2 3.14651 26.2 3.13318 26.2134C3.31985 26.5867 3.53317 26.9467 3.7865 27.28C3.93317 27.4534 4.07986 27.6134 4.22652 27.7734C4.37319 27.9334 4.53317 28.0667 4.7065 28.2L4.71985 28.2134C5.05318 28.4667 5.41317 28.68 5.7865 28.8667C5.79983 28.8534 5.79985 28.8534 5.79985 28.8667C5.99985 28.96 6.19983 29.0267 6.41317 29.0934C6.5865 29.1467 6.75985 29.1867 6.93319 29.2267C7.27985 29.2934 7.63984 29.3334 7.99984 29.3334C8.5465 29.3334 9.10651 29.2534 9.6265 29.08C9.77317 29.0267 9.91982 28.9734 10.0665 28.9067C10.5332 28.72 10.9865 28.4534 11.3865 28.1067C11.5065 28.0134 11.6398 27.8934 11.7598 27.7734L11.8132 27.72C12.7465 26.76 13.3332 25.44 13.3332 24V6.00002C13.3332 4.00002 11.9998 2.66669 9.99984 2.66669ZM7.99984 26C6.89317 26 5.99984 25.1067 5.99984 24C5.99984 22.8934 6.89317 22 7.99984 22C9.1065 22 9.99984 22.8934 9.99984 24C9.99984 25.1067 9.1065 26 7.99984 26Z" fill="#10907B"/>
</svg>
