<svg width="304" height="304" viewBox="0 0 304 304" fill="none" xmlns="http://www.w3.org/2000/svg">
<circle cx="152" cy="152" r="152" fill="#F1F4FA"/>
<path d="M52.8539 211.512L10.5386 61.9254C8.58428 55.0168 12.6005 47.832 19.5091 45.8777L169.18 3.53864C176.089 1.58433 183.273 5.60057 185.228 12.5092L238.812 201.931C240.76 208.821 236.772 215.989 229.89 217.965L80.3856 260.892C73.4655 262.879 66.2485 258.863 64.2888 251.935L52.8539 211.512Z" fill="#3F4D74"/>
<path d="M89.6949 68.9029L153.218 50.9333C157.603 49.6929 162.164 52.2425 163.405 56.6276C164.645 61.0127 162.096 65.5737 157.711 66.8142L94.1873 84.7837C89.8022 86.0242 85.2412 83.4746 84.0007 79.0895C82.7603 74.7044 85.3099 70.1433 89.6949 68.9029ZM98.6797 100.665L146.322 87.1874C150.707 85.9469 155.268 88.4965 156.509 92.8816C157.749 97.2667 155.2 101.828 150.815 103.068L103.172 116.545C98.787 117.786 94.226 115.236 92.9855 110.851C91.745 106.466 94.2946 101.905 98.6797 100.665ZM107.664 132.426L123.545 127.934C127.93 126.693 132.491 129.243 133.732 133.628C134.972 138.013 132.423 142.574 128.038 143.815L112.157 148.307C107.772 149.547 103.211 146.998 101.97 142.613C100.73 138.228 103.279 133.667 107.664 132.426Z" fill="white"/>
<path d="M71.8251 78.1149C71.2238 75.9892 69.0131 74.7534 66.8873 75.3547L58.7044 77.6695C56.5787 78.2708 55.3429 80.4815 55.9443 82.6073L58.2591 90.7902C58.8604 92.9159 61.0711 94.1517 63.1968 93.5503L71.3797 91.2355C73.5054 90.6342 74.7412 88.4235 74.1399 86.2978L71.8251 78.1149Z" fill="white"/>
<path d="M80.8099 109.877C80.2085 107.751 77.9978 106.515 75.8721 107.116L67.6892 109.431C65.5635 110.032 64.3277 112.243 64.929 114.369L67.2438 122.552C67.8451 124.678 70.0559 125.913 72.1816 125.312L80.3645 122.997C82.4902 122.396 83.726 120.185 83.1247 118.059L80.8099 109.877Z" fill="white"/>
<path d="M89.7946 141.638C89.1933 139.512 86.9826 138.277 84.8569 138.878L76.674 141.193C74.5482 141.794 73.3125 144.005 73.9138 146.131L76.2286 154.313C76.8299 156.439 79.0406 157.675 81.1664 157.074L89.3493 154.759C91.475 154.158 92.7107 151.947 92.1094 149.821L89.7946 141.638Z" fill="white"/>
<path d="M98.7794 173.4C98.1781 171.274 95.9674 170.038 93.8416 170.64L85.6587 172.954C83.533 173.556 82.2972 175.767 82.8986 177.892L85.2134 186.075C85.8147 188.201 88.0254 189.437 90.1511 188.835L98.334 186.521C100.46 185.919 101.696 183.708 101.094 181.583L98.7794 173.4Z" fill="white"/>
<path d="M224.075 115.664C209.298 115.664 195.125 121.535 184.675 131.985C174.226 142.435 168.355 156.609 168.355 171.387C168.336 181.517 171.133 191.453 176.435 200.085C181.362 208.323 188.341 215.143 196.691 219.879C205.041 224.615 214.476 227.104 224.075 227.104C233.674 227.104 243.11 224.615 251.46 219.879C259.809 215.143 266.789 208.323 271.716 200.085C277.018 191.453 279.815 181.517 279.795 171.387C279.795 156.609 273.925 142.435 263.475 131.985C253.026 121.535 238.853 115.664 224.075 115.664Z" fill="url(#paint0_linear_279_15841)"/>
<path d="M224.075 115.664C209.298 115.664 195.125 121.535 184.676 131.985C174.226 142.435 168.356 156.609 168.356 171.387C168.336 181.517 171.133 191.453 176.435 200.085C181.362 208.323 188.341 215.143 196.691 219.879C205.041 224.615 214.476 227.104 224.075 227.104C233.675 227.104 243.11 224.615 251.46 219.879C259.81 215.143 266.789 208.323 271.716 200.085C277.018 191.453 279.815 181.517 279.795 171.387C279.795 156.609 273.925 142.435 263.475 131.985C253.026 121.535 238.853 115.664 224.075 115.664ZM252.883 165.327L223.17 192.785C221.187 194.613 218.574 195.605 215.877 195.553C213.181 195.501 210.608 194.41 208.697 192.506L194.962 178.771C193.964 177.806 193.169 176.653 192.622 175.378C192.075 174.103 191.788 172.732 191.776 171.345C191.765 169.957 192.03 168.582 192.556 167.298C193.082 166.014 193.858 164.848 194.839 163.868C195.821 162.887 196.988 162.112 198.272 161.587C199.556 161.062 200.932 160.799 202.319 160.811C203.706 160.824 205.077 161.113 206.351 161.661C207.626 162.209 208.778 163.006 209.741 164.004L216.358 170.621L238.646 149.99C239.652 149.059 240.832 148.336 242.117 147.862C243.403 147.388 244.769 147.171 246.138 147.225C247.507 147.278 248.853 147.601 250.097 148.175C251.342 148.749 252.461 149.562 253.391 150.568C254.321 151.574 255.044 152.754 255.519 154.039C255.993 155.325 256.209 156.691 256.156 158.06C256.102 159.43 255.779 160.775 255.206 162.019C254.632 163.264 253.819 164.383 252.813 165.314L252.883 165.327Z" fill="url(#paint1_linear_279_15841)"/>
<defs>
<linearGradient id="paint0_linear_279_15841" x1="271.361" y1="150.777" x2="271.361" y2="39.3037" gradientUnits="userSpaceOnUse">
<stop stop-color="#F1F4FA"/>
<stop offset="1" stop-color="#557CE9"/>
</linearGradient>
<linearGradient id="paint1_linear_279_15841" x1="224.083" y1="227.089" x2="224.083" y2="115.616" gradientUnits="userSpaceOnUse">
<stop stop-color="#0D2F8C"/>
<stop offset="1" stop-color="#557CE9"/>
</linearGradient>
</defs>
</svg>
