<svg width="32" height="32" viewBox="0 0 32 32" fill="none" xmlns="http://www.w3.org/2000/svg">
<path d="M29.3327 8.33335V15.1333C29.3327 16.8267 28.7727 18.2533 27.7727 19.24C26.786 20.24 25.3593 20.8 23.666 20.8V23.2133C23.666 24.12 22.6527 24.6667 21.906 24.16L20.6127 23.3067C20.7327 22.8933 20.786 22.44 20.786 21.96V16.5334C20.786 13.8134 18.9727 12 16.2527 12H7.19934C7.01267 12 6.83935 12.0134 6.66602 12.0267V8.33335C6.66602 4.93335 8.93268 2.66669 12.3327 2.66669H23.666C27.066 2.66669 29.3327 4.93335 29.3327 8.33335Z" stroke="#626878" stroke-width="1.5" stroke-miterlimit="10" stroke-linecap="round" stroke-linejoin="round"/>
<path d="M20.786 16.5334V21.96C20.786 22.44 20.7327 22.8933 20.6127 23.3066C20.1194 25.2666 18.4927 26.4933 16.2527 26.4933H12.626L8.59935 29.1733C7.99935 29.5867 7.19934 29.1467 7.19934 28.4267V26.4933C5.83934 26.4933 4.70602 26.04 3.91935 25.2533C3.11935 24.4533 2.66602 23.32 2.66602 21.96V16.5334C2.66602 14 4.23935 12.2534 6.66602 12.0267C6.83935 12.0134 7.01267 12 7.19934 12H16.2527C18.9727 12 20.786 13.8134 20.786 16.5334Z" stroke="#626878" stroke-width="1.5" stroke-miterlimit="10" stroke-linecap="round" stroke-linejoin="round"/>
</svg>
