<svg width="36" height="36" viewBox="0 0 36 36" fill="none" xmlns="http://www.w3.org/2000/svg">
<path d="M13.5 3C9.57 3 6.375 6.195 6.375 10.125C6.375 13.98 9.39 17.1 13.32 17.235C13.44 17.22 13.56 17.22 13.65 17.235C13.68 17.235 13.695 17.235 13.725 17.235C13.74 17.235 13.74 17.235 13.755 17.235C17.595 17.1 20.61 13.98 20.625 10.125C20.625 6.195 17.43 3 13.5 3Z" fill="url(#paint0_linear_203_8988)"/>
<path d="M21.1199 21.2253C16.9349 18.4353 10.1099 18.4353 5.89494 21.2253C3.98994 22.5003 2.93994 24.2253 2.93994 26.0703C2.93994 27.9153 3.98994 29.6253 5.87994 30.8853C7.97994 32.2953 10.7399 33.0003 13.4999 33.0003C16.2599 33.0003 19.0199 32.2953 21.1199 30.8853C23.0099 29.6103 24.0599 27.9003 24.0599 26.0403C24.0449 24.1953 23.0099 22.4853 21.1199 21.2253Z" fill="url(#paint1_linear_203_8988)"/>
<path d="M29.985 11.0101C30.225 13.9202 28.155 16.4701 25.29 16.8152C25.275 16.8152 25.275 16.8152 25.26 16.8152H25.215C25.125 16.8152 25.035 16.8151 24.96 16.8451C23.505 16.9201 22.17 16.4551 21.165 15.6002C22.71 14.2201 23.595 12.1501 23.415 9.90015C23.31 8.68515 22.89 7.57515 22.26 6.63015C22.83 6.34515 23.49 6.16515 24.165 6.10515C27.105 5.85015 29.73 8.04015 29.985 11.0101Z" fill="url(#paint2_linear_203_8988)"/>
<path d="M32.9849 24.8846C32.8649 26.3396 31.9349 27.5996 30.3749 28.4546C28.8749 29.2796 26.9849 29.6696 25.1099 29.6246C26.1899 28.6496 26.8199 27.4346 26.9399 26.1446C27.0899 24.2846 26.2049 22.4996 24.4349 21.0746C23.4299 20.2796 22.2599 19.6496 20.9849 19.1846C24.2999 18.2246 28.4699 18.8696 31.0349 20.9396C32.4149 22.0496 33.1199 23.4446 32.9849 24.8846Z" fill="url(#paint3_linear_203_8988)"/>
<defs>
<linearGradient id="paint0_linear_203_8988" x1="18.5587" y1="15.7403" x2="8.95189" y2="4.27119" gradientUnits="userSpaceOnUse">
<stop stop-color="#10907B"/>
<stop offset="1" stop-color="#6FD9D3"/>
</linearGradient>
<linearGradient id="paint1_linear_203_8988" x1="20.9975" y1="31.5442" x2="12.9649" y2="16.9545" gradientUnits="userSpaceOnUse">
<stop stop-color="#10907B"/>
<stop offset="1" stop-color="#6FD9D3"/>
</linearGradient>
<linearGradient id="paint2_linear_203_8988" x1="28.7223" y1="15.7224" x2="21.3425" y2="8.49802" gradientUnits="userSpaceOnUse">
<stop stop-color="#10907B"/>
<stop offset="1" stop-color="#6FD9D3"/>
</linearGradient>
<linearGradient id="paint3_linear_203_8988" x1="31.2588" y1="28.4858" x2="24.0757" y2="19.0237" gradientUnits="userSpaceOnUse">
<stop stop-color="#10907B"/>
<stop offset="1" stop-color="#6FD9D3"/>
</linearGradient>
</defs>
</svg>
