<svg width="82" height="82" viewBox="0 0 82 82" fill="none" xmlns="http://www.w3.org/2000/svg">
<path d="M41.0002 6.83301C32.0485 6.83301 24.771 14.1105 24.771 23.0622C24.771 31.843 31.6385 38.9497 40.5902 39.2572C40.8635 39.223 41.1368 39.223 41.3418 39.2572C41.4102 39.2572 41.4443 39.2572 41.5127 39.2572C41.5468 39.2572 41.5468 39.2572 41.581 39.2572C50.3277 38.9497 57.1952 31.843 57.2293 23.0622C57.2293 14.1105 49.9518 6.83301 41.0002 6.83301Z" fill="url(#paint0_linear_204_11083)"/>
<path d="M58.3568 48.3454C48.8243 41.9904 33.2784 41.9904 23.6776 48.3454C19.3384 51.2495 16.9468 55.1787 16.9468 59.3812C16.9468 63.5837 19.3384 67.4787 23.6434 70.3487C28.4268 73.5604 34.7134 75.1662 41.0001 75.1662C47.2868 75.1662 53.5734 73.5604 58.3568 70.3487C62.6618 67.4445 65.0534 63.5495 65.0534 59.3129C65.0193 55.1104 62.6618 51.2154 58.3568 48.3454Z" fill="url(#paint1_linear_204_11083)"/>
<defs>
<linearGradient id="paint0_linear_204_11083" x1="52.5229" y1="35.8526" x2="30.6406" y2="9.72849" gradientUnits="userSpaceOnUse">
<stop stop-color="#10907B"/>
<stop offset="1" stop-color="#6FD9D3"/>
</linearGradient>
<linearGradient id="paint1_linear_204_11083" x1="58.078" y1="71.8495" x2="39.7814" y2="38.6174" gradientUnits="userSpaceOnUse">
<stop stop-color="#10907B"/>
<stop offset="1" stop-color="#6FD9D3"/>
</linearGradient>
</defs>
</svg>
