<svg width="110" height="110" viewBox="0 0 110 110" fill="none" xmlns="http://www.w3.org/2000/svg">
<circle cx="55" cy="55" r="55" fill="url(#paint0_linear_717_5804)"/>
<path d="M54.9904 63.7942C41.5482 63.7942 30.0664 65.9135 30.0664 74.3909C30.0664 82.8713 41.4765 85.0654 54.9904 85.0654C68.4326 85.0654 79.9144 82.9492 79.9144 74.4688C79.9144 65.9883 68.5074 63.7942 54.9904 63.7942Z" fill="white"/>
<path opacity="0.4" d="M54.9895 55.7192C64.1463 55.7192 71.4829 48.3795 71.4829 39.2258C71.4829 30.0722 64.1463 22.7324 54.9895 22.7324C45.8358 22.7324 38.4961 30.0722 38.4961 39.2258C38.4961 48.3795 45.8358 55.7192 54.9895 55.7192Z" fill="white"/>
<defs>
<linearGradient id="paint0_linear_717_5804" x1="94.05" y1="98.45" x2="19.8" y2="9.89999" gradientUnits="userSpaceOnUse">
<stop stop-color="#0D2F8C"/>
<stop offset="1" stop-color="#6B86CE"/>
</linearGradient>
</defs>
</svg>
