<svg width="25" height="21" viewBox="0 0 25 21" fill="none" xmlns="http://www.w3.org/2000/svg">
<g opacity="0.5">
<path d="M1.00067 5.50174C0.735272 5.50174 0.480752 5.39631 0.293089 5.20865C0.105426 5.02099 0 4.76647 0 4.50107V3.00103C0.000782258 2.2056 0.317101 1.44298 0.879552 0.880529C1.442 0.318078 2.20463 0.00175882 3.00005 0.000976562H4.50009C4.76549 0.000976563 5.02001 0.106402 5.20767 0.294066C5.39534 0.481729 5.50076 0.736249 5.50076 1.00164C5.50076 1.26704 5.39534 1.52158 5.20767 1.70924C5.02001 1.8969 4.76549 2.00233 4.50009 2.00233H3.00005C2.73474 2.00259 2.48036 2.1081 2.29276 2.2957C2.10515 2.48331 1.99964 2.7377 1.99938 3.00301V4.50401C1.99938 4.63517 1.97354 4.76504 1.92335 4.88621C1.87316 5.00738 1.7996 5.11747 1.70687 5.21021C1.61413 5.30295 1.50403 5.37651 1.38286 5.4267C1.26169 5.47689 1.13182 5.50273 1.00067 5.50273V5.50174Z" fill="#2ba692"/>
<path d="M23.0021 5.50372C22.7367 5.50372 22.4822 5.3983 22.2945 5.21063C22.1068 5.02297 22.0014 4.76845 22.0014 4.50305V3.00204C22.0011 2.73672 21.8956 2.48235 21.708 2.29474C21.5204 2.10713 21.266 2.00161 21.0007 2.00135H19.5007C19.2353 2.00135 18.9808 1.89593 18.7931 1.70826C18.6055 1.5206 18.5 1.26608 18.5 1.00068C18.5 0.735287 18.6055 0.480752 18.7931 0.293089C18.9808 0.105426 19.2353 0 19.5007 0H21.0007C21.7961 0.000782258 22.5588 0.317116 23.1212 0.879568C23.6837 1.44202 24 2.20464 24.0008 3.00007V4.50009C24.0013 4.63162 23.9759 4.76196 23.9259 4.88364C23.876 5.00532 23.8025 5.11595 23.7097 5.20919C23.6169 5.30242 23.5067 5.37643 23.3852 5.42697C23.2638 5.47751 23.1336 5.50359 23.0021 5.50372Z" fill="#2ba692"/>
<path d="M4.50009 20.0027H3.00005C2.20463 20.0019 1.442 19.6856 0.879552 19.1231C0.317101 18.5607 0.000782258 17.7981 0 17.0027V15.5026C0 15.2372 0.105426 14.9827 0.293089 14.795C0.480752 14.6074 0.735272 14.502 1.00067 14.502C1.26606 14.502 1.5206 14.6074 1.70826 14.795C1.89593 14.9827 2.00135 15.2372 2.00135 15.5026V17.0027C2.00161 17.268 2.10712 17.5224 2.29473 17.71C2.48233 17.8976 2.7367 18.0031 3.00202 18.0033H4.50206C4.7672 18.0033 5.02147 18.1087 5.20895 18.2961C5.39643 18.4836 5.50175 18.7379 5.50175 19.003C5.50175 19.2682 5.39643 19.5224 5.20895 19.7099C5.02147 19.8974 4.7672 20.0027 4.50206 20.0027H4.50009Z" fill="#2ba692"/>
<path d="M21.0007 20.0027H19.5007C19.2353 20.0027 18.9808 19.8973 18.7931 19.7096C18.6054 19.522 18.5 19.2674 18.5 19.002C18.5 18.7366 18.6054 18.4821 18.7931 18.2945C18.9808 18.1068 19.2353 18.0014 19.5007 18.0014H21.0007C21.266 18.0011 21.5204 17.8956 21.708 17.708C21.8956 17.5204 22.0011 17.266 22.0014 17.0007V15.5007C22.0014 15.2353 22.1068 14.9808 22.2945 14.7931C22.4822 14.6054 22.7367 14.5 23.0021 14.5C23.2675 14.5 23.522 14.6054 23.7097 14.7931C23.8973 14.9808 24.0027 15.2353 24.0027 15.5007V17.0007C24.0017 17.7966 23.6851 18.5595 23.1223 19.1223C22.5595 19.6851 21.7966 20.0017 21.0007 20.0027Z" fill="#2ba692"/>
</g>
<path d="M12.0004 3.93176C10.2028 3.87746 8.43908 4.42868 6.99233 5.49695C5.54558 6.56522 4.4997 8.0886 4.02254 9.82256C3.99249 9.94084 3.99249 10.0648 4.02254 10.183C4.54984 11.8869 5.60882 13.3772 7.0444 14.4357C8.47999 15.4942 10.2168 16.0653 12.0004 16.0653C13.784 16.0653 15.5208 15.4942 16.9564 14.4357C18.3919 13.3772 19.4509 11.8869 19.9782 10.183C20.0083 10.0648 20.0083 9.94084 19.9782 9.82256C19.5009 8.08869 18.455 6.56542 17.0083 5.49718C15.5616 4.42893 13.7979 3.87764 12.0004 3.93176ZM12.0004 13.0029C11.407 13.0029 10.827 12.8269 10.3336 12.4973C9.84028 12.1676 9.45575 11.6991 9.22868 11.1509C9.00162 10.6027 8.94221 9.99946 9.05797 9.41751C9.17373 8.83555 9.45945 8.30099 9.87902 7.88143C10.2986 7.46186 10.8331 7.17614 11.4151 7.06038C11.9971 6.94462 12.6003 7.00403 13.1485 7.23109C13.6966 7.45816 14.1652 7.84269 14.4948 8.33605C14.8245 8.8294 15.0004 9.40944 15.0004 10.0028C14.9981 10.7977 14.6813 11.5595 14.1192 12.1216C13.557 12.6837 12.7953 13.0005 12.0004 13.0029Z" fill="#2ba692"/>
</svg>
