<svg width="127" height="128" viewBox="0 0 127 128" fill="none" xmlns="http://www.w3.org/2000/svg">
<g clip-path="url(#clip0_130_13747)">
<path d="M124.792 55.9933V114.284C124.792 121.527 118.913 127.406 111.67 127.406H15.5025C8.25957 127.406 2.38086 121.527 2.38086 114.284V55.9933L54.3219 4.22588C59.4316 -0.883887 67.7164 -0.883887 72.8262 4.22588L124.792 55.9933Z" fill="url(#paint0_linear_130_13747)"/>
<path d="M25.7467 15.0159H101.525C108.768 15.0159 114.647 20.8946 114.647 28.1375V103.916C114.647 111.159 108.768 117.038 101.525 117.038H25.7467C18.5037 117.038 12.625 111.159 12.625 103.916V28.1127C12.625 20.8698 18.5037 15.0159 25.7467 15.0159Z" fill="#5A5A70"/>
<path d="M124.792 55.9933V114.284C124.792 121.527 118.914 127.406 111.671 127.406H63.5744L63.5 117.286L124.792 55.9933Z" fill="url(#paint1_linear_130_13747)"/>
<path d="M2.20703 55.9933V114.284C2.20703 121.527 8.08574 127.406 15.3287 127.406H63.425L63.4994 117.286L2.20703 55.9933Z" fill="url(#paint2_linear_130_13747)"/>
<path d="M120.972 123.536C118.913 125.62 116.135 127.009 113.059 127.356L15.0311 127.406C11.5832 127.282 8.45781 125.818 6.17578 123.536L54.2969 75.4153C59.4066 70.3056 67.7162 70.3056 72.8508 75.4153L120.972 123.536Z" fill="url(#paint3_linear_130_13747)"/>
<path d="M63.4994 65.1462C75.5685 65.1462 85.3523 55.3623 85.3523 43.2932C85.3523 31.2242 75.5685 21.4403 63.4994 21.4403C51.4304 21.4403 41.6465 31.2242 41.6465 43.2932C41.6465 55.3623 51.4304 65.1462 63.4994 65.1462Z" fill="url(#paint4_linear_130_13747)"/>
<path d="M67.2205 43.7398L55.3391 31.8583C54.6941 31.2134 53.6275 31.2134 52.9578 31.8583C52.3129 32.5032 52.3129 33.5698 52.9578 34.2396L53.826 35.1077L51.1223 37.8115C50.527 38.4068 50.527 39.3741 51.1223 39.9695C51.7176 40.5648 52.685 40.5648 53.2803 39.9695L55.1654 38.0843L57.001 39.9198L55.5127 41.4081C55.0166 41.9042 54.9174 42.7228 55.3887 43.2685C55.9096 43.8886 56.8273 43.9382 57.3978 43.3677L59.7295 41.0361L64.8393 46.1458C63.5494 48.4775 63.8719 51.454 65.8562 53.4384C68.2375 55.8197 72.107 55.8197 74.5131 53.4384C76.9191 51.0572 76.8943 47.1876 74.5131 44.7816C72.5287 42.7724 69.5521 42.4251 67.2205 43.7398ZM72.1318 51.0324C71.0404 52.1238 69.3041 52.1238 68.2127 51.0324C67.1213 49.9409 67.1213 48.2046 68.2127 47.1132C69.3041 46.0218 71.0404 46.0218 72.1318 47.1132C73.2232 48.2046 73.2232 49.9657 72.1318 51.0324Z" fill="white"/>
</g>
<defs>
<linearGradient id="paint0_linear_130_13747" x1="63.5815" y1="127.406" x2="63.5815" y2="0.403971" gradientUnits="userSpaceOnUse">
<stop offset="0.5" stop-color="#0D2F8C"/>
<stop offset="1" stop-color="#5981ED"/>
</linearGradient>
<linearGradient id="paint1_linear_130_13747" x1="74.4126" y1="138.235" x2="140.712" y2="71.9333" gradientUnits="userSpaceOnUse">
<stop offset="0.2" stop-color="#0D2F8C"/>
<stop offset="0.8" stop-color="#4171F3"/>
</linearGradient>
<linearGradient id="paint2_linear_130_13747" x1="52.5891" y1="138.236" x2="-13.7114" y2="71.9352" gradientUnits="userSpaceOnUse">
<stop offset="0.2" stop-color="#0D2F8C"/>
<stop offset="0.8" stop-color="#4F79EB"/>
</linearGradient>
<linearGradient id="paint3_linear_130_13747" x1="63.5813" y1="127.399" x2="63.5813" y2="71.5587" gradientUnits="userSpaceOnUse">
<stop stop-color="#0D2F8C"/>
<stop offset="1" stop-color="#557CE9"/>
</linearGradient>
<linearGradient id="paint4_linear_130_13747" x1="48.0441" y1="27.8255" x2="78.9572" y2="58.7361" gradientUnits="userSpaceOnUse">
<stop stop-color="#3F6AE0"/>
<stop offset="1" stop-color="#0D2F8C"/>
</linearGradient>
<clipPath id="clip0_130_13747">
<rect width="127" height="127" fill="white" transform="translate(0 0.406006)"/>
</clipPath>
</defs>
</svg>
