<?xml version="1.0" standalone="no"?>
<!DOCTYPE svg PUBLIC "-//W3C//DTD SVG 20010904//EN"
 "http://www.w3.org/TR/2001/REC-SVG-20010904/DTD/svg10.dtd">
<svg version="1.0" xmlns="http://www.w3.org/2000/svg"
 width="5834.000000pt" height="2266.000000pt" viewBox="0 0 5834.000000 2266.000000"
 preserveAspectRatio="xMidYMid meet">

<g transform="translate(0.000000,2266.000000) scale(0.100000,-0.100000)"
fill="#000000" stroke="none">
<path d="M45980 15401 l0 -1799 78 -16 c218 -46 504 -160 708 -282 l96 -57
1275 1275 1275 1275 -93 79 c-736 613 -1663 1051 -2609 1233 -232 44 -581 91
-687 91 l-43 0 0 -1799z"/>
<path d="M48733 13928 l-1272 -1273 61 -95 c120 -188 224 -431 281 -657 l31
-123 1803 0 c1711 0 1803 1 1803 18 0 9 -7 80 -15 157 -107 1019 -471 1979
-1061 2801 -117 163 -341 444 -354 444 -3 0 -577 -573 -1277 -1272z"/>
<path d="M18205 14395 c-220 -48 -346 -170 -376 -364 -24 -158 35 -292 167
-380 l44 -29 -62 -11 c-35 -6 -98 -16 -140 -23 l-78 -12 0 -129 0 -129 32 6
c83 16 753 96 946 112 l82 7 0 148 0 149 -57 -6 c-32 -4 -143 -19 -248 -34
l-190 -28 -40 27 c-22 15 -53 46 -70 70 -28 40 -30 49 -30 130 0 78 3 92 27
129 15 22 49 54 75 69 44 26 56 28 143 27 75 -1 112 -7 173 -28 42 -14 79 -26
81 -26 6 0 96 229 96 244 0 19 -110 61 -209 80 -100 19 -282 20 -366 1z"/>
<path d="M8297 11798 l-2 -1903 -23 -83 c-73 -274 -230 -430 -492 -488 -104
-24 -387 -29 -495 -11 -297 52 -494 291 -536 647 -20 176 2 486 57 790 22 121
80 376 100 443 5 16 -15 17 -326 17 l-331 0 -39 -82 c-155 -332 -244 -833
-211 -1183 36 -371 149 -639 366 -864 176 -183 392 -297 677 -357 98 -21 619
-31 785 -15 395 39 686 161 890 374 187 196 285 431 322 769 7 65 11 720 11
1973 l0 1875 -375 0 -375 0 -3 -1902z"/>
<path d="M10050 11800 l0 -1900 1528 3 1527 3 93 22 c220 52 400 130 547 239
l87 64 67 -64 c126 -122 268 -197 462 -243 69 -17 174 -18 1492 -21 l1417 -4
0 300 0 300 -522 4 c-576 4 -576 4 -703 70 -78 40 -200 163 -242 242 -56 107
-75 186 -80 335 -6 162 10 257 62 366 43 88 127 176 213 222 214 114 560 105
902 -26 58 -22 108 -37 112 -33 12 11 209 572 203 581 -3 4 -62 27 -133 49
-509 163 -1078 146 -1463 -44 -280 -138 -475 -360 -563 -643 -76 -242 -76
-530 0 -731 56 -149 171 -294 284 -360 l55 -32 -455 4 c-389 3 -464 6 -515 21
-82 23 -171 68 -224 114 l-43 38 25 79 c52 166 62 236 61 445 0 162 -4 211
-21 286 -51 218 -135 381 -275 529 -163 172 -365 283 -623 340 -38 9 -142 18
-230 22 -137 4 -179 2 -288 -17 -244 -41 -479 -118 -672 -218 l-90 -47 -52
-105 c-145 -292 -219 -652 -194 -944 17 -195 68 -423 117 -518 l15 -28 -566 0
-565 0 0 1600 0 1600 -375 0 -375 0 0 -1900z m3066 -31 c131 -24 239 -107 306
-235 52 -99 71 -185 71 -329 1 -139 -15 -211 -71 -325 -52 -106 -186 -241
-297 -297 -118 -60 -176 -73 -362 -80 l-162 -6 -25 84 c-97 324 -112 588 -50
904 30 156 28 152 97 186 178 91 349 124 493 98z"/>
<path d="M19858 12288 c-3 -1396 -3 -1414 -24 -1479 -59 -190 -170 -279 -374
-302 -54 -6 -102 -9 -104 -6 -5 4 -596 2508 -596 2522 0 4 -175 7 -390 7 -305
0 -390 -3 -390 -12 0 -7 144 -575 319 -1263 l318 -1250 -453 -3 -454 -2 0
-300 0 -300 983 0 c833 0 996 2 1076 15 453 74 752 391 826 875 13 80 15 319
15 1503 l0 1407 -375 0 -375 0 -2 -1412z"/>
<path d="M21560 11800 l0 -1900 375 0 375 0 0 1900 0 1900 -375 0 -375 0 0
-1900z"/>
<path d="M27137 11798 l-2 -1903 -23 -83 c-73 -274 -230 -430 -492 -488 -104
-24 -387 -29 -495 -11 -297 52 -494 291 -536 647 -20 176 2 486 57 790 22 121
80 376 100 443 5 16 -15 17 -326 17 l-331 0 -39 -82 c-155 -332 -244 -833
-211 -1183 36 -371 149 -639 366 -864 176 -183 392 -297 677 -357 98 -21 619
-31 785 -15 395 39 686 161 890 374 187 196 285 431 322 769 7 65 11 720 11
1973 l0 1875 -375 0 -375 0 -3 -1902z"/>
<path d="M32300 12100 l0 -1600 -600 0 -600 0 0 940 0 940 -462 0 c-255 0
-503 -5 -553 -10 -739 -82 -1215 -470 -1320 -1074 -31 -182 -15 -483 36 -664
98 -348 331 -590 660 -682 147 -41 247 -50 578 -50 l314 0 -6 -92 c-12 -200
-108 -358 -268 -438 -101 -51 -168 -64 -334 -63 -234 0 -414 38 -617 129 -57
25 -108 48 -114 50 -7 3 -61 -88 -129 -218 -65 -123 -131 -246 -147 -275 l-29
-52 112 -57 c277 -138 578 -193 1008 -181 349 9 575 68 786 205 153 99 266
220 349 372 74 137 136 387 136 554 l0 66 2655 0 2655 0 0 304 c0 272 -2 305
-17 317 -31 26 -110 158 -147 246 -69 164 -125 375 -191 723 -92 480 -295 746
-660 863 -159 51 -279 67 -493 67 -329 0 -618 -55 -890 -170 -64 -28 -123 -54
-131 -59 -11 -7 9 -63 99 -285 62 -152 116 -275 119 -274 3 2 38 19 76 39 191
99 367 143 575 143 245 0 366 -56 471 -217 52 -80 93 -200 145 -422 82 -352
151 -520 262 -637 l36 -38 -1307 0 -1307 0 0 1600 0 1600 -375 0 -375 0 0
-1600z m-1950 -960 l0 -640 -192 0 c-295 0 -386 22 -487 115 -104 97 -150 239
-151 468 -1 296 105 504 308 610 127 65 213 84 410 86 l112 1 0 -640z"/>
<path d="M45411 12769 c-103 -12 -262 -52 -357 -89 -189 -75 -345 -179 -494
-329 -206 -208 -328 -437 -392 -735 -17 -82 -21 -135 -21 -276 0 -199 17 -302
79 -481 254 -729 1052 -1124 1792 -888 511 164 882 589 979 1122 23 124 23
370 0 494 -138 756 -828 1270 -1586 1182z"/>
<path d="M47834 10913 c-68 -306 -164 -554 -297 -764 l-54 -87 1278 -1278
c703 -703 1280 -1276 1282 -1274 2 3 39 48 82 100 478 578 860 1291 1081 2017
114 377 203 843 232 1216 l8 97 -1803 0 -1803 0 -6 -27z"/>
<path d="M46855 9436 c-52 -41 -226 -137 -337 -187 -214 -95 -475 -165 -707
-190 -143 -15 -461 -6 -591 16 -317 54 -646 181 -905 351 -19 13 -103 -69
-1294 -1260 -700 -700 -1272 -1278 -1270 -1284 12 -33 366 -301 604 -457 229
-151 378 -236 640 -365 843 -415 1778 -620 2710 -597 277 8 406 18 670 52
1069 142 2091 588 2938 1283 70 57 127 107 127 111 0 7 -2543 2551 -2550 2551
-3 -1 -18 -11 -35 -24z"/>
</g>
</svg>
