<?xml version="1.0" standalone="no"?>
<!DOCTYPE svg PUBLIC "-//W3C//DTD SVG 20010904//EN"
 "http://www.w3.org/TR/2001/REC-SVG-20010904/DTD/svg10.dtd">
<svg version="1.0" xmlns="http://www.w3.org/2000/svg"
 width="5834.000000pt" height="2266.000000pt" viewBox="0 0 5834.000000 2266.000000"
 preserveAspectRatio="xMidYMid meet">

<g transform="translate(0.000000,2266.000000) scale(0.100000,-0.100000)"
fill="#000000" stroke="none">
<path d="M17105 14435 c-220 -48 -346 -170 -376 -364 -24 -158 35 -292 167
-380 l44 -29 -62 -11 c-35 -6 -98 -16 -140 -23 l-78 -12 0 -129 0 -129 32 6
c83 16 753 96 946 112 l82 7 0 148 0 149 -57 -6 c-32 -4 -143 -19 -248 -34
l-190 -28 -40 27 c-22 15 -53 46 -70 70 -28 40 -30 49 -30 130 0 78 3 92 27
129 15 22 49 54 75 69 44 26 56 28 143 27 75 -1 112 -7 173 -28 42 -14 79 -26
81 -26 6 0 96 229 96 244 0 19 -110 61 -209 80 -100 19 -282 20 -366 1z"/>
<path d="M9530 11840 l0 -1900 375 0 375 0 0 1900 0 1900 -375 0 -375 0 0
-1900z"/>
<path d="M18758 12328 c-3 -1396 -3 -1414 -24 -1479 -59 -190 -170 -279 -374
-302 -54 -6 -102 -9 -104 -6 -5 4 -596 2508 -596 2522 0 4 -175 7 -390 7 -305
0 -390 -3 -390 -12 0 -7 144 -575 319 -1263 l318 -1250 -453 -3 -454 -2 0
-300 0 -300 983 0 c833 0 996 2 1076 15 453 74 752 391 826 875 13 80 15 319
15 1503 l0 1407 -375 0 -375 0 -2 -1412z"/>
<path d="M20460 11840 l0 -1900 375 0 375 0 0 1900 0 1900 -375 0 -375 0 0
-1900z"/>
<path d="M26027 11838 l-2 -1903 -23 -83 c-73 -274 -230 -430 -492 -488 -104
-24 -387 -29 -495 -11 -297 52 -494 291 -536 647 -20 176 2 486 57 790 22 121
80 376 100 443 5 16 -15 17 -326 17 l-331 0 -39 -82 c-155 -332 -244 -833
-211 -1183 36 -371 149 -639 366 -864 176 -183 392 -297 677 -357 98 -21 619
-31 785 -15 395 39 686 161 890 374 187 196 285 431 322 769 7 65 11 720 11
1973 l0 1875 -375 0 -375 0 -3 -1902z"/>
<path d="M31190 12140 l0 -1600 -600 0 -600 0 0 940 0 940 -462 0 c-255 0
-503 -5 -553 -10 -739 -82 -1215 -470 -1320 -1074 -31 -182 -15 -483 36 -664
98 -348 331 -590 660 -682 147 -41 247 -50 578 -50 l314 0 -6 -92 c-12 -200
-108 -358 -268 -438 -101 -51 -168 -64 -334 -63 -234 0 -414 38 -617 129 -57
25 -108 48 -114 50 -7 3 -61 -88 -129 -218 -65 -123 -131 -246 -147 -275 l-29
-52 112 -57 c277 -138 578 -193 1008 -181 349 9 575 68 786 205 153 99 266
220 349 372 74 137 136 387 136 554 l0 66 2655 0 2655 0 0 304 c0 272 -2 305
-17 317 -31 26 -110 158 -147 246 -69 164 -125 375 -191 723 -92 480 -295 746
-660 863 -159 51 -279 67 -493 67 -329 0 -618 -55 -890 -170 -64 -28 -123 -54
-131 -59 -11 -7 9 -63 99 -285 62 -152 116 -275 119 -274 3 2 38 19 76 39 191
99 367 143 575 143 245 0 366 -56 471 -217 52 -80 93 -200 145 -422 82 -352
151 -520 262 -637 l36 -38 -1307 0 -1307 0 0 1600 0 1600 -375 0 -375 0 0
-1600z m-1950 -960 l0 -640 -192 0 c-295 0 -386 22 -487 115 -104 97 -150 239
-151 468 -1 296 105 504 308 610 127 65 213 84 410 86 l112 1 0 -640z"/>
<path d="M14915 13557 c-149 -50 -225 -167 -225 -347 0 -213 113 -345 306
-358 128 -8 227 34 294 125 50 68 63 116 63 233 1 122 -20 190 -78 258 -55 63
-130 95 -234 99 -52 2 -102 -2 -126 -10z"/>
<path d="M44276 12890 c-355 -41 -648 -181 -897 -429 -175 -176 -284 -352
-359 -581 -53 -162 -73 -286 -73 -460 0 -247 51 -458 164 -679 268 -525 850
-847 1433 -792 214 20 375 68 566 167 140 73 255 160 375 286 482 501 547
1255 159 1844 -80 122 -271 312 -393 393 -245 162 -494 243 -786 255 -60 3
-146 1 -189 -4z"/>
<path d="M7025 12783 c-13 -31 -245 -607 -262 -650 -3 -6 47 -36 119 -72 466
-229 755 -560 937 -1075 32 -91 103 -343 115 -408 l7 -38 -836 0 -835 0 0
-300 0 -300 1216 0 1215 0 -4 323 -3 322 -42 160 c-85 335 -170 577 -282 812
-241 504 -575 869 -1027 1122 -78 44 -283 141 -298 141 -3 0 -12 -17 -20 -37z"/>
<path d="M11798 11093 c-3 -1259 -4 -1331 -22 -1383 -49 -148 -137 -260 -242
-310 -153 -71 -408 -40 -597 75 l-57 34 -23 -37 c-102 -160 -268 -432 -272
-443 -11 -29 270 -176 425 -223 172 -51 249 -61 480 -60 202 0 221 2 314 27
183 51 319 129 444 255 185 189 283 441 299 779 l6 133 1709 0 1708 0 0 1241
0 1240 -587 -4 c-642 -4 -674 -7 -895 -71 -483 -141 -795 -487 -858 -953 -20
-143 -9 -356 24 -468 31 -108 100 -250 156 -323 22 -29 40 -55 40 -57 0 -3
-292 -5 -650 -5 l-650 0 0 940 0 940 -375 0 -375 0 -2 -1327z m3422 87 l0
-640 -93 0 c-487 0 -736 210 -737 622 0 269 103 465 299 567 126 65 232 87
429 90 l102 1 0 -640z"/>
<path d="M45680 9423 c-253 -163 -577 -284 -915 -340 -137 -22 -521 -25 -660
-5 -356 53 -691 179 -980 368 -19 13 -105 -71 -1334 -1300 l-1313 -1313 149
-120 c1284 -1031 2912 -1494 4543 -1292 985 122 1937 492 2748 1068 148 106
306 229 410 319 l64 55 -1309 1309 c-719 719 -1310 1308 -1313 1307 -3 0 -43
-25 -90 -56z"/>
</g>
</svg>
