<svg width="82" height="82" viewBox="0 0 82 82" fill="none" xmlns="http://www.w3.org/2000/svg">
<path d="M54.6667 6.83301H27.3333C15.375 6.83301 10.25 13.6663 10.25 23.9163V58.083C10.25 68.333 15.375 75.1663 27.3333 75.1663H54.6667C66.625 75.1663 71.75 68.333 71.75 58.083V23.9163C71.75 13.6663 66.625 6.83301 54.6667 6.83301ZM27.3333 41.8538H41C42.4008 41.8538 43.5625 43.0155 43.5625 44.4163C43.5625 45.8172 42.4008 46.9788 41 46.9788H27.3333C25.9325 46.9788 24.7708 45.8172 24.7708 44.4163C24.7708 43.0155 25.9325 41.8538 27.3333 41.8538ZM54.6667 60.6455H27.3333C25.9325 60.6455 24.7708 59.4838 24.7708 58.083C24.7708 56.6822 25.9325 55.5205 27.3333 55.5205H54.6667C56.0675 55.5205 57.2292 56.6822 57.2292 58.083C57.2292 59.4838 56.0675 60.6455 54.6667 60.6455ZM63.2083 31.6038H56.375C51.1817 31.6038 46.9792 27.4013 46.9792 22.208V15.3747C46.9792 13.9738 48.1408 12.8122 49.5417 12.8122C50.9425 12.8122 52.1042 13.9738 52.1042 15.3747V22.208C52.1042 24.5655 54.0175 26.4788 56.375 26.4788H63.2083C64.6092 26.4788 65.7708 27.6405 65.7708 29.0413C65.7708 30.4422 64.6092 31.6038 63.2083 31.6038Z" fill="url(#paint0_linear_1466_8028)"/>
<defs>
<linearGradient id="paint0_linear_1466_8028" x1="70.4303" y1="66.3083" x2="9.70538" y2="63.6085" gradientUnits="userSpaceOnUse">
<stop stop-color="#0D2F8C"/>
<stop offset="1" stop-color="#5D7DD7"/>
</linearGradient>
</defs>
</svg>
