<svg width="36" height="36" viewBox="0 0 36 36" fill="none" xmlns="http://www.w3.org/2000/svg">
<path d="M24.285 3H11.715C6.255 3 3 6.255 3 11.715V24.27C3 29.745 6.255 33 11.715 33H24.27C29.73 33 32.985 29.745 32.985 24.285V11.715C33 6.255 29.745 3 24.285 3ZM24 19.125H19.125V24C19.125 24.615 18.615 25.125 18 25.125C17.385 25.125 16.875 24.615 16.875 24V19.125H12C11.385 19.125 10.875 18.615 10.875 18C10.875 17.385 11.385 16.875 12 16.875H16.875V12C16.875 11.385 17.385 10.875 18 10.875C18.615 10.875 19.125 11.385 19.125 12V16.875H24C24.615 16.875 25.125 17.385 25.125 18C25.125 18.615 24.615 19.125 24 19.125Z" fill="url(#paint0_linear_1466_7984)"/>
<defs>
<linearGradient id="paint0_linear_1466_7984" x1="32.3416" y1="29.1111" x2="2.74809" y2="27.6499" gradientUnits="userSpaceOnUse">
<stop stop-color="#0D2F8C"/>
<stop offset="1" stop-color="#5D7DD7"/>
</linearGradient>
</defs>
</svg>
