<svg width="36" height="36" viewBox="0 0 36 36" fill="none" xmlns="http://www.w3.org/2000/svg">
<path d="M31.5 11.28V20.1C31.5 20.61 31.005 20.97 30.525 20.82L24.63 18.99C23.01 18.495 21.27 18.915 20.085 20.1C18.885 21.3 18.45 23.055 18.96 24.675L20.775 30.525C20.925 31.005 20.565 31.5 20.055 31.5H11.28C6.105 31.5 3 28.41 3 23.22V11.28C3 6.09 6.105 3 11.28 3H23.22C28.395 3 31.5 6.09 31.5 11.28Z" fill="url(#paint0_linear_1466_8019)"/>
<path d="M32.9405 28.2607L30.4955 29.0857C29.8205 29.3107 29.2805 29.8357 29.0555 30.5257L28.2305 32.9707C27.5255 35.0857 24.5555 35.0407 23.8955 32.9257L21.1205 24.0007C20.5805 22.2307 22.2155 20.5807 23.9705 21.1357L32.9105 23.9107C35.0105 24.5707 35.0405 27.5557 32.9405 28.2607Z" fill="url(#paint1_linear_1466_8019)"/>
<defs>
<linearGradient id="paint0_linear_1466_8019" x1="30.8884" y1="27.8056" x2="2.76063" y2="26.416" gradientUnits="userSpaceOnUse">
<stop stop-color="#0D2F8C"/>
<stop offset="1" stop-color="#5D7DD7"/>
</linearGradient>
<linearGradient id="paint1_linear_1466_8019" x1="34.2112" y1="32.7836" x2="20.9023" y2="32.1272" gradientUnits="userSpaceOnUse">
<stop stop-color="#0D2F8C"/>
<stop offset="1" stop-color="#5D7DD7"/>
</linearGradient>
</defs>
</svg>
