<svg width="70" height="70" viewBox="0 0 70 70" fill="none" xmlns="http://www.w3.org/2000/svg">
<rect width="70" height="70" rx="25" fill="#465E9F" fill-opacity="0.1"/>
<path d="M41 20H29C23 20 20 23 20 29V48.5C20 49.325 20.675 50 21.5 50H41C47 50 50 47 50 41V29C50 23 47 20 41 20ZM38 39.875H27.5C26.885 39.875 26.375 39.365 26.375 38.75C26.375 38.135 26.885 37.625 27.5 37.625H38C38.615 37.625 39.125 38.135 39.125 38.75C39.125 39.365 38.615 39.875 38 39.875ZM42.5 32.375H27.5C26.885 32.375 26.375 31.865 26.375 31.25C26.375 30.635 26.885 30.125 27.5 30.125H42.5C43.115 30.125 43.625 30.635 43.625 31.25C43.625 31.865 43.115 32.375 42.5 32.375Z" fill="url(#paint0_linear_1426_8225)"/>
<defs>
<linearGradient id="paint0_linear_1426_8225" x1="49.3562" y1="46.1111" x2="19.748" y2="44.6485" gradientUnits="userSpaceOnUse">
<stop stop-color="#0D2F8C"/>
<stop offset="1" stop-color="#5D7DD7"/>
</linearGradient>
</defs>
</svg>
