<svg width="52" height="52" viewBox="0 0 52 52" fill="none" xmlns="http://www.w3.org/2000/svg">
<circle cx="26" cy="26" r="26" fill="white" fill-opacity="0.1"/>
<g clip-path="url(#clip0_214_12405)">
<path d="M34.4058 18.7312C34.4058 20.3621 33.0838 21.6843 31.4529 21.6843C29.822 21.6843 28.5 20.3621 28.5 18.7312C28.5 17.1005 29.822 15.7783 31.4529 15.7783C33.0838 15.7783 34.4058 17.1005 34.4058 18.7312Z" fill="white"/>
<path d="M31.4527 22.3656C29.4483 22.3656 27.8184 20.7355 27.8184 18.731C27.8184 16.7268 29.4483 15.0967 31.4527 15.0967C33.4571 15.0967 35.0871 16.7268 35.0871 18.731C35.0871 20.7355 33.4571 22.3656 31.4527 22.3656ZM31.4527 16.4596C30.1998 16.4596 29.1813 17.4791 29.1813 18.731C29.1813 19.9831 30.1998 21.0027 31.4527 21.0027C32.7056 21.0027 33.7242 19.9831 33.7242 18.731C33.7242 17.4791 32.7056 16.4596 31.4527 16.4596ZM34.4056 33.2688C34.4056 34.8995 33.0836 36.2217 31.4527 36.2217C29.8218 36.2217 28.4998 34.8995 28.4998 33.2688C28.4998 31.6379 29.8218 30.3157 31.4527 30.3157C33.0836 30.3157 34.4056 31.6379 34.4056 33.2688Z" fill="white"/>
<path d="M31.4527 36.903C29.4482 36.903 27.8183 35.2729 27.8183 33.2686C27.8183 31.2642 29.4483 29.6341 31.4527 29.6341C33.4571 29.6341 35.087 31.2642 35.087 33.2686C35.087 35.2729 33.4571 36.903 31.4527 36.903ZM31.4527 30.997C30.1997 30.997 29.1812 32.0166 29.1812 33.2686C29.1812 34.5206 30.1997 35.5401 31.4527 35.5401C32.7056 35.5401 33.7241 34.5206 33.7241 33.2686C33.7241 32.0166 32.7056 30.997 31.4527 30.997ZM21.6853 25.9998C21.6853 27.6307 20.3631 28.9527 18.7322 28.9527C17.1014 28.9527 15.7793 27.6307 15.7793 25.9998C15.7793 24.3688 17.1014 23.0469 18.7322 23.0469C20.3631 23.0469 21.6853 24.3688 21.6853 25.9998Z" fill="white"/>
<path d="M18.732 29.6339C16.7277 29.6339 15.0977 28.004 15.0977 25.9996C15.0977 23.9952 16.7277 22.3652 18.732 22.3652C20.7365 22.3652 22.3665 23.9952 22.3665 25.9996C22.3665 28.004 20.7365 29.6339 18.732 29.6339ZM18.732 23.7281C17.4791 23.7281 16.4606 24.7475 16.4606 25.9996C16.4606 27.2517 17.4791 28.271 18.732 28.271C19.9851 28.271 21.0036 27.2517 21.0036 25.9996C21.0036 24.7475 19.9851 23.7281 18.732 23.7281Z" fill="white"/>
<path d="M20.8783 25.5643C20.562 25.5643 20.2549 25.3998 20.0877 25.1055C19.8396 24.6703 19.9923 24.1151 20.4276 23.866L28.8584 19.0596C29.2936 18.8097 29.8488 18.9624 30.0978 19.3993C30.3459 19.8345 30.1932 20.3897 29.7579 20.6388L21.327 25.4452C21.1903 25.5233 21.0357 25.5644 20.8783 25.5643ZM29.3082 33.0603C29.1555 33.0603 29.0011 33.022 28.8593 32.9412L20.4285 28.1347C19.9932 27.8867 19.8407 27.3315 20.0887 26.8953C20.3357 26.4592 20.8918 26.3057 21.328 26.5555L29.759 31.362C30.1942 31.61 30.3467 32.1653 30.0987 32.6014C29.9307 32.8957 29.6235 33.0603 29.3083 33.0603H29.3082Z" fill="white"/>
</g>
<defs>
<clipPath id="clip0_214_12405">
<rect width="21.8065" height="21.8065" fill="white" transform="translate(15.0977 15.0967)"/>
</clipPath>
</defs>
</svg>
