<svg width="352" height="352" viewBox="0 0 352 352" fill="none" xmlns="http://www.w3.org/2000/svg">
<path d="M352 176C352 273.202 273.202 352 176 352C78.7979 352 0 273.202 0 176C0 78.7979 78.7979 0 176 0C273.202 0 352 78.7979 352 176Z" fill="#4062BF" fill-opacity="0.07"/>
<path d="M230.708 191.15C221.779 191.15 213.216 194.697 206.902 201.011C200.588 207.325 197.041 215.888 197.041 224.817C197.029 230.937 198.719 236.94 201.923 242.155C204.9 247.133 209.117 251.254 214.162 254.115C219.207 256.976 224.908 258.48 230.708 258.48C236.508 258.48 242.209 256.976 247.254 254.115C252.299 251.254 256.516 247.133 259.493 242.155C262.696 236.94 264.386 230.937 264.374 224.817C264.374 215.888 260.827 207.325 254.514 201.011C248.2 194.697 239.637 191.15 230.708 191.15ZM248.113 221.156L230.161 237.745C228.962 238.85 227.384 239.449 225.754 239.418C224.125 239.386 222.571 238.727 221.416 237.577L213.117 229.278C212.514 228.695 212.034 227.999 211.703 227.228C211.373 226.458 211.199 225.63 211.192 224.791C211.185 223.953 211.345 223.122 211.663 222.346C211.981 221.571 212.45 220.866 213.043 220.274C213.636 219.681 214.341 219.213 215.117 218.896C215.893 218.579 216.724 218.42 217.562 218.427C218.4 218.435 219.229 218.609 219.999 218.941C220.769 219.272 221.465 219.753 222.047 220.356L226.045 224.354L239.512 211.889C240.119 211.327 240.832 210.89 241.609 210.604C242.386 210.317 243.211 210.186 244.038 210.219C244.866 210.251 245.679 210.446 246.43 210.793C247.182 211.139 247.859 211.63 248.421 212.238C248.983 212.846 249.419 213.559 249.706 214.336C249.993 215.112 250.124 215.938 250.091 216.765C250.059 217.592 249.864 218.405 249.517 219.157C249.17 219.909 248.679 220.585 248.071 221.147L248.113 221.156Z" fill="url(#paint0_linear_265_10875)"/>
<path d="M255.958 128.363V140.651H87.625V128.363C87.6294 123.781 88.5365 119.245 90.2945 115.014C92.0524 110.783 94.6268 106.939 97.8705 103.704C101.114 100.468 104.964 97.9026 109.199 96.1549C113.434 94.4071 117.972 93.511 122.554 93.5176H221.029C225.611 93.511 230.149 94.4071 234.384 96.1549C238.62 97.9026 242.469 100.468 245.713 103.704C248.957 106.939 251.531 110.783 253.289 115.014C255.047 119.245 255.954 123.781 255.958 128.363Z" fill="url(#paint1_linear_265_10875)"/>
<path d="M87.625 140.65V203.439C87.6272 212.68 91.2991 221.541 97.8333 228.075C104.368 234.61 113.229 238.281 122.47 238.284H175.158C176.329 238.303 177.49 238.081 178.571 237.631C179.651 237.18 180.627 236.512 181.438 235.668C182.248 234.823 182.876 233.821 183.281 232.723C183.687 231.625 183.861 230.455 183.794 229.286C183.169 222.283 184.143 215.23 186.64 208.657C189.138 202.085 193.094 196.165 198.212 191.344C202.97 186.705 208.729 183.218 215.045 181.151C224.704 177.948 235.146 177.986 244.781 181.261C246.044 181.698 247.392 181.828 248.715 181.64C250.038 181.453 251.297 180.953 252.388 180.182C253.48 179.412 254.372 178.392 254.991 177.209C255.611 176.025 255.939 174.71 255.95 173.374V140.65H87.625ZM138.125 210.088H121.292C119.617 210.088 118.012 209.423 116.828 208.239C115.644 207.055 114.979 205.45 114.979 203.775C114.979 202.101 115.644 200.496 116.828 199.312C118.012 198.128 119.617 197.463 121.292 197.463H138.125C139.799 197.463 141.405 198.128 142.589 199.312C143.772 200.496 144.438 202.101 144.438 203.775C144.438 205.45 143.772 207.055 142.589 208.239C141.405 209.423 139.799 210.088 138.125 210.088Z" fill="url(#paint2_linear_265_10875)"/>
<path d="M144.437 203.775C144.426 205.446 143.757 207.045 142.576 208.227C141.394 209.408 139.795 210.077 138.124 210.088H121.291C119.617 210.088 118.011 209.423 116.827 208.239C115.644 207.055 114.979 205.45 114.979 203.775C114.979 202.101 115.644 200.496 116.827 199.312C118.011 198.128 119.617 197.463 121.291 197.463H138.124C139.795 197.474 141.394 198.143 142.576 199.324C143.757 200.505 144.426 202.105 144.437 203.775Z" fill="#F1F4FA"/>
<defs>
<linearGradient id="paint0_linear_265_10875" x1="230.712" y1="258.471" x2="230.712" y2="191.121" gradientUnits="userSpaceOnUse">
<stop stop-color="#0D2F8C"/>
<stop offset="1" stop-color="#557CE9"/>
</linearGradient>
<linearGradient id="paint1_linear_265_10875" x1="144" y1="141" x2="144" y2="94" gradientUnits="userSpaceOnUse">
<stop stop-color="#2D3A5C"/>
<stop offset="1" stop-color="#626878"/>
</linearGradient>
<linearGradient id="paint2_linear_265_10875" x1="171.798" y1="238.272" x2="171.798" y2="140.608" gradientUnits="userSpaceOnUse">
<stop stop-color="#0D2F8C"/>
<stop offset="1" stop-color="#557CE9"/>
</linearGradient>
</defs>
</svg>
