<svg width="36" height="36" viewBox="0 0 36 36" fill="none" xmlns="http://www.w3.org/2000/svg">
<path d="M26.0842 23.505L20.0242 18H15.9592L9.89923 23.505C8.20423 25.035 7.64923 27.39 8.47423 29.52C9.29923 31.635 11.3092 33 13.5742 33H22.4092C24.6892 33 26.6842 31.635 27.5092 29.52C28.3342 27.39 27.7792 25.035 26.0842 23.505ZM20.7292 27.21H15.2692C14.6992 27.21 14.2492 26.745 14.2492 26.19C14.2492 25.635 14.7142 25.17 15.2692 25.17H20.7292C21.2992 25.17 21.7492 25.635 21.7492 26.19C21.7492 26.745 21.2842 27.21 20.7292 27.21Z" fill="url(#paint0_linear_1466_7903)"/>
<path d="M27.526 6.48C26.701 4.365 24.691 3 22.426 3H13.576C11.311 3 9.30097 4.365 8.47597 6.48C7.66597 8.61 8.22097 10.965 9.91597 12.495L15.976 18H20.041L26.101 12.495C27.781 10.965 28.336 8.61 27.526 6.48ZM20.731 10.845H15.271C14.701 10.845 14.251 10.38 14.251 9.825C14.251 9.27 14.716 8.805 15.271 8.805H20.731C21.301 8.805 21.751 9.27 21.751 9.825C21.751 10.38 21.286 10.845 20.731 10.845Z" fill="url(#paint1_linear_1466_7903)"/>
<defs>
<linearGradient id="paint0_linear_1466_7903" x1="27.4612" y1="31.0556" x2="7.96659" y2="29.7851" gradientUnits="userSpaceOnUse">
<stop stop-color="#0D2F8C"/>
<stop offset="1" stop-color="#5D7DD7"/>
</linearGradient>
<linearGradient id="paint1_linear_1466_7903" x1="27.4685" y1="16.0556" x2="7.9783" y2="14.7857" gradientUnits="userSpaceOnUse">
<stop stop-color="#0D2F8C"/>
<stop offset="1" stop-color="#5D7DD7"/>
</linearGradient>
</defs>
</svg>
