<svg width="12" height="7" viewBox="0 0 12 7" fill="none" xmlns="http://www.w3.org/2000/svg">
<path d="M11.1392 0.148438H0.570211C0.455442 0.152665 0.344381 0.190184 0.250561 0.256422C0.156741 0.32266 0.0842131 0.414758 0.0418161 0.521492C-0.000580933 0.628226 -0.0110166 0.744988 0.0117809 0.85755C0.0345783 0.970111 0.0896244 1.07361 0.170211 1.15544L5.45521 6.68144C5.50631 6.7352 5.56781 6.77802 5.63597 6.80727C5.70414 6.83653 5.77754 6.85161 5.85171 6.85161C5.92589 6.85161 5.99929 6.83653 6.06745 6.80727C6.13561 6.77802 6.19711 6.7352 6.24821 6.68144L11.5332 1.15544C11.6135 1.07399 11.6685 0.971013 11.6915 0.858971C11.7146 0.746928 11.7046 0.630613 11.663 0.524092C11.6213 0.41757 11.5496 0.325404 11.4567 0.258738C11.3637 0.192071 11.2535 0.153761 11.1392 0.148438Z" fill="#646D82"/>
</svg>
