<svg width="302" height="302" viewBox="0 0 302 302" fill="none" xmlns="http://www.w3.org/2000/svg">
<circle cx="151" cy="151" r="151" fill="#F1F4FA"/>
<g clip-path="url(#clip0_256_10249)">
<path d="M184.209 155.001C164.774 154.977 149.025 139.228 149.001 119.792C149.001 118.877 149.071 117.983 149.136 117.084H108.376C106.88 117.085 105.669 118.299 105.67 119.795C105.67 119.961 105.686 120.127 105.716 120.291L113.841 163.624C113.957 164.245 114.287 164.805 114.772 165.209C115.258 165.612 115.869 165.834 116.501 165.834H190.893C197.723 165.835 203.485 160.749 204.332 153.972L205.069 148.089C199.039 152.574 191.724 154.998 184.209 155.001Z" fill="url(#paint0_linear_256_10249)"/>
<path d="M184.208 219.999C191.686 219.999 197.749 213.936 197.749 206.458C197.749 198.979 191.686 192.916 184.208 192.916C176.729 192.916 170.666 198.979 170.666 206.458C170.666 213.936 176.729 219.999 184.208 219.999Z" fill="url(#paint1_linear_256_10249)"/>
<path d="M130.042 219.999C137.52 219.999 143.583 213.936 143.583 206.458C143.583 198.979 137.52 192.916 130.042 192.916C122.563 192.916 116.5 198.979 116.5 206.458C116.5 213.936 122.563 219.999 130.042 219.999Z" fill="url(#paint2_linear_256_10249)"/>
<path d="M195.042 187.501H132.528C123.499 187.482 115.729 181.114 113.938 172.264L100.737 106.251H86.7084C85.2127 106.251 84 105.038 84 103.542C84 102.047 85.2127 100.834 86.7084 100.834H102.958C103.583 100.834 104.188 101.049 104.672 101.444C105.155 101.839 105.488 102.389 105.613 103.001L119.252 171.196C120.53 177.518 126.079 182.068 132.528 182.084H195.042C196.537 182.084 197.75 183.297 197.75 184.792C197.75 186.288 196.537 187.501 195.042 187.501Z" fill="url(#paint3_linear_256_10249)"/>
<path d="M184.208 149.583C200.661 149.583 213.999 136.245 213.999 119.792C213.999 103.338 200.661 90 184.208 90C167.754 90 154.416 103.338 154.416 119.792C154.416 136.245 167.754 149.583 184.208 149.583Z" fill="url(#paint4_linear_256_10249)"/>
<path d="M180.047 132C180.896 132 181.711 131.666 182.313 131.069L182.314 131.068L200.023 113.493C200.047 113.47 200.071 113.446 200.095 113.422L200.095 113.422C201.332 112.151 201.297 110.122 200.016 108.895C198.742 107.674 196.717 107.706 195.483 108.967L180.046 124.286L173.457 117.751L173.451 117.745L173.444 117.739C172.2 116.546 170.229 116.546 168.984 117.739L168.984 117.739C167.704 118.966 167.668 120.995 168.905 122.266L168.911 122.272L168.917 122.278L177.774 131.068L177.775 131.069C178.075 131.365 178.429 131.6 178.819 131.759C179.209 131.919 179.626 132.001 180.047 132ZM180.047 132C180.047 132 180.047 132 180.047 132L180.047 131L180.048 132C180.048 132 180.048 132 180.047 132Z" fill="#F1F4FA" stroke="#F1F4FA" stroke-width="2"/>
</g>
<defs>
<linearGradient id="paint0_linear_256_10249" x1="155.376" y1="165.828" x2="155.376" y2="117.063" gradientUnits="userSpaceOnUse">
<stop stop-color="#0D2F8C"/>
<stop offset="1" stop-color="#557CE9"/>
</linearGradient>
<linearGradient id="paint1_linear_256_10249" x1="184.208" y1="192.916" x2="184.208" y2="219.999" gradientUnits="userSpaceOnUse">
<stop stop-color="#3F4D74"/>
<stop offset="1" stop-color="#3F4D74"/>
</linearGradient>
<linearGradient id="paint2_linear_256_10249" x1="130.042" y1="192.916" x2="130.042" y2="219.999" gradientUnits="userSpaceOnUse">
<stop stop-color="#3F4D74"/>
<stop offset="1" stop-color="#3F4D74"/>
</linearGradient>
<linearGradient id="paint3_linear_256_10249" x1="140.875" y1="100.834" x2="140.875" y2="187.501" gradientUnits="userSpaceOnUse">
<stop stop-color="#3F4D74"/>
<stop offset="1" stop-color="#3F4D74"/>
</linearGradient>
<linearGradient id="paint4_linear_256_10249" x1="184.211" y1="149.575" x2="184.211" y2="89.9741" gradientUnits="userSpaceOnUse">
<stop stop-color="#0D2F8C"/>
<stop offset="1" stop-color="#557CE9"/>
</linearGradient>
<clipPath id="clip0_256_10249">
<rect width="130" height="130" fill="white" transform="translate(84 90)"/>
</clipPath>
</defs>
</svg>
