<svg width="18" height="21" viewBox="0 0 18 21" fill="none" xmlns="http://www.w3.org/2000/svg">
<path d="M4.16602 20.721H16.1426C16.5922 20.721 17.0234 20.5455 17.3413 20.2332C17.6592 19.9208 17.8378 19.4972 17.8378 19.0555C17.8378 18.6137 17.6592 18.1901 17.3413 17.8777C17.0234 17.5654 16.5922 17.3899 16.1426 17.3899H4.16602C4.5224 17.8746 4.71423 18.4575 4.71423 19.0555C4.71423 19.6535 4.5224 20.2362 4.16602 20.721Z" fill="#D3B517"/>
<path d="M1.83754 16.2062H15.4716V0.690333C15.4716 0.507245 15.3975 0.331656 15.2658 0.202194C15.134 0.0727313 14.9553 0 14.769 0L0.701463 0C0.51532 0.000293103 0.336902 0.0731538 0.205385 0.202585C0.0738674 0.332015 1.32841e-07 0.507437 3.71868e-07 0.690333V19.0439C-0.000147538 19.264 0.0438289 19.482 0.129417 19.6854C0.215005 19.8888 0.34053 20.0736 0.498823 20.2294C0.657117 20.3851 0.845079 20.5087 1.05198 20.593C1.25888 20.6774 1.48067 20.7209 1.70468 20.7211H1.81727C2.26684 20.7211 2.698 20.5456 3.01589 20.2332C3.33378 19.9209 3.51237 19.4972 3.51237 19.0555C3.51237 18.6138 3.33378 18.1901 3.01589 17.8778C2.698 17.5654 2.26684 17.39 1.81727 17.39C1.7373 17.3898 1.65816 17.3741 1.58447 17.3436C1.51077 17.3131 1.44399 17.2685 1.38803 17.2123C1.33206 17.1562 1.28803 17.0897 1.25849 17.0167C1.22896 16.9437 1.21452 16.8656 1.21602 16.787C1.22217 16.6297 1.29057 16.481 1.40665 16.3725C1.52274 16.2641 1.67734 16.2044 1.83754 16.2062ZM7.59447 5.12882C6.92679 4.87216 6.24334 4.49491 6.24334 3.65412C6.24127 3.3451 6.34444 3.04427 6.53643 2.7995C6.72842 2.55473 6.9982 2.38008 7.30286 2.30332V1.54882H8.35899V2.24358C8.71033 2.30641 9.04508 2.43851 9.34306 2.63189L8.94673 3.66076C8.63827 3.44777 8.27759 3.31946 7.90186 3.28904C7.626 3.28904 7.46837 3.39414 7.46837 3.57668C7.46837 3.73488 7.56633 3.8444 8.14394 4.08004C9.02892 4.43406 9.423 4.90977 9.423 5.62223C9.42154 5.94437 9.31228 6.2571 9.11207 6.5122C8.91185 6.7673 8.63179 6.95061 8.31507 7.03387V7.8105H7.25219V7.0914C6.83774 7.03752 6.4459 6.87427 6.11836 6.61901L6.50006 5.57134C6.82914 5.84416 7.23811 6.0069 7.66766 6.03599C7.9863 6.03599 8.19235 5.89106 8.19235 5.66538C8.19235 5.51049 8.12029 5.33349 7.59335 5.12771L7.59447 5.12882ZM2.43991 9.34051H13.0316C13.1914 9.34051 13.3446 9.40287 13.4576 9.51387C13.5706 9.62487 13.634 9.77541 13.634 9.93239C13.634 10.0894 13.5706 10.2399 13.4576 10.3509C13.3446 10.4619 13.1914 10.5243 13.0316 10.5243H2.43991C2.28015 10.5243 2.12694 10.4619 2.01397 10.3509C1.901 10.2399 1.83754 10.0894 1.83754 9.93239C1.83754 9.77541 1.901 9.62487 2.01397 9.51387C2.12694 9.40287 2.28015 9.34051 2.43991 9.34051ZM2.43991 12.6915H10.9971C11.1568 12.6915 11.31 12.7539 11.423 12.8649C11.536 12.9759 11.5994 13.1264 11.5994 13.2834C11.5994 13.4404 11.536 13.5909 11.423 13.7019C11.31 13.8129 11.1568 13.8752 10.9971 13.8752H2.43991C2.28015 13.8752 2.12694 13.8129 2.01397 13.7019C1.901 13.5909 1.83754 13.4404 1.83754 13.2834C1.83754 13.1264 1.901 12.9759 2.01397 12.8649C2.12694 12.7539 2.28015 12.6915 2.43991 12.6915Z" fill="#D3B517"/>
</svg>
