<svg width="25" height="26" viewBox="0 0 25 26" fill="none" xmlns="http://www.w3.org/2000/svg">
<path d="M4.27625 5.23738L3.5675 2.40063H1.625C1.39294 2.40063 1.17038 2.30845 1.00628 2.14435C0.842187 1.98026 0.75 1.7577 0.75 1.52563C0.75 1.29357 0.842187 1.07101 1.00628 0.906916C1.17038 0.742822 1.39294 0.650635 1.625 0.650635H4.25C4.44518 0.650689 4.63474 0.715998 4.78853 0.836178C4.94232 0.956358 5.05152 1.12451 5.09875 1.31388L5.97375 4.81388C6.11812 5.35638 4.376 5.63638 4.27625 5.23738ZM21.75 19.9006H6C5.30381 19.9006 4.63613 19.6241 4.14384 19.1318C3.65156 18.6395 3.375 17.9718 3.375 17.2756C3.375 16.5794 3.65156 15.9118 4.14384 15.4195C4.63613 14.9272 5.30381 14.6506 6 14.6506C6 14.6506 8.00987 16.4181 6.875 16.4006H6C5.76794 16.4006 5.54538 16.4928 5.38128 16.6569C5.21719 16.821 5.125 17.0436 5.125 17.2756C5.125 17.5077 5.21719 17.7303 5.38128 17.8944C5.54538 18.0584 5.76794 18.1506 6 18.1506H21.75C21.9821 18.1506 22.2046 18.2428 22.3687 18.4069C22.5328 18.571 22.625 18.7936 22.625 19.0256C22.625 19.2577 22.5328 19.4803 22.3687 19.6444C22.2046 19.8084 21.9821 19.9006 21.75 19.9006ZM18.25 19.9006C17.5538 19.9006 16.8861 20.1772 16.3938 20.6695C15.9016 21.1618 15.625 21.8294 15.625 22.5256C15.625 23.2218 15.9016 23.8895 16.3938 24.3818C16.8861 24.8741 17.5538 25.1506 18.25 25.1506C18.9462 25.1506 19.6139 24.8741 20.1062 24.3818C20.5984 23.8895 20.875 23.2218 20.875 22.5256C20.875 21.8294 20.5984 21.1618 20.1062 20.6695C19.6139 20.1772 18.9462 19.9006 18.25 19.9006ZM10.375 19.9006C9.67881 19.9006 9.01113 20.1772 8.51884 20.6695C8.02656 21.1618 7.75 21.8294 7.75 22.5256C7.75 23.2218 8.02656 23.8895 8.51884 24.3818C9.01113 24.8741 9.67881 25.1506 10.375 25.1506C11.0712 25.1506 11.7389 24.8741 12.2312 24.3818C12.7234 23.8895 13 23.2218 13 22.5256C13 21.8294 12.7234 21.1618 12.2312 20.6695C11.7389 20.1772 11.0712 19.9006 10.375 19.9006Z" fill="#98CDC5"/>
<path d="M22.3088 4.15063H5.12465C4.99792 4.15158 4.87289 4.17988 4.7581 4.2336C4.64331 4.28733 4.54148 4.3652 4.45956 4.46191C4.37765 4.55861 4.31758 4.67187 4.28346 4.79393C4.24935 4.91598 4.242 5.04397 4.2619 5.16913L6.13353 16.4006H21.1415C21.7631 16.4008 22.3645 16.1804 22.8388 15.7787C23.313 15.377 23.6294 14.8201 23.7315 14.207L24.8988 7.20701C24.9587 6.83131 24.9367 6.44711 24.8343 6.0807C24.7319 5.71429 24.5516 5.37432 24.3056 5.08408C24.0597 4.79383 23.7539 4.56016 23.4092 4.39905C23.0646 4.23794 22.6892 4.1532 22.3088 4.15063Z" fill="#429A8C"/>
<path d="M19.125 9.40063H10.375C10.1429 9.40063 9.92038 9.30845 9.75628 9.14435C9.59219 8.98026 9.5 8.7577 9.5 8.52563C9.5 8.29357 9.59219 8.07101 9.75628 7.90692C9.92038 7.74282 10.1429 7.65063 10.375 7.65063H19.125C19.3571 7.65063 19.5796 7.74282 19.7437 7.90692C19.9078 8.07101 20 8.29357 20 8.52563C20 8.7577 19.9078 8.98026 19.7437 9.14435C19.5796 9.30845 19.3571 9.40063 19.125 9.40063ZM18.25 12.9006H11.25C11.0179 12.9006 10.7954 12.8084 10.6313 12.6444C10.4672 12.4803 10.375 12.2577 10.375 12.0256C10.375 11.7936 10.4672 11.571 10.6313 11.4069C10.7954 11.2428 11.0179 11.1506 11.25 11.1506H18.25C18.4821 11.1506 18.7046 11.2428 18.8687 11.4069C19.0328 11.571 19.125 11.7936 19.125 12.0256C19.125 12.2577 19.0328 12.4803 18.8687 12.6444C18.7046 12.8084 18.4821 12.9006 18.25 12.9006Z" fill="#EEEEEE"/>
</svg>
