<svg width="25" height="25" viewBox="0 0 25 25" fill="none" xmlns="http://www.w3.org/2000/svg">
<path d="M4.27625 4.83675L3.5675 2H1.625C1.39294 2 1.17038 1.90781 1.00628 1.74372C0.842187 1.57962 0.75 1.35706 0.75 1.125C0.75 0.892936 0.842187 0.670376 1.00628 0.506282C1.17038 0.342187 1.39294 0.25 1.625 0.25H4.25C4.44518 0.250054 4.63474 0.315364 4.78853 0.435543C4.94232 0.555723 5.05152 0.723872 5.09875 0.91325L5.97375 4.41325C6.11812 4.95575 4.376 5.23575 4.27625 4.83675ZM21.75 19.5H6C5.30381 19.5 4.63613 19.2234 4.14384 18.7312C3.65156 18.2389 3.375 17.5712 3.375 16.875C3.375 16.1788 3.65156 15.5111 4.14384 15.0188C4.63613 14.5266 5.30381 14.25 6 14.25C6 14.25 8.00987 16.0175 6.875 16H6C5.76794 16 5.54538 16.0922 5.38128 16.2563C5.21719 16.4204 5.125 16.6429 5.125 16.875C5.125 17.1071 5.21719 17.3296 5.38128 17.4937C5.54538 17.6578 5.76794 17.75 6 17.75H21.75C21.9821 17.75 22.2046 17.8422 22.3687 18.0063C22.5328 18.1704 22.625 18.3929 22.625 18.625C22.625 18.8571 22.5328 19.0796 22.3687 19.2437C22.2046 19.4078 21.9821 19.5 21.75 19.5ZM18.25 19.5C17.5538 19.5 16.8861 19.7766 16.3938 20.2688C15.9016 20.7611 15.625 21.4288 15.625 22.125C15.625 22.8212 15.9016 23.4889 16.3938 23.9812C16.8861 24.4734 17.5538 24.75 18.25 24.75C18.9462 24.75 19.6139 24.4734 20.1062 23.9812C20.5984 23.4889 20.875 22.8212 20.875 22.125C20.875 21.4288 20.5984 20.7611 20.1062 20.2688C19.6139 19.7766 18.9462 19.5 18.25 19.5ZM10.375 19.5C9.67881 19.5 9.01113 19.7766 8.51884 20.2688C8.02656 20.7611 7.75 21.4288 7.75 22.125C7.75 22.8212 8.02656 23.4889 8.51884 23.9812C9.01113 24.4734 9.67881 24.75 10.375 24.75C11.0712 24.75 11.7389 24.4734 12.2312 23.9812C12.7234 23.4889 13 22.8212 13 22.125C13 21.4288 12.7234 20.7611 12.2312 20.2688C11.7389 19.7766 11.0712 19.5 10.375 19.5Z" fill="#757677"/>
<path d="M22.3088 3.75H5.12465C4.99792 3.75095 4.87289 3.77925 4.7581 3.83297C4.64331 3.88669 4.54148 3.96457 4.45956 4.06127C4.37765 4.15798 4.31758 4.27123 4.28346 4.39329C4.24935 4.51535 4.242 4.64334 4.2619 4.7685L6.13353 16H21.1415C21.7631 16.0002 22.3645 15.7798 22.8388 15.3781C23.313 14.9764 23.6294 14.4195 23.7315 13.8064L24.8988 6.80638C24.9587 6.43068 24.9367 6.04647 24.8343 5.68006C24.7319 5.31365 24.5516 4.97369 24.3056 4.68344C24.0597 4.3932 23.7539 4.15952 23.4092 3.99842C23.0646 3.83731 22.6892 3.75257 22.3088 3.75Z" fill="white"/>
<path d="M19.125 9H10.375C10.1429 9 9.92038 8.90781 9.75628 8.74372C9.59219 8.57962 9.5 8.35706 9.5 8.125C9.5 7.89294 9.59219 7.67038 9.75628 7.50628C9.92038 7.34219 10.1429 7.25 10.375 7.25H19.125C19.3571 7.25 19.5796 7.34219 19.7437 7.50628C19.9078 7.67038 20 7.89294 20 8.125C20 8.35706 19.9078 8.57962 19.7437 8.74372C19.5796 8.90781 19.3571 9 19.125 9ZM18.25 12.5H11.25C11.0179 12.5 10.7954 12.4078 10.6313 12.2437C10.4672 12.0796 10.375 11.8571 10.375 11.625C10.375 11.3929 10.4672 11.1704 10.6313 11.0063C10.7954 10.8422 11.0179 10.75 11.25 10.75H18.25C18.4821 10.75 18.7046 10.8422 18.8687 11.0063C19.0328 11.1704 19.125 11.3929 19.125 11.625C19.125 11.8571 19.0328 12.0796 18.8687 12.2437C18.7046 12.4078 18.4821 12.5 18.25 12.5Z" fill="#757677"/>
</svg>
