<svg width="32" height="32" viewBox="0 0 32 32" fill="none" xmlns="http://www.w3.org/2000/svg">
<path opacity="0.4" d="M9.33268 24.5733H14.666L20.5994 28.52C21.4794 29.1067 22.666 28.48 22.666 27.4133V24.5733C26.666 24.5733 29.3327 21.9067 29.3327 17.9067V9.90666C29.3327 5.90666 26.666 3.23999 22.666 3.23999H9.33268C5.33268 3.23999 2.66602 5.90666 2.66602 9.90666V17.9067C2.66602 21.9067 5.33268 24.5733 9.33268 24.5733Z" fill="#0D2F8C"/>
<path d="M20.6673 15H11.334C10.7873 15 10.334 14.5467 10.334 14C10.334 13.4533 10.7873 13 11.334 13H20.6673C21.214 13 21.6673 13.4533 21.6673 14C21.6673 14.5467 21.214 15 20.6673 15Z" fill="#0D2F8C"/>
</svg>
