<svg width="24" height="24" viewBox="0 0 24 24" fill="none" xmlns="http://www.w3.org/2000/svg">
<path opacity="0.4" d="M10.7489 2.45031C11.4389 1.86031 12.5689 1.86031 13.2689 2.45031L14.8489 3.81031C15.1489 4.07031 15.7089 4.28031 16.1089 4.28031H17.8089C18.8689 4.28031 19.7389 5.15031 19.7389 6.21031V7.91031C19.7389 8.30031 19.9489 8.87031 20.2089 9.17031L21.5689 10.7503C22.1589 11.4403 22.1589 12.5703 21.5689 13.2703L20.2089 14.8503C19.9489 15.1503 19.7389 15.7103 19.7389 16.1103V17.8103C19.7389 18.8703 18.8689 19.7403 17.8089 19.7403H16.1089C15.7189 19.7403 15.1489 19.9503 14.8489 20.2103L13.2689 21.5703C12.5789 22.1603 11.4489 22.1603 10.7489 21.5703L9.16891 20.2103C8.86891 19.9503 8.30891 19.7403 7.90891 19.7403H6.17891C5.11891 19.7403 4.24891 18.8703 4.24891 17.8103V16.1003C4.24891 15.7103 4.03891 15.1503 3.78891 14.8503L2.43891 13.2603C1.85891 12.5703 1.85891 11.4503 2.43891 10.7603L3.78891 9.17031C4.03891 8.87031 4.24891 8.31031 4.24891 7.92031V6.20031C4.24891 5.14031 5.11891 4.27031 6.17891 4.27031H7.90891C8.29891 4.27031 8.86891 4.06031 9.16891 3.80031L10.7489 2.45031Z" fill="#10907B"/>
<path d="M10.7905 15.1712C10.5905 15.1712 10.4005 15.0912 10.2605 14.9512L7.84055 12.5312C7.55055 12.2412 7.55055 11.7612 7.84055 11.4712C8.13055 11.1812 8.61055 11.1812 8.90055 11.4712L10.7905 13.3612L15.0905 9.06125C15.3805 8.77125 15.8605 8.77125 16.1505 9.06125C16.4405 9.35125 16.4405 9.83125 16.1505 10.1212L11.3205 14.9512C11.1805 15.0912 10.9905 15.1712 10.7905 15.1712Z" fill="#10907B"/>
</svg>
