<svg width="30" height="30" viewBox="0 0 30 30" fill="none" xmlns="http://www.w3.org/2000/svg">
<circle cx="15" cy="15" r="15" fill="#A3A3A3"/>
<path fill-rule="evenodd" clip-rule="evenodd" d="M20.7071 11.7071C21.0976 11.3166 21.0976 10.6834 20.7071 10.2929C20.3166 9.90237 19.6834 9.90237 19.2929 10.2929L15.5 14.0858L11.7071 10.2929C11.3166 9.90237 10.6834 9.90237 10.2929 10.2929C9.90237 10.6834 9.90237 11.3166 10.2929 11.7071L14.0858 15.5L10.2929 19.2929C9.90237 19.6834 9.90237 20.3166 10.2929 20.7071C10.6834 21.0976 11.3166 21.0976 11.7071 20.7071L15.5 16.9142L19.2929 20.7071C19.6834 21.0976 20.3166 21.0976 20.7071 20.7071C21.0976 20.3166 21.0976 19.6834 20.7071 19.2929L16.9142 15.5L20.7071 11.7071Z" fill="white"/>
</svg>
