<svg width="34" height="34" viewBox="0 0 34 34" fill="none" xmlns="http://www.w3.org/2000/svg">
<path d="M24.3921 22.0331L18.8516 17H15.135L9.59442 22.0331C8.04471 23.432 7.53728 25.5851 8.29157 27.5326C9.04585 29.4663 10.8836 30.7143 12.9544 30.7143H21.0321C23.1167 30.7143 24.9407 29.4663 25.695 27.5326C26.4493 25.5851 25.9419 23.432 24.3921 22.0331ZM19.4961 25.4206H14.5041C13.983 25.4206 13.5716 24.9954 13.5716 24.488C13.5716 23.9806 13.9967 23.5554 14.5041 23.5554H19.4961C20.0173 23.5554 20.4287 23.9806 20.4287 24.488C20.4287 24.9954 20.0036 25.4206 19.4961 25.4206Z" fill="white"/>
<path d="M25.7094 6.46687C24.9551 4.53316 23.1174 3.28516 21.0465 3.28516H12.9551C10.8842 3.28516 9.04649 4.53316 8.29221 6.46687C7.55164 8.4143 8.05906 10.5674 9.60878 11.9663L15.1493 16.9994H18.8659L24.4065 11.9663C25.9425 10.5674 26.4499 8.4143 25.7094 6.46687ZM19.4968 10.4577H14.5048C13.9836 10.4577 13.5722 10.0326 13.5722 9.52516C13.5722 9.01773 13.9974 8.59259 14.5048 8.59259H19.4968C20.0179 8.59259 20.4294 9.01773 20.4294 9.52516C20.4294 10.0326 20.0042 10.4577 19.4968 10.4577Z" fill="white"/>
</svg>
