<svg width="187" height="187" viewBox="0 0 187 187" fill="none" xmlns="http://www.w3.org/2000/svg">
<path d="M93.5085 1.36377C67.6517 1.36377 46.6562 22.3589 46.6562 48.2157V80.0122C47.1267 79.9732 47.5971 79.9337 48.107 79.9337H63.3781V48.2157C63.3781 31.592 76.8652 18.0656 93.5085 18.0656C110.326 18.0656 123.659 31.7878 123.659 48.2157V79.9337H138.89C139.4 79.9337 139.871 79.9728 140.361 80.0122V48.2157C140.36 22.5912 119.596 1.36377 93.5085 1.36377Z" fill="url(#paint0_linear_130_14029)"/>
<path d="M158.328 99.3708V166.203C158.328 176.922 149.65 185.636 138.894 185.636H48.1076C37.388 185.636 28.6738 176.922 28.6738 166.203V99.3708C28.6738 88.6511 37.388 79.937 48.1076 79.937H138.894C149.65 79.937 158.328 88.6511 158.328 99.3708Z" fill="url(#paint1_linear_130_14029)"/>
<path d="M71.9222 129.864C71.9222 130.942 71.0402 131.824 69.962 131.824H64.2578L68.2958 135.862C68.4775 136.043 68.6217 136.259 68.7201 136.496C68.8185 136.733 68.8691 136.987 68.8691 137.244C68.8691 137.501 68.8185 137.755 68.7201 137.992C68.6217 138.229 68.4775 138.445 68.2958 138.626C67.4733 139.449 66.2392 139.371 65.5317 138.626L61.4937 134.588V140.312C61.4937 141.39 60.6113 142.272 59.5335 142.272C59.2758 142.273 59.0205 142.223 58.7823 142.125C58.5441 142.027 58.3277 141.882 58.1455 141.7C57.9633 141.518 57.8189 141.302 57.7207 141.063C57.6225 140.825 57.5724 140.57 57.5733 140.312V134.588L53.5352 138.626C52.7127 139.449 51.4786 139.371 50.7708 138.626C50.5849 138.447 50.437 138.233 50.336 137.995C50.235 137.758 50.1829 137.502 50.1829 137.244C50.1829 136.986 50.235 136.731 50.336 136.493C50.437 136.256 50.5849 136.041 50.7708 135.862L54.8092 131.824H49.0852C48.007 131.824 47.125 130.942 47.125 129.864C47.125 128.786 48.007 127.904 49.0852 127.904H54.8092L50.7708 123.866C50.5849 123.687 50.437 123.472 50.336 123.234C50.235 122.997 50.1829 122.741 50.1829 122.483C50.1829 122.225 50.235 121.97 50.336 121.732C50.437 121.495 50.5849 121.28 50.7708 121.101C50.9522 120.919 51.1676 120.775 51.4048 120.677C51.642 120.578 51.8962 120.528 52.153 120.528C52.4098 120.528 52.664 120.578 52.9012 120.677C53.1384 120.775 53.3538 120.919 53.5352 121.101L57.5733 125.14V119.435C57.5733 118.337 58.4359 117.475 59.5335 117.475C59.7911 117.474 60.0465 117.524 60.2847 117.622C60.5229 117.721 60.7394 117.865 60.9216 118.047C61.1038 118.229 61.2482 118.446 61.3463 118.684C61.4445 118.922 61.4946 119.178 61.4937 119.435V125.14L65.5317 121.101C65.7131 120.919 65.9285 120.775 66.1657 120.677C66.4028 120.579 66.657 120.528 66.9138 120.528C67.1705 120.528 67.4247 120.579 67.6619 120.677C67.899 120.775 68.1144 120.919 68.2958 121.101C68.4775 121.283 68.6217 121.498 68.7201 121.735C68.8185 121.972 68.8691 122.227 68.8691 122.483C68.8691 122.74 68.8185 122.994 68.7201 123.232C68.6217 123.469 68.4775 123.684 68.2958 123.866L64.2578 127.904H69.962C71.0402 127.904 71.9222 128.786 71.9222 129.864Z" fill="white"/>
<path d="M105.896 129.864C105.896 130.122 105.846 130.377 105.748 130.615C105.65 130.853 105.506 131.07 105.323 131.252C105.141 131.434 104.925 131.578 104.687 131.677C104.448 131.775 104.193 131.825 103.935 131.824H98.2308L102.269 135.862C102.451 136.043 102.595 136.259 102.693 136.496C102.792 136.733 102.842 136.987 102.842 137.244C102.842 137.501 102.792 137.755 102.693 137.992C102.595 138.229 102.451 138.445 102.269 138.626C101.532 139.402 100.256 139.417 99.5047 138.626L95.4663 134.588V140.312C95.4663 141.39 94.5843 142.272 93.5061 142.272C92.428 142.272 91.5459 141.39 91.5459 140.312V134.588L87.5075 138.626C86.6854 139.449 85.4509 139.371 84.7438 138.626C84.5578 138.447 84.4099 138.233 84.3088 137.995C84.2077 137.758 84.1556 137.502 84.1556 137.244C84.1556 136.986 84.2077 136.731 84.3088 136.493C84.4099 136.256 84.5578 136.041 84.7438 135.862L88.7822 131.824H83.0579C81.9797 131.824 81.0977 130.942 81.0977 129.864C81.0977 128.786 81.9801 127.904 83.0579 127.904H88.7822L84.7438 123.866C84.5578 123.687 84.4098 123.472 84.3088 123.234C84.2077 122.997 84.1556 122.741 84.1556 122.483C84.1556 122.225 84.2077 121.97 84.3088 121.732C84.4098 121.495 84.5578 121.28 84.7438 121.101C84.9251 120.919 85.1405 120.775 85.3776 120.677C85.6147 120.578 85.8689 120.528 86.1257 120.528C86.3824 120.528 86.6366 120.578 86.8737 120.677C87.1108 120.775 87.3262 120.919 87.5075 121.101L91.5459 125.14V119.435C91.5459 118.337 92.428 117.475 93.5061 117.475C94.5843 117.475 95.4663 118.337 95.4663 119.435V125.14L99.5047 121.101C99.6861 120.919 99.9015 120.775 100.139 120.677C100.376 120.579 100.63 120.528 100.887 120.528C101.144 120.528 101.398 120.579 101.635 120.677C101.872 120.775 102.087 120.919 102.269 121.101C102.451 121.282 102.595 121.498 102.693 121.735C102.792 121.972 102.842 122.227 102.842 122.483C102.842 122.74 102.792 122.994 102.693 123.232C102.595 123.469 102.451 123.684 102.269 123.866L98.2308 127.904H103.935C104.193 127.903 104.448 127.953 104.687 128.051C104.925 128.149 105.141 128.294 105.323 128.476C105.506 128.658 105.65 128.874 105.748 129.113C105.846 129.351 105.896 129.606 105.896 129.864Z" fill="white"/>
<path d="M139.868 129.864C139.869 130.122 139.819 130.377 139.721 130.615C139.623 130.853 139.478 131.07 139.296 131.252C139.114 131.434 138.897 131.578 138.659 131.677C138.421 131.775 138.166 131.825 137.908 131.824H132.203L136.242 135.862C136.424 136.043 136.568 136.259 136.666 136.496C136.765 136.733 136.815 136.987 136.815 137.244C136.815 137.501 136.765 137.755 136.666 137.992C136.568 138.229 136.424 138.445 136.242 138.626C135.509 139.398 134.233 139.422 133.478 138.626L129.44 134.588V140.312C129.44 141.39 128.557 142.272 127.48 142.272C126.401 142.272 125.519 141.39 125.519 140.312V134.588L121.481 138.626C120.659 139.449 119.424 139.371 118.717 138.626C118.531 138.447 118.383 138.233 118.282 137.995C118.181 137.758 118.129 137.502 118.129 137.244C118.129 136.986 118.181 136.731 118.282 136.493C118.383 136.256 118.531 136.041 118.717 135.862L122.755 131.824H117.031C115.952 131.824 115.07 130.942 115.07 129.864C115.07 128.786 115.952 127.904 117.031 127.904H122.755L118.717 123.866C118.531 123.687 118.383 123.472 118.282 123.235C118.18 122.997 118.128 122.742 118.128 122.483C118.128 122.225 118.18 121.97 118.282 121.732C118.383 121.495 118.531 121.28 118.717 121.101C118.898 120.919 119.114 120.775 119.351 120.677C119.588 120.579 119.842 120.528 120.099 120.528C120.356 120.528 120.61 120.579 120.847 120.677C121.084 120.775 121.3 120.919 121.481 121.101L125.519 125.14V119.435C125.519 118.337 126.401 117.475 127.48 117.475C128.558 117.475 129.44 118.337 129.44 119.435V125.14L133.478 121.101C133.659 120.919 133.875 120.775 134.112 120.677C134.349 120.579 134.603 120.528 134.86 120.528C135.117 120.528 135.371 120.579 135.608 120.677C135.845 120.775 136.06 120.919 136.242 121.101C136.424 121.283 136.568 121.498 136.666 121.735C136.765 121.972 136.815 122.227 136.815 122.483C136.815 122.74 136.765 122.994 136.666 123.232C136.568 123.469 136.424 123.684 136.242 123.866L132.203 127.904H137.908C138.166 127.903 138.421 127.953 138.659 128.051C138.897 128.149 139.114 128.294 139.296 128.476C139.478 128.658 139.623 128.874 139.721 129.113C139.819 129.351 139.869 129.606 139.868 129.864Z" fill="white"/>
<defs>
<linearGradient id="paint0_linear_130_14029" x1="93.5085" y1="80.0122" x2="93.5085" y2="1.36377" gradientUnits="userSpaceOnUse">
<stop offset="0.017" stop-color="#4D5351"/>
<stop offset="1" stop-color="#4B5251"/>
</linearGradient>
<linearGradient id="paint1_linear_130_14029" x1="93.5007" y1="185.636" x2="93.5007" y2="79.937" gradientUnits="userSpaceOnUse">
<stop stop-color="#0D2F8C"/>
<stop offset="1" stop-color="#4572EB"/>
</linearGradient>
</defs>
</svg>
