<svg width="89" height="21" viewBox="0 0 89 21" fill="none" xmlns="http://www.w3.org/2000/svg">
<path d="M83.5985 11.8465L79.9635 8.2115C79.9219 8.16981 79.8888 8.12031 79.8662 8.06583C79.8436 8.01136 79.832 7.95297 79.832 7.894C79.832 7.83504 79.8436 7.77665 79.8662 7.72217C79.8888 7.66769 79.9219 7.6182 79.9635 7.5765L80.3875 7.1525C80.4717 7.0686 80.5857 7.02148 80.7045 7.02148C80.8234 7.02148 80.9374 7.0686 81.0215 7.1525L83.9155 10.0335L86.8105 7.1525C86.8947 7.0686 87.0087 7.02148 87.1275 7.02148C87.2464 7.02148 87.3604 7.0686 87.4445 7.1525L87.8685 7.5765C87.9102 7.6182 87.9433 7.66769 87.9659 7.72217C87.9885 7.77665 88.0001 7.83504 88.0001 7.894C88.0001 7.95297 87.9885 8.01136 87.9659 8.06583C87.9433 8.12031 87.9102 8.16981 87.8685 8.2115L84.2345 11.8465C84.1928 11.8883 84.1433 11.9216 84.0887 11.9442C84.0341 11.9669 83.9756 11.9785 83.9165 11.9785C83.8575 11.9785 83.799 11.9669 83.7444 11.9442C83.6898 11.9216 83.6403 11.8883 83.5985 11.8465Z" fill="black"/>
<path d="M39.3789 13.2109H36.3711V16.2188H34.793V13.2109H31.7695V11.625H34.793V8.60156H36.3711V11.625H39.3789V13.2109ZM49.7148 10.8594C49.7148 11.8542 49.6055 12.7448 49.3867 13.5312C49.168 14.3125 48.8477 14.974 48.4258 15.5156C48.0091 16.0573 47.4987 16.474 46.8945 16.7656C46.2904 17.0521 45.6055 17.1953 44.8398 17.1953C43.9232 17.1953 43.1341 17.0495 42.4727 16.7578V14.7266C43.0612 15.112 43.7695 15.3047 44.5977 15.3047C45.4466 15.3047 46.1107 15.0156 46.5898 14.4375C47.069 13.8594 47.3112 13.0234 47.3164 11.9297L47.2695 11.9141C46.7747 12.6484 46.0221 13.0156 45.0117 13.0156C44.5534 13.0156 44.1289 12.9297 43.7383 12.7578C43.3529 12.5859 43.0169 12.349 42.7305 12.0469C42.4492 11.7396 42.2279 11.375 42.0664 10.9531C41.9102 10.5312 41.832 10.0677 41.832 9.5625C41.832 8.97396 41.9284 8.4375 42.1211 7.95312C42.3138 7.46875 42.582 7.05208 42.9258 6.70312C43.2747 6.35417 43.6914 6.08594 44.1758 5.89844C44.6602 5.70573 45.1966 5.60938 45.7852 5.60938C46.3945 5.60938 46.9414 5.72917 47.4258 5.96875C47.9102 6.20312 48.3216 6.54427 48.6602 6.99219C49.0039 7.4401 49.2643 7.98958 49.4414 8.64062C49.6237 9.29167 49.7148 10.0312 49.7148 10.8594ZM47.2227 9.54688C47.2227 9.26042 47.1862 8.99219 47.1133 8.74219C47.0404 8.48698 46.9388 8.26823 46.8086 8.08594C46.6784 7.90365 46.5195 7.76042 46.332 7.65625C46.1445 7.54688 45.9388 7.49219 45.7148 7.49219C45.5013 7.49219 45.3034 7.53906 45.1211 7.63281C44.944 7.72656 44.7904 7.85677 44.6602 8.02344C44.5299 8.1849 44.4284 8.38021 44.3555 8.60938C44.2826 8.83854 44.2461 9.08594 44.2461 9.35156C44.2461 9.64323 44.2826 9.90365 44.3555 10.1328C44.4284 10.3568 44.5299 10.5469 44.6602 10.7031C44.7956 10.8594 44.957 10.9792 45.1445 11.0625C45.332 11.1406 45.5404 11.1797 45.7695 11.1797C45.9883 11.1797 46.1862 11.138 46.3633 11.0547C46.5404 10.9661 46.6914 10.849 46.8164 10.7031C46.9466 10.5573 47.0456 10.3854 47.1133 10.1875C47.1862 9.98958 47.2227 9.77604 47.2227 9.54688ZM59.0977 13.2734C59.0977 13.8255 59.0013 14.3411 58.8086 14.8203C58.6159 15.2995 58.3477 15.7161 58.0039 16.0703C57.6602 16.4193 57.2513 16.6953 56.7773 16.8984C56.3034 17.0964 55.7852 17.1953 55.2227 17.1953C54.5924 17.1953 54.0273 17.0781 53.5273 16.8438C53.0326 16.6094 52.6133 16.2708 52.2695 15.8281C51.9258 15.3802 51.6628 14.8333 51.4805 14.1875C51.2982 13.5417 51.207 12.8099 51.207 11.9922C51.207 11.0286 51.3242 10.1562 51.5586 9.375C51.7982 8.58854 52.1367 7.91667 52.5742 7.35938C53.0169 6.80208 53.5508 6.3724 54.1758 6.07031C54.8008 5.76302 55.5039 5.60938 56.2852 5.60938C57.1497 5.60938 57.8216 5.71094 58.3008 5.91406V7.97656C57.7331 7.65365 57.1133 7.49219 56.4414 7.49219C56.0247 7.49219 55.6471 7.57292 55.3086 7.73438C54.9701 7.89583 54.6784 8.125 54.4336 8.42188C54.194 8.71875 54.0039 9.07812 53.8633 9.5C53.7279 9.91667 53.6549 10.3828 53.6445 10.8984H53.6914C54.2227 10.1641 55.0065 9.79688 56.043 9.79688C56.5065 9.79688 56.9258 9.88021 57.3008 10.0469C57.6758 10.2135 57.9961 10.4505 58.2617 10.7578C58.5273 11.0599 58.7331 11.4245 58.8789 11.8516C59.0247 12.2786 59.0977 12.7526 59.0977 13.2734ZM56.6836 13.4297C56.6836 12.2266 56.1914 11.625 55.207 11.625C54.9831 11.625 54.7799 11.6667 54.5977 11.75C54.4154 11.8333 54.2591 11.9505 54.1289 12.1016C53.9987 12.2526 53.8971 12.4323 53.8242 12.6406C53.7565 12.8438 53.7227 13.0703 53.7227 13.3203C53.7227 13.5964 53.7591 13.8542 53.832 14.0938C53.9049 14.3333 54.0065 14.5443 54.1367 14.7266C54.2721 14.9036 54.431 15.0443 54.6133 15.1484C54.7956 15.2526 54.9987 15.3047 55.2227 15.3047C55.4466 15.3047 55.6471 15.2604 55.8242 15.1719C56.0065 15.0781 56.1602 14.9505 56.2852 14.7891C56.4154 14.6224 56.5143 14.4245 56.582 14.1953C56.6497 13.9609 56.6836 13.7057 56.6836 13.4297ZM68.3008 13.2734C68.3008 13.8255 68.2044 14.3411 68.0117 14.8203C67.819 15.2995 67.5508 15.7161 67.207 16.0703C66.8633 16.4193 66.4544 16.6953 65.9805 16.8984C65.5065 17.0964 64.9883 17.1953 64.4258 17.1953C63.7956 17.1953 63.2305 17.0781 62.7305 16.8438C62.2357 16.6094 61.8164 16.2708 61.4727 15.8281C61.1289 15.3802 60.8659 14.8333 60.6836 14.1875C60.5013 13.5417 60.4102 12.8099 60.4102 11.9922C60.4102 11.0286 60.5273 10.1562 60.7617 9.375C61.0013 8.58854 61.3398 7.91667 61.7773 7.35938C62.2201 6.80208 62.7539 6.3724 63.3789 6.07031C64.0039 5.76302 64.707 5.60938 65.4883 5.60938C66.3529 5.60938 67.0247 5.71094 67.5039 5.91406V7.97656C66.9362 7.65365 66.3164 7.49219 65.6445 7.49219C65.2279 7.49219 64.8503 7.57292 64.5117 7.73438C64.1732 7.89583 63.8815 8.125 63.6367 8.42188C63.3971 8.71875 63.207 9.07812 63.0664 9.5C62.931 9.91667 62.8581 10.3828 62.8477 10.8984H62.8945C63.4258 10.1641 64.2096 9.79688 65.2461 9.79688C65.7096 9.79688 66.1289 9.88021 66.5039 10.0469C66.8789 10.2135 67.1992 10.4505 67.4648 10.7578C67.7305 11.0599 67.9362 11.4245 68.082 11.8516C68.2279 12.2786 68.3008 12.7526 68.3008 13.2734ZM65.8867 13.4297C65.8867 12.2266 65.3945 11.625 64.4102 11.625C64.1862 11.625 63.9831 11.6667 63.8008 11.75C63.6185 11.8333 63.4622 11.9505 63.332 12.1016C63.2018 12.2526 63.1003 12.4323 63.0273 12.6406C62.9596 12.8438 62.9258 13.0703 62.9258 13.3203C62.9258 13.5964 62.9622 13.8542 63.0352 14.0938C63.1081 14.3333 63.2096 14.5443 63.3398 14.7266C63.4753 14.9036 63.6341 15.0443 63.8164 15.1484C63.9987 15.2526 64.2018 15.3047 64.4258 15.3047C64.6497 15.3047 64.8503 15.2604 65.0273 15.1719C65.2096 15.0781 65.3633 14.9505 65.4883 14.7891C65.6185 14.6224 65.7174 14.4245 65.7852 14.1953C65.8529 13.9609 65.8867 13.7057 65.8867 13.4297Z" fill="#3A3A3C"/>
<path d="M24.8306 15.5328C24.8333 15.8482 24.7739 16.161 24.6557 16.4533C24.5376 16.7457 24.3629 17.0119 24.1418 17.2368C23.9207 17.4616 23.6574 17.6407 23.367 17.7637C23.0767 17.8867 22.7649 17.9513 22.4496 17.9538H2.61156C2.29622 17.9513 1.98445 17.8867 1.69409 17.7637C1.40373 17.6407 1.14046 17.4616 0.919336 17.2368C0.698211 17.0119 0.523566 16.7457 0.405381 16.4533C0.287197 16.161 0.227792 15.8482 0.230561 15.5328V3.46983C0.227792 3.15449 0.287197 2.84169 0.405381 2.54932C0.523566 2.25694 0.698211 1.99073 0.919336 1.76589C1.14046 1.54105 1.40373 1.362 1.69409 1.23896C1.98445 1.11592 2.29622 1.05131 2.61156 1.04883H22.4536C23.0897 1.0549 23.6975 1.31332 24.1432 1.7673C24.5889 2.22127 24.8362 2.83365 24.8306 3.46983V15.5328Z" fill="#009966"/>
<path d="M2.61133 1.04883H22.4533C22.7687 1.05131 23.0804 1.11592 23.3708 1.23896C23.6612 1.362 23.9244 1.54105 24.1456 1.76589C24.3667 1.99073 24.5413 2.25694 24.6595 2.54932C24.7777 2.84169 24.8371 3.15449 24.8343 3.46983V15.5328C24.8386 16.1688 24.5902 16.7805 24.1438 17.2335C23.6973 17.6865 23.0893 17.9438 22.4533 17.9488" fill="#038E5C"/>
<path d="M24.8306 15.5332C24.8333 15.8485 24.7739 16.1613 24.6557 16.4537C24.5376 16.7461 24.3629 17.0123 24.1418 17.2371C23.9207 17.462 23.6574 17.641 23.367 17.7641C23.0767 17.8871 22.7649 17.9517 22.4496 17.9542H2.61156C2.29622 17.9517 1.98445 17.8871 1.69409 17.7641C1.40373 17.641 1.14046 17.462 0.919336 17.2371C0.698211 17.0123 0.523566 16.7461 0.405381 16.4537C0.287197 16.1613 0.227792 15.8485 0.230561 15.5332" fill="#007A54"/>
<path d="M2.61133 1.04883H22.4533C22.7687 1.05131 23.0804 1.11592 23.3708 1.23896C23.6612 1.362 23.9244 1.54105 24.1456 1.76589C24.3667 1.99073 24.5413 2.25694 24.6595 2.54932C24.7777 2.84169 24.8371 3.15449 24.8343 3.46983V7.86983" fill="#007A54"/>
<path d="M3.24829 4.8981C3.40729 4.7791 3.40729 5.0981 3.24829 5.4541C3.37978 5.28188 3.45015 5.07076 3.4483 4.85409C3.4083 4.57609 3.24829 4.6161 3.13129 4.7751C3.04929 4.8981 3.08929 4.9771 3.24829 4.8981Z" fill="white"/>
<path d="M3.28736 7.15737C3.48736 6.80037 3.40636 6.52237 3.56536 6.00637C3.68436 5.68937 3.68436 5.92737 3.68436 6.12537C3.60536 6.64137 3.64436 7.47437 4.35936 7.43537C4.39936 7.91137 4.51836 8.74537 4.51836 9.06237C4.51836 9.34037 4.55836 9.26236 4.63736 9.10236C4.69375 8.90758 4.70739 8.70292 4.67736 8.50237C4.67736 8.26437 4.63736 7.82737 4.59836 7.23237C4.68888 7.14989 4.76882 7.05651 4.83636 6.95437C4.91536 6.75437 4.95536 6.79537 4.99536 6.95437C5.07436 7.27137 5.39536 7.47036 5.78936 7.15436C6.18936 6.87636 6.02736 6.32136 5.82936 5.72536C5.98836 5.76536 6.02936 5.64637 5.94836 5.48737C5.90836 5.40837 5.82936 5.32837 5.78936 5.24937C5.71036 5.17037 5.67036 5.09037 5.58936 5.17037C5.50836 5.25037 5.47036 5.32937 5.43036 5.37037C5.39036 5.41137 5.39036 5.48937 5.43036 5.60837C5.55693 5.91481 5.65013 6.23398 5.70836 6.56037C5.74836 6.76037 5.66836 6.79836 5.50836 6.79836C5.38936 6.79836 5.19136 6.75837 5.10836 6.44137C5.0277 6.2261 5.00059 5.99444 5.02936 5.76636C5.04825 5.67046 5.04744 5.57172 5.02698 5.47614C5.00653 5.38056 4.96685 5.29013 4.91036 5.21036C4.75136 5.01036 4.75136 5.05137 4.71036 5.13137C4.65405 5.28346 4.64022 5.44801 4.67036 5.60737C4.74936 5.88537 4.78936 6.12337 4.82936 6.28237C4.83229 6.37979 4.80778 6.47607 4.75862 6.56023C4.70947 6.6444 4.63765 6.71305 4.55136 6.75837C4.51136 6.35837 4.47236 5.88537 4.43236 5.44837C4.67036 5.36937 4.55136 5.09137 4.35336 4.77337C4.23436 4.53537 4.15336 4.61437 4.07536 4.77337C4.04261 4.82922 4.02881 4.89417 4.03602 4.95852C4.04323 5.02286 4.07106 5.08314 4.11536 5.13036C4.07536 5.24936 4.15536 5.40836 4.19436 5.68636C4.24925 6.06753 4.27566 6.45227 4.27336 6.83736C4.19368 6.82946 4.11786 6.79917 4.05468 6.74998C3.9915 6.70078 3.94355 6.63468 3.91636 6.55936C3.80601 6.30858 3.79178 6.02598 3.87636 5.76537C3.95536 5.56537 3.99536 5.28937 3.87636 5.20937C3.75736 5.12937 3.63836 5.20937 3.55936 5.36837C3.36649 5.63506 3.25626 5.95254 3.24236 6.28136C3.24089 6.45999 3.20027 6.63614 3.12336 6.79737C3.08336 6.91637 2.96436 6.91636 2.88536 6.75736C2.73573 6.37918 2.66758 5.97369 2.68536 5.56737C2.68536 5.40837 2.64536 5.36737 2.60636 5.56737C2.49858 6.08743 2.55411 6.62808 2.76536 7.11536C2.96936 7.47636 3.16836 7.39737 3.28736 7.15737Z" fill="white"/>
<path d="M5.1928 5.09483C5.2718 5.01583 5.27179 5.01583 5.31179 5.09483C5.32113 5.11334 5.33542 5.1289 5.35307 5.13976C5.37073 5.15063 5.39106 5.15638 5.41179 5.15638C5.43252 5.15638 5.45285 5.15063 5.47051 5.13976C5.48816 5.1289 5.50246 5.11334 5.5118 5.09483C5.53853 5.06203 5.55627 5.02284 5.56328 4.98112C5.57029 4.93939 5.56633 4.89656 5.55179 4.85682C5.51179 4.77782 5.5118 4.81681 5.4728 4.89681C5.4328 5.05581 5.27279 5.01582 5.27279 4.81782C5.27279 4.61982 5.23279 4.73883 5.15379 4.85783C5.07479 5.05783 4.95379 5.01682 4.95379 4.81782C4.95379 4.69882 4.91379 4.57982 4.83479 4.73882C4.80606 4.84565 4.82043 4.95949 4.8748 5.05583C4.9948 5.17483 5.1138 5.17483 5.1928 5.09483Z" fill="white"/>
<path d="M4.00109 8.07272C4.12009 8.03272 4.12009 8.03272 4.12009 7.87272C4.12009 7.71272 4.04109 7.79373 3.88209 7.83273C3.46503 7.98557 3.09562 8.24563 2.81109 8.58673C2.65209 8.78673 2.77109 8.70572 2.89009 8.62672C3.2306 8.38748 3.60511 8.20073 4.00109 8.07272Z" fill="white"/>
<path d="M3.20865 10.6127C3.08965 10.8127 2.85165 10.5337 3.00865 10.0127C3.04819 9.92431 3.07479 9.83068 3.08765 9.7347V9.4567C3.08765 9.3777 3.00865 9.4967 2.96865 9.6567C2.83213 10.0102 2.77776 10.3901 2.80965 10.7677C2.84965 11.2047 3.36565 11.2047 3.40965 10.6487C3.40665 10.4137 3.32765 10.4137 3.20865 10.6127Z" fill="white"/>
<path d="M6.73903 8.94608C6.73903 8.74608 6.69903 8.54607 6.69903 8.34607C6.73903 8.34607 6.73903 8.30608 6.77803 8.30608C6.89703 8.66308 7.41303 8.58407 7.57203 8.34607C7.65103 8.22707 7.65104 8.22707 7.73104 8.34607C7.85004 8.50507 8.24703 8.58407 8.33103 8.34607C8.40156 8.14192 8.41538 7.92246 8.37104 7.71108C8.33104 7.51108 8.29203 7.55208 8.17103 7.63208C8.05003 7.71208 8.13103 7.75107 8.17103 7.87007C8.21103 8.34607 7.81403 8.30708 7.77103 7.83008C7.73103 7.51308 7.69203 7.63007 7.65203 7.79007C7.45203 8.39007 6.93803 8.50407 7.01703 7.79007C7.01703 7.59007 6.89803 7.67108 6.81703 7.75008L6.65803 7.90907C6.61803 7.35307 6.57903 6.71808 6.49903 5.92508C6.65803 6.12508 6.81603 5.88507 6.69903 5.68707C6.62003 5.52807 6.49903 5.13108 6.42103 4.93308C6.34303 4.73508 6.30203 4.77407 6.14303 4.97307C5.98403 5.13207 6.02404 5.17308 6.06404 5.37308C6.05893 5.66607 6.08541 5.95876 6.14303 6.24608C6.18303 6.56308 6.26204 7.23808 6.34304 8.07108C6.26404 8.11108 6.14304 8.19007 6.06504 8.23007C6.02504 8.07107 5.90603 7.99208 5.74803 7.83008C5.51003 7.59208 5.34804 7.59207 5.14804 7.87007C5.07671 7.95084 5.0252 8.04712 4.9976 8.15128C4.97 8.25543 4.96707 8.36459 4.98903 8.47008C4.98903 8.70808 4.94904 8.78707 5.14804 8.87007C5.21028 8.90062 5.2787 8.91651 5.34803 8.91651C5.41737 8.91651 5.48578 8.90062 5.54803 8.87007C5.66266 8.81834 5.78229 8.77846 5.90503 8.75107C5.92285 8.81243 5.92496 8.87728 5.91116 8.93967C5.89735 9.00205 5.86808 9.05997 5.82603 9.10808C5.35003 9.66408 4.63603 10.1001 4.31803 9.70807C4.13669 9.44067 4.06508 9.1138 4.11803 8.79508C4.15803 8.47808 4.07803 8.63608 4.03903 8.71608C3.8997 9.10086 3.8997 9.5223 4.03903 9.90708C4.23903 10.3071 4.59503 10.4631 5.15003 10.1851C5.43216 10.0995 5.68343 9.93397 5.8735 9.70859C6.06356 9.48321 6.18428 9.20759 6.22103 8.91507V8.63707C6.29275 8.60657 6.36002 8.56654 6.42103 8.51807V9.19307C6.45011 9.3927 6.42061 9.59649 6.33612 9.77968C6.25162 9.96287 6.11576 10.1176 5.94503 10.2251C5.60855 10.4798 5.21218 10.6438 4.79403 10.7011C3.92103 10.8201 3.72303 10.2641 3.72303 9.51108C3.72303 9.39208 3.76303 9.31107 3.76303 9.15407C3.76303 8.83707 3.72303 8.87608 3.60403 9.19408C3.45541 9.73087 3.48311 10.3012 3.68303 10.8211C4.00003 11.4211 5.03203 11.2581 5.82603 10.8611C6.16956 10.6889 6.44588 10.4071 6.61125 10.0603C6.77661 9.71344 6.82158 9.32136 6.73903 8.94608ZM5.62803 8.34607C5.42803 8.42507 5.35003 8.30607 5.39003 8.18707C5.39003 8.06807 5.43003 7.98707 5.59003 8.06807C5.68821 8.126 5.77011 8.20789 5.82804 8.30608C5.76486 8.33358 5.69692 8.34852 5.62803 8.35007V8.34607Z" fill="white"/>
<path d="M7.65057 9.62011C7.73725 9.46292 7.76526 9.28003 7.72958 9.10411C7.68958 8.98511 7.72958 8.94511 7.61058 8.86611C7.49158 8.82611 7.45158 8.90612 7.41058 8.98512C7.37058 9.10412 7.45058 9.26311 7.61058 9.18511C7.63578 9.31953 7.6219 9.45834 7.57059 9.58511C7.53159 9.73911 7.57157 9.77811 7.65057 9.62011Z" fill="white"/>
<path d="M7.96949 6.40441C7.81049 6.60441 7.69148 6.8804 7.92948 7.0394C8.04848 7.1184 8.28649 6.9994 8.36649 6.8394C8.44549 6.6394 8.40649 6.60141 8.24749 6.79941C8.04749 7.03741 7.81049 6.83941 8.04749 6.48241C8.20949 6.24541 8.08849 6.20641 7.96949 6.40441Z" fill="white"/>
<path d="M7.29399 6.44593C7.71916 6.28742 8.08133 5.99507 8.32599 5.61293C8.48499 5.65293 8.52599 5.53393 8.44499 5.41293C8.47734 5.3173 8.51712 5.22435 8.56398 5.13493C8.68298 4.61893 8.16399 4.57893 8.04799 4.97593C7.99954 5.05783 7.98093 5.15397 7.99533 5.24803C8.00973 5.34209 8.05625 5.42827 8.12698 5.49192C7.86678 5.8288 7.54343 6.11175 7.17499 6.32493C7.01699 6.48493 7.05599 6.56493 7.29399 6.44593ZM8.24599 5.05693C8.28599 4.93793 8.36499 5.01692 8.36499 5.09692C8.3553 5.15668 8.32775 5.21212 8.28598 5.25593C8.20698 5.21493 8.20599 5.13593 8.24599 5.05693Z" fill="white"/>
<path d="M8.04568 4.9762C7.99724 5.0581 7.97863 5.15424 7.99303 5.24831C8.00743 5.34237 8.05395 5.42855 8.12468 5.4922C8.08468 5.5322 8.04568 5.6112 8.00568 5.6512L8.20567 5.81019C8.24567 5.73119 8.32468 5.6912 8.36468 5.6102C8.52368 5.6502 8.56467 5.5312 8.48367 5.4102C8.51602 5.31457 8.55581 5.22162 8.60268 5.1322C8.68168 4.6192 8.20568 4.5792 8.04568 4.9762ZM8.36269 5.0952C8.353 5.15496 8.32545 5.21038 8.28368 5.2542C8.20468 5.2142 8.20468 5.1352 8.24368 5.0542C8.28468 4.9372 8.36468 5.0162 8.36468 5.0912L8.36269 5.0952Z" fill="#CFE7E8"/>
<path d="M8.64296 9.6212C8.54082 9.68874 8.44744 9.76869 8.36496 9.8592C8.36496 9.7002 8.40496 9.45919 8.40496 9.38319C8.40496 9.26419 8.36497 9.2242 8.28597 9.3432C8.15831 9.59428 8.06481 9.86132 8.00797 10.1372C7.50436 10.4837 6.97364 10.789 6.42096 11.0502C6.22096 11.1292 6.34196 11.2092 6.49996 11.1692C7.01184 11.0099 7.51517 10.8243 8.00797 10.6132C8.04797 10.9702 8.16697 11.2132 8.48397 11.2882C9.08397 11.4472 9.67396 10.9312 10.349 10.0182C10.4721 10.3475 10.687 10.6346 10.9683 10.8455C11.2495 11.0564 11.5854 11.1823 11.936 11.2082C12.373 11.2872 12.336 11.2482 12.412 11.0082C12.452 10.8082 12.531 10.7702 12.174 10.6912C11.737 10.5322 11.574 10.2152 12.015 10.0162C12.4751 9.82192 12.9539 9.67547 13.444 9.57919C13.722 9.53919 13.801 9.53919 13.881 9.30119C13.96 9.02319 14 8.98419 13.722 9.02319C12.9826 9.07692 12.2408 9.09028 11.5 9.0632C11.817 8.9042 12.254 8.7462 12.571 8.6262C12.69 8.7052 12.73 8.66619 12.69 8.58619C12.8158 8.55003 12.9359 8.49652 13.047 8.4272C13.404 8.2272 13.563 7.7922 13.166 7.5142C12.769 7.2362 12.452 7.15719 12.253 7.43519C12.094 7.67319 11.936 7.9112 12.174 8.2292C11.817 8.3482 11.499 8.46719 11.182 8.58619C10.944 8.66519 10.825 8.70519 10.745 9.02319C10.665 9.34119 10.626 9.3402 10.945 9.3802C11.3318 9.32638 11.7252 9.41064 12.056 9.61819C11.619 9.77719 11.302 10.0942 11.456 10.5312C11.247 10.4963 11.0533 10.3994 10.9 10.2532C10.583 9.9362 10.583 9.38019 10.463 8.74519C10.3574 8.24742 10.1838 7.76657 9.94696 7.3162C9.86796 7.0782 9.82797 7.1972 9.74697 7.3562C9.69358 7.42184 9.65822 7.50025 9.64437 7.58372C9.63051 7.66719 9.63865 7.75283 9.66796 7.83219C9.86919 8.37839 10.0414 8.93484 10.184 9.4992C10.0566 9.80233 9.86719 10.0755 9.62799 10.3011C9.38878 10.5267 9.10503 10.6998 8.79496 10.8092C8.39496 10.8882 8.27897 10.6502 8.31897 10.4522C8.59636 10.2873 8.85002 10.0855 9.07296 9.8522C9.30665 9.63247 9.4578 9.33917 9.50112 9.02134C9.54445 8.70352 9.47731 8.38045 9.31096 8.1062C9.51096 8.1462 9.4713 7.98753 9.19197 7.6302C8.99197 7.3922 8.95396 7.43019 8.83496 7.67019C8.75596 7.87019 8.67597 8.02719 8.91397 8.10719C8.97686 8.27356 9.05661 8.43307 9.15197 8.5832C9.39697 9.1052 8.99996 9.2992 8.64296 9.6212ZM12.413 7.87519C12.413 7.75619 12.453 7.75619 12.651 7.87519C12.849 7.99419 13.008 8.03419 12.73 8.07519C12.651 8.11519 12.53 8.1152 12.452 8.1542C12.4614 8.05933 12.4487 7.96359 12.413 7.87519Z" fill="white"/>
<path d="M13.6826 9.02448C13.4826 9.02448 12.6116 9.06449 12.0156 9.06449L12.8096 9.73949C13.0057 9.67271 13.2062 9.61957 13.4096 9.58048C13.6876 9.54048 13.7666 9.54048 13.8466 9.30248C13.9156 9.02448 13.9596 8.98548 13.6826 9.02448Z" fill="#CFE7E8"/>
<path d="M9.79492 7.16016L9.87392 7.23915C9.87392 7.16015 9.83492 7.16016 9.79492 7.16016Z" fill="#CFE7E8"/>
<path d="M11.8198 8.86677C12.0578 8.74777 12.3358 8.66677 12.5338 8.58877C12.6528 8.66777 12.6928 8.62876 12.6528 8.54876C12.7786 8.51259 12.8988 8.45908 13.0098 8.38976C13.3668 8.18976 13.5258 7.75477 13.1288 7.47677C12.7318 7.19877 12.4148 7.11976 12.2158 7.39776C12.0568 7.63576 11.8988 7.87377 12.1368 8.19177C11.8772 8.26029 11.6248 8.35338 11.3828 8.46977L11.8198 8.86677ZM12.6928 7.87476C12.8928 7.99376 13.0498 8.03376 12.7718 8.07476C12.6928 8.11476 12.5718 8.11477 12.4938 8.15377C12.4668 8.07735 12.4533 7.99682 12.4538 7.91577C12.4148 7.75477 12.4938 7.75576 12.6928 7.87476Z" fill="#CFE7E8"/>
<path d="M13.3261 11.0911C13.4965 11.02 13.6565 10.9265 13.8021 10.8131C13.9611 10.6541 13.8421 10.6941 13.7231 10.7341C13.5927 10.794 13.4591 10.8471 13.3231 10.8931C13.1641 10.9721 13.1231 10.8931 13.2041 10.6151C13.2831 10.3771 13.2041 10.3771 13.0851 10.4151C12.9661 10.4531 12.9261 10.5341 12.8071 10.6151C12.7281 10.6551 12.7281 10.7341 12.9261 10.6551C13.0851 10.5761 13.0451 10.6551 13.0051 10.8551C12.9291 11.0491 13.0481 11.1681 13.3261 11.0911Z" fill="white"/>
<path d="M9.63671 6.76309C9.75571 6.48509 9.83671 6.20709 9.91471 6.00909C9.99271 5.81109 10.0737 5.8501 10.0337 6.0491C9.99372 6.4061 9.99372 6.9621 10.3507 7.2001C10.7077 7.4001 11.2637 7.0411 11.4617 6.6441C12.0617 7.3981 12.5727 7.0441 12.6127 6.3271C12.6056 6.02958 12.5519 5.73502 12.4537 5.4541C12.3747 5.2951 12.4537 5.29509 12.5327 5.37509C12.6117 5.45509 12.7707 5.5341 12.6917 5.2561C12.629 5.06117 12.5202 4.88418 12.3747 4.74009C12.2557 4.62109 12.2157 4.70008 12.1747 4.78008C12.1504 4.85477 12.1098 4.92311 12.0557 4.9801C11.9767 5.0591 12.0157 5.09909 12.0557 5.21809C12.2937 5.77409 12.4927 6.60709 12.1347 6.68609C11.8177 6.76509 11.6187 6.05109 11.6187 5.73409C11.6177 5.39716 11.5641 5.06246 11.4597 4.74209C11.3807 4.50409 11.3407 4.50409 11.2597 4.62309C11.2197 4.70209 11.2197 4.78209 11.1407 4.86109C11.1007 4.94009 11.1407 4.98009 11.1807 5.13909C11.3807 6.05209 11.3397 6.4491 10.9427 6.6871C10.5457 6.9251 10.3077 6.6871 10.3077 6.4091C10.3003 6.11752 10.3137 5.82578 10.3477 5.5361C10.3877 5.2981 10.4267 5.21908 10.3477 5.09908C10.2687 4.97908 10.1887 5.02009 10.0697 5.17809C9.82133 5.56267 9.6199 5.97561 9.46972 6.40809C9.39072 6.68609 9.19171 6.6081 9.06971 6.3681C8.94659 6.03843 8.91921 5.68065 8.99072 5.33608C9.03072 5.13608 9.03072 5.05809 8.91172 5.25709C8.79232 5.51601 8.75122 5.80419 8.79351 6.08616C8.8358 6.36813 8.95961 6.63159 9.14971 6.84409C9.35871 7.19909 9.51771 7.04009 9.63671 6.76309Z" fill="#CFE7E8"/>
<path d="M10.7483 5.69268C10.7483 5.81168 10.7484 5.97068 10.8274 5.73268C10.8747 5.48178 10.8609 5.22316 10.7873 4.97867C10.7083 4.77867 10.6683 4.74068 10.5873 4.81968C10.5063 4.89868 10.5083 4.93867 10.5873 5.01967C10.7147 5.21971 10.7714 5.45665 10.7483 5.69268Z" fill="#CFE7E8"/>
<path d="M11.5846 7.55493C11.5846 7.87193 11.5056 7.87193 11.3846 7.55493C11.3446 7.43593 11.3056 7.43593 11.2656 7.59493C11.2656 7.87293 11.1466 7.91193 11.0656 7.63493C11.0256 7.51593 11.0256 7.39693 10.9866 7.59493C10.9682 7.6632 10.9657 7.73479 10.9794 7.80415C10.9931 7.87351 11.0226 7.93878 11.0656 7.99493C11.1446 8.07393 11.2656 8.07393 11.3036 7.95493C11.3416 7.83593 11.3826 7.83593 11.4626 7.91493C11.5426 7.99393 11.8626 7.91493 11.7006 7.47793C11.6216 7.31993 11.5846 7.35493 11.5846 7.55493Z" fill="#CFE7E8"/>
<path d="M14.7955 5.05653C14.8733 5.11561 14.9332 5.19514 14.9685 5.28624C15.0038 5.37734 15.0132 5.47645 14.9955 5.57254C14.9555 5.77254 14.9955 5.88953 15.1145 5.61253C15.1625 5.48288 15.1804 5.344 15.1667 5.20642C15.153 5.06884 15.1081 4.93619 15.0355 4.81854C14.9165 4.61854 14.8765 4.69953 14.7975 4.77853C14.7165 4.89753 14.6765 5.01653 14.7955 5.05653Z" fill="#CFE7E8"/>
<path d="M12.7704 5.17578C12.7704 5.29478 12.8104 5.37577 12.9704 5.41377C13.2874 5.85077 13.6454 6.32677 13.9624 6.76277C14.0024 7.16277 14.0814 7.55677 14.1214 7.91377C14.2528 8.68673 14.2927 9.47248 14.2404 10.2548C14.1614 10.6118 14.2404 10.7308 14.3994 10.2148C14.5553 9.6312 14.569 9.01874 14.4394 8.42877C14.3994 8.11177 14.3994 7.75377 14.3604 7.35777C14.8316 8.04922 15.243 8.77952 15.5904 9.54077C15.7094 9.85777 15.8284 9.89778 15.7094 9.50078C15.3746 8.5327 14.8926 7.62201 14.2804 6.80078C14.249 6.51089 14.2356 6.21933 14.2404 5.92778C14.3594 6.04678 14.4404 5.96778 14.3994 5.80878C14.3113 5.51168 14.2055 5.22015 14.0824 4.93578C14.0424 4.77678 13.8824 4.77677 13.8044 4.97577C13.7254 5.21377 13.7254 5.25378 13.8044 5.41278C13.8151 5.66551 13.8415 5.91732 13.8834 6.16678C13.7381 5.93263 13.5791 5.70724 13.4074 5.49178C13.6074 5.57078 13.7644 5.53178 13.5664 5.29178C13.3664 5.09178 13.0904 4.85477 12.9314 4.69177C12.7724 4.52877 12.6934 4.65177 12.6934 4.77077C12.7704 4.97777 12.8104 5.05678 12.7704 5.17578Z" fill="#CFE7E8"/>
<path d="M15.0329 6.288C14.9929 6.488 14.9139 6.40701 14.8739 6.24801C14.8339 6.16901 14.7949 6.20801 14.7949 6.36701C14.8349 6.52601 14.8739 6.64501 14.9949 6.52601C15.0739 6.44701 15.0739 6.44701 15.1949 6.52601C15.2739 6.60501 15.3539 6.52601 15.3949 6.48601C15.4179 6.38159 15.4179 6.27343 15.3949 6.16901C15.3549 5.96901 15.3159 6.09001 15.2759 6.24801C15.2359 6.40601 15.1569 6.44801 15.1169 6.24801C15.1119 6.08901 15.0329 6.129 15.0329 6.288Z" fill="#CFE7E8"/>
<path d="M15.9466 8.8659C15.9866 9.5799 16.0656 9.89789 15.6296 10.4139C15.3788 10.7467 15.0329 10.9957 14.6376 11.1279C14.3596 11.2069 14.2806 11.3279 14.6776 11.2869C15.2776 11.2469 15.3526 11.2469 15.8676 10.6519C16.1456 10.3349 16.2676 9.93791 16.2676 8.98491C16.2276 7.31791 16.0297 6.6039 16.0297 5.6909C16.1087 5.7699 16.2297 5.76991 16.1887 5.61191C16.1171 5.40533 16.0639 5.19283 16.0297 4.9769C15.9507 4.7769 15.9106 4.6989 15.8296 4.8179C15.7486 4.9369 15.6706 4.97691 15.6296 5.05591C15.6 5.10347 15.5843 5.15837 15.5843 5.2144C15.5843 5.27043 15.6 5.32533 15.6296 5.37289C15.8676 7.31789 15.9086 8.1519 15.9466 8.8659Z" fill="#CFE7E8"/>
<path d="M16.9786 9.06085C17.0583 9.44037 17.0583 9.83232 16.9786 10.2118C16.9386 10.3308 17.0186 10.4118 17.0976 10.2118C17.318 9.68249 17.3459 9.09266 17.1766 8.54484C17.1366 7.94484 16.8986 6.40184 16.8596 5.76684L16.8996 5.80683C17.0586 5.88583 17.2566 5.96584 17.1376 5.72784C17.0082 5.47328 16.9021 5.20754 16.8206 4.93385C16.7416 4.69585 16.7016 4.69584 16.5826 4.89384C16.3446 5.21084 16.5036 5.52884 16.5826 5.92584C16.7406 7.27884 16.9396 8.66785 16.9786 9.06085Z" fill="#CFE7E8"/>
<path d="M17.8132 6.84257C17.9204 6.99223 18.0135 7.15159 18.0911 7.31857C18.1701 7.51857 18.2501 7.35856 18.2501 7.23956C18.23 7.04006 18.23 6.83906 18.2501 6.63956C18.3291 6.43956 18.4501 6.71856 18.4881 6.59956C18.5281 6.52056 18.4482 6.48056 18.4092 6.39956C18.3692 6.28056 18.3301 6.32057 18.2501 6.35957C18.1896 6.41137 18.1478 6.48164 18.1311 6.55956V6.99656C18.1311 7.15556 18.0911 7.15555 18.0521 7.07555C17.9971 6.90587 17.9169 6.74542 17.8142 6.59956C17.7997 6.57961 17.779 6.56504 17.7554 6.55814C17.7317 6.55125 17.7064 6.55242 17.6835 6.56147C17.6606 6.57052 17.6413 6.58695 17.6288 6.60815C17.6162 6.62934 17.6111 6.65412 17.6141 6.67857V6.87856C17.6131 6.96156 17.7722 6.96157 17.8132 6.84257Z" fill="#CFE7E8"/>
<path d="M17.7305 8.38933C17.7305 8.50833 17.8895 8.34935 18.0085 8.27035C18.1275 8.19135 18.4845 7.95334 18.6435 7.87034C18.8025 7.78734 18.7625 7.75134 18.7225 7.59234C18.7225 7.43334 18.6035 7.55235 18.4845 7.67135C18.3655 7.79035 18.0085 8.02834 17.8845 8.14734C17.7605 8.26634 17.7305 8.30933 17.7305 8.38933Z" fill="#CFE7E8"/>
<path d="M16.8995 10.5327C16.7734 10.2458 16.7188 9.93244 16.7405 9.61972C16.7405 9.38172 16.7005 9.18272 16.6215 9.57972C16.3835 10.5317 16.5425 10.7307 16.7805 10.9287C17.0975 11.2067 17.2165 11.2457 17.3805 10.9687C17.6975 10.4927 17.8176 10.0957 17.9806 9.85772C18.1396 9.65772 18.1395 9.81772 18.2185 9.89772C18.2925 9.99939 18.3875 10.0839 18.4971 10.1455C18.6067 10.2071 18.7282 10.2444 18.8535 10.2547C19.1315 10.2947 19.6075 10.0547 19.5675 9.18373C19.5275 8.62773 19.4885 7.91372 19.4485 7.11972C19.7265 7.47672 19.9245 7.79473 20.1235 8.07173C20.1958 8.51792 20.2356 8.96877 20.2425 9.42073C20.2025 9.85773 20.3215 9.85773 20.4015 9.42073C20.443 9.09136 20.443 8.75809 20.4015 8.42872C20.6534 8.74031 20.8791 9.0721 21.0765 9.42073C21.2355 9.69873 21.3145 9.89672 21.2765 9.38072C21.2765 9.18072 21.1975 9.02371 20.9595 8.66671C20.7215 8.34971 20.5235 8.03172 20.3245 7.71472C20.2455 6.96072 20.1656 6.12772 20.1656 5.69072C20.2846 5.76972 20.3655 5.69072 20.2845 5.53172C20.2235 5.26191 20.144 4.99661 20.0465 4.73771C19.9675 4.57871 19.8875 4.57872 19.8085 4.77772C19.7295 4.93672 19.6495 5.01572 19.6895 5.13472C19.723 5.83915 19.8025 6.54065 19.9275 7.23472C19.7275 6.95672 19.5275 6.67872 19.3715 6.44072C19.3715 6.16272 19.3315 5.88472 19.3315 5.60772C19.4505 5.68672 19.4905 5.68672 19.4505 5.48872C19.3752 5.24432 19.2823 5.0057 19.1725 4.77472C19.0935 4.61572 19.0535 4.61572 18.9725 4.73472C18.9088 4.8117 18.8707 4.90664 18.8636 5.00631C18.8564 5.10598 18.8805 5.20541 18.9326 5.29072C18.9326 5.49072 18.9725 5.64772 18.9725 5.84672C18.8764 5.69434 18.7706 5.54837 18.6555 5.40973C18.7745 5.44973 18.8556 5.36971 18.7346 5.25071C18.6136 5.13171 18.3775 4.93372 18.2585 4.81372C18.1395 4.65472 18.0585 4.69472 18.0585 4.81372V5.17073C18.0509 5.3138 18.0929 5.45511 18.1775 5.57072C18.4555 5.92772 18.7776 6.28472 19.0106 6.64172C19.1296 7.91172 19.1696 8.74172 19.1696 9.26072C19.1696 9.57772 19.0505 9.73671 18.8915 9.77671C18.7325 9.81671 18.5746 9.73671 18.4156 9.49871C18.1376 9.09871 18.0155 9.18172 17.8155 9.53872C17.6155 9.89572 17.4585 10.1737 17.3395 10.4117C17.2565 10.6517 17.0585 10.8497 16.8995 10.5327Z" fill="#CFE7E8"/>
<path d="M20.7111 6.12825C20.7111 6.36625 20.7901 6.32825 20.8301 6.12825C20.8812 5.84861 20.8538 5.56031 20.7511 5.29526C20.6321 5.01726 20.5921 5.13625 20.5511 5.21625C20.4721 5.33525 20.4721 5.37525 20.5911 5.49425C20.6612 5.69875 20.7017 5.91226 20.7111 6.12825Z" fill="#CFE7E8"/>
<path d="M21.7803 8.58959C21.7013 6.92259 21.5023 6.2086 21.5423 5.5736C21.701 5.69293 21.7406 5.65326 21.6613 5.4546C21.5823 5.2546 21.4613 5.01759 21.3833 4.77959C21.3043 4.57959 21.2643 4.62059 21.1453 4.77959C21.099 4.82505 21.0668 4.88299 21.0528 4.94637C21.0388 5.00975 21.0435 5.07582 21.0663 5.13659C21.3043 7.16059 21.4233 8.2366 21.4663 8.8666C21.5189 9.26325 21.448 9.66647 21.2634 10.0214C21.0787 10.3764 20.7893 10.6659 20.4343 10.8506C20.1563 11.0506 19.8343 11.2506 20.5133 11.0886C21.1453 10.8906 21.8603 10.4536 21.7803 8.58959Z" fill="#CFE7E8"/>
<path d="M19.5587 10.3361C19.4397 10.4951 19.7177 10.5741 19.7587 10.4551C19.8377 10.5741 19.7587 10.7721 19.6397 10.8921C19.4397 11.0511 19.5607 11.0921 19.6797 10.9711C19.7987 10.8921 20.1167 10.5351 19.9177 10.2961C19.8917 10.2745 19.8617 10.2585 19.8294 10.2488C19.7971 10.2392 19.7632 10.2361 19.7297 10.2398C19.6962 10.2436 19.6638 10.254 19.6344 10.2706C19.605 10.2871 19.5793 10.3094 19.5587 10.3361Z" fill="#CFE7E8"/>
<path d="M18.6832 13.2708C18.1672 13.2708 17.6912 13.2708 17.1752 13.3108V13.1518C17.3342 12.9518 17.2942 12.9518 17.1752 12.7518C17.1352 12.6728 17.0962 12.5928 16.9752 12.7518C16.8542 12.9108 16.8562 12.9518 17.0152 13.1518V13.3108C13.0862 13.3508 8.76125 13.3108 5.03125 13.2708C5.43125 13.9458 6.77725 13.9058 8.00725 13.9058C9.11825 13.9058 12.4522 13.9058 16.9752 13.7868V13.9868C16.8162 14.1868 16.8562 14.1868 16.9752 14.3868C17.0942 14.5458 17.1342 14.4658 17.1752 14.3868C17.1979 14.3664 17.2122 14.3382 17.2152 14.3078H17.8152C17.8152 14.3868 17.9342 14.4268 17.9742 14.4268C18.0142 14.4268 18.1332 14.3868 18.1332 14.3078H18.8082C18.8348 14.3579 18.8751 14.3994 18.9243 14.4275C18.9735 14.4556 19.0296 14.4693 19.0862 14.4668C19.3242 14.4668 19.4432 14.1888 19.4032 13.8318C19.3582 13.3108 19.1592 13.2308 18.6832 13.2708ZM18.1272 14.0648C18.1272 13.9858 18.0082 13.9458 17.9682 13.9458C17.9282 13.9458 17.8092 13.9858 17.8092 14.0648H17.2092C17.2092 14.0248 17.1692 13.9858 17.0902 13.9058V13.7058C17.6062 13.7058 18.1612 13.6658 18.7172 13.6658C18.6844 13.7818 18.6709 13.9024 18.6772 14.0228L18.1272 14.0648Z" fill="white"/>
<path d="M18.6823 13.2708C18.1663 13.2708 17.6903 13.2708 17.1743 13.3108V13.1518C17.3333 12.9518 17.2933 12.9518 17.1743 12.7518C17.1343 12.6728 17.0953 12.5928 16.9743 12.7518C16.8533 12.9108 16.8553 12.9518 17.0143 13.1518V13.3108H16.9743L17.5303 13.7868C17.9303 13.7868 18.3633 13.7468 18.7603 13.7468C18.7275 13.8628 18.7139 13.9834 18.7203 14.1038H18.1203C18.1203 14.0248 18.0013 13.9848 17.9613 13.9848C17.9213 13.9848 17.8423 14.0248 17.8423 14.0638L18.1203 14.3018V14.2618H18.7953C18.8219 14.3119 18.8621 14.3534 18.9113 14.3815C18.9605 14.4096 19.0167 14.4233 19.0733 14.4208C19.3113 14.4208 19.4303 14.1428 19.3903 13.7858C19.3573 13.3108 19.1593 13.2308 18.6823 13.2708Z" fill="#CFE7E8"/>
</svg>
