<svg width="70" height="70" viewBox="0 0 70 70" fill="none" xmlns="http://www.w3.org/2000/svg">
<rect width="70" height="70" rx="25" fill="#E1E5EF"/>
<path d="M40.285 20H27.715C22.255 20 19 23.255 19 28.715V41.27C19 46.745 22.255 50 27.715 50H40.27C45.73 50 48.985 46.745 48.985 41.285V28.715C49 23.255 45.745 20 40.285 20ZM40 36.125H35.125V41C35.125 41.615 34.615 42.125 34 42.125C33.385 42.125 32.875 41.615 32.875 41V36.125H28C27.385 36.125 26.875 35.615 26.875 35C26.875 34.385 27.385 33.875 28 33.875H32.875V29C32.875 28.385 33.385 27.875 34 27.875C34.615 27.875 35.125 28.385 35.125 29V33.875H40C40.615 33.875 41.125 34.385 41.125 35C41.125 35.615 40.615 36.125 40 36.125Z" fill="url(#paint0_linear_1466_7982)"/>
<defs>
<linearGradient id="paint0_linear_1466_7982" x1="48.3416" y1="46.1111" x2="18.7481" y2="44.6499" gradientUnits="userSpaceOnUse">
<stop stop-color="#0D2F8C"/>
<stop offset="1" stop-color="#5D7DD7"/>
</linearGradient>
</defs>
</svg>
