<svg width="70" height="70" viewBox="0 0 70 70" fill="none" xmlns="http://www.w3.org/2000/svg">
<rect width="70" height="70" rx="25" fill="#E1E5EF"/>
<path d="M44.8092 23.1798L36.5592 20.0898C35.7042 19.7748 34.3092 19.7748 33.4542 20.0898L25.2042 23.1798C23.6142 23.7798 22.3242 25.6398 22.3242 27.3348V39.4848C22.3242 40.6998 23.1192 42.3048 24.0942 43.0248L32.3442 49.1898C33.7992 50.2848 36.1842 50.2848 37.6392 49.1898L45.8892 43.0248C46.8642 42.2898 47.6592 40.6998 47.6592 39.4848V27.3348C47.6742 25.6398 46.3842 23.7798 44.8092 23.1798ZM40.2192 31.5798L33.7692 38.0298C33.5442 38.2548 33.2592 38.3598 32.9742 38.3598C32.6892 38.3598 32.4042 38.2548 32.1792 38.0298L29.7792 35.5998C29.3442 35.1648 29.3442 34.4448 29.7792 34.0098C30.2142 33.5748 30.9342 33.5748 31.3692 34.0098L32.9892 35.6298L38.6442 29.9748C39.0792 29.5398 39.7992 29.5398 40.2342 29.9748C40.6692 30.4098 40.6692 31.1448 40.2192 31.5798Z" fill="url(#paint0_linear_1466_8041)"/>
<defs>
<linearGradient id="paint0_linear_1466_8041" x1="47.1157" y1="46.1017" x2="22.0935" y2="45.0633" gradientUnits="userSpaceOnUse">
<stop stop-color="#0D2F8C"/>
<stop offset="1" stop-color="#5D7DD7"/>
</linearGradient>
</defs>
</svg>
