<svg width="70" height="70" viewBox="0 0 70 70" fill="none" xmlns="http://www.w3.org/2000/svg">
<rect width="70" height="70" rx="25" fill="#E1E5EF"/>
<path d="M30.5 20C26.57 20 23.375 23.195 23.375 27.125C23.375 30.98 26.39 34.1 30.32 34.235C30.44 34.22 30.56 34.22 30.65 34.235C30.68 34.235 30.695 34.235 30.725 34.235C30.74 34.235 30.74 34.235 30.755 34.235C34.595 34.1 37.61 30.98 37.625 27.125C37.625 23.195 34.43 20 30.5 20Z" fill="url(#paint0_linear_1466_7922)"/>
<path d="M38.1195 38.2253C33.9345 35.4353 27.1095 35.4353 22.8945 38.2253C20.9895 39.5003 19.9395 41.2253 19.9395 43.0703C19.9395 44.9153 20.9895 46.6253 22.8795 47.8853C24.9795 49.2953 27.7395 50.0003 30.4995 50.0003C33.2595 50.0003 36.0195 49.2953 38.1195 47.8853C40.0095 46.6103 41.0595 44.9003 41.0595 43.0403C41.0445 41.1953 40.0095 39.4853 38.1195 38.2253Z" fill="url(#paint1_linear_1466_7922)"/>
<path d="M46.9841 28.0101C47.2241 30.9202 45.1541 33.4701 42.2891 33.8152C42.2741 33.8152 42.2741 33.8152 42.2591 33.8152H42.2141C42.1241 33.8152 42.0341 33.8151 41.9591 33.8451C40.5041 33.9201 39.1691 33.4551 38.1641 32.6002C39.7091 31.2201 40.5941 29.1501 40.4141 26.9001C40.3091 25.6851 39.8891 24.5751 39.2591 23.6301C39.8291 23.3451 40.4891 23.1651 41.1641 23.1051C44.1041 22.8501 46.7291 25.0401 46.9841 28.0101Z" fill="url(#paint2_linear_1466_7922)"/>
<path d="M49.9844 41.8846C49.8644 43.3396 48.9344 44.5996 47.3744 45.4546C45.8744 46.2796 43.9844 46.6696 42.1094 46.6246C43.1894 45.6496 43.8194 44.4346 43.9394 43.1446C44.0894 41.2846 43.2044 39.4996 41.4344 38.0746C40.4294 37.2796 39.2594 36.6496 37.9844 36.1846C41.2994 35.2246 45.4694 35.8696 48.0344 37.9396C49.4144 39.0496 50.1194 40.4446 49.9844 41.8846Z" fill="url(#paint3_linear_1466_7922)"/>
<defs>
<linearGradient id="paint0_linear_1466_7922" x1="37.3192" y1="32.3897" x2="23.2554" y2="31.6942" gradientUnits="userSpaceOnUse">
<stop stop-color="#0D2F8C"/>
<stop offset="1" stop-color="#5D7DD7"/>
</linearGradient>
<linearGradient id="paint1_linear_1466_7922" x1="40.6062" y1="48.2027" x2="19.8288" y2="46.6395" gradientUnits="userSpaceOnUse">
<stop stop-color="#0D2F8C"/>
<stop offset="1" stop-color="#5D7DD7"/>
</linearGradient>
<linearGradient id="paint2_linear_1466_7922" x1="46.8133" y1="32.4572" x2="38.0829" y2="32.1031" gradientUnits="userSpaceOnUse">
<stop stop-color="#0D2F8C"/>
<stop offset="1" stop-color="#5D7DD7"/>
</linearGradient>
<linearGradient id="paint3_linear_1466_7922" x1="49.7429" y1="45.2179" x2="37.8898" y2="44.5711" gradientUnits="userSpaceOnUse">
<stop stop-color="#0D2F8C"/>
<stop offset="1" stop-color="#5D7DD7"/>
</linearGradient>
</defs>
</svg>
