<svg width="40" height="40" viewBox="0 0 40 40" fill="none" xmlns="http://www.w3.org/2000/svg">
<mask id="path-1-outside-1_312_16896" maskUnits="userSpaceOnUse" x="3.98828" y="4.89258" width="32" height="30" fill="black">
<rect fill="white" x="3.98828" y="4.89258" width="32" height="30"/>
<path d="M20.2845 6.59561C21.4089 6.59561 25.2808 6.89765 27.1055 10.9884C27.7063 12.3354 27.5523 14.7755 27.4287 16.7356C27.4094 17.0467 27.3903 17.3482 27.3748 17.636L27.3682 17.7598L27.4508 17.852C27.4842 17.889 27.7965 18.2154 28.4911 18.2422L28.5023 18.2428L28.514 18.2426C28.9733 18.2251 29.4905 18.0825 30.0523 17.8193C30.1351 17.7806 30.2452 17.7617 30.3617 17.7617C30.4945 17.7617 30.6356 17.7866 30.752 17.8356L30.7696 17.8426C31.0642 17.9459 31.2724 18.1405 31.2756 18.3166C31.2773 18.4162 31.2029 18.7748 30.1586 19.1873C30.0566 19.2276 29.9223 19.2705 29.7665 19.3196C29.087 19.5353 28.0604 19.861 27.7148 20.6751C27.5203 21.1338 27.5736 21.675 27.8731 22.2836C27.9963 22.5712 29.9359 26.9403 34.3006 27.6595C34.2998 27.6802 34.2945 27.7028 34.2828 27.7295C34.2088 27.9037 33.7386 28.5057 30.8126 28.9572C30.3547 29.0274 30.2426 29.5406 30.1125 30.1372C30.0655 30.3508 30.0178 30.5664 29.9521 30.7891C29.9321 30.8564 29.9283 30.8602 29.8562 30.8602C29.8463 30.8602 29.8346 30.8602 29.8218 30.8602C29.6921 30.8602 29.4951 30.8333 29.2668 30.7885C28.8511 30.7075 28.2831 30.6082 27.5569 30.6082C27.1517 30.6082 26.7342 30.6434 26.3153 30.7134C25.4199 30.8623 24.6918 31.3773 23.9206 31.9224C22.8849 32.6542 21.8145 33.4115 20.1813 33.4115C20.11 33.4115 20.0404 33.4091 19.9706 33.4056L19.9522 33.4048L19.9338 33.4062C19.8937 33.4097 19.8534 33.4115 19.8121 33.4115C18.1792 33.4115 17.1083 32.6545 16.0731 31.9224C15.3018 31.3773 14.5732 30.8623 13.678 30.7134C13.2595 30.6437 12.8416 30.6082 12.4366 30.6082C11.7106 30.6082 11.1419 30.7193 10.727 30.8004C10.4987 30.8451 10.3011 30.8833 10.1717 30.8833C10.0658 30.8833 10.0637 30.8771 10.0413 30.8006C9.97569 30.5777 9.9277 30.357 9.88095 30.1437C9.75058 29.5464 9.63833 29.0304 9.18072 28.9602C6.25494 28.5083 5.78465 27.9053 5.71044 27.7315C5.69885 27.7041 5.69364 27.6808 5.69247 27.6601C10.0571 26.9415 11.9963 22.5723 12.1199 22.2836C12.42 21.6755 12.4732 21.1343 12.278 20.6751C11.9325 19.8614 10.906 19.5353 10.2269 19.32C10.0708 19.2706 9.93641 19.2276 9.83428 19.1873C8.95249 18.8389 8.68125 18.488 8.72154 18.2753C8.76829 18.03 9.19347 17.7806 9.56451 17.7806C9.6479 17.7806 9.72102 17.7941 9.77508 17.8194C10.3777 18.1018 10.9278 18.245 11.4103 18.245C12.1688 18.245 12.5064 17.8921 12.5426 17.8518L12.6249 17.7599L12.6182 17.6367C12.6029 17.349 12.584 17.0476 12.5641 16.7371C12.441 14.7765 12.287 12.3381 12.8875 10.991C14.7054 6.91531 18.5584 6.60113 19.6958 6.60113C19.7238 6.60113 20.2183 6.59608 20.2183 6.59608C20.2385 6.59592 20.261 6.59561 20.2845 6.59561ZM20.2845 5.89258H20.2832C20.2573 5.89258 20.233 5.89258 20.2098 5.89289C20.025 5.89476 19.7211 5.89771 19.6938 5.89802C19.0275 5.89802 17.6943 5.99214 16.2623 6.62423C15.4435 6.9854 14.707 7.47374 14.0734 8.07573C13.3179 8.79299 12.7025 9.67734 12.2445 10.7046C11.5737 12.2087 11.733 14.7421 11.8608 16.778L11.8613 16.7812C11.875 16.9992 11.8894 17.2269 11.9025 17.4487C11.8041 17.4939 11.6446 17.5416 11.4094 17.5416C11.0311 17.5416 10.5812 17.4206 10.0725 17.1823C9.92288 17.1126 9.75206 17.0774 9.56358 17.0774C9.26076 17.0774 8.94152 17.1665 8.66461 17.3293C8.3162 17.5339 8.09109 17.823 8.02995 18.1436C7.98965 18.3556 7.9916 18.7748 8.45715 19.1998C8.71322 19.4338 9.0894 19.6495 9.57494 19.8414C9.70235 19.8916 9.85357 19.9395 10.0137 19.9903C10.5695 20.167 11.4107 20.4339 11.63 20.9501C11.7412 21.2119 11.6934 21.5563 11.4882 21.9726C11.4829 21.984 11.4775 21.9951 11.4726 22.0068C11.4213 22.1265 10.9431 23.2097 9.96216 24.3522C9.40474 25.0018 8.79077 25.5448 8.1383 25.9664C7.34193 26.4811 6.48021 26.8176 5.57735 26.9663C5.2228 27.0245 4.9696 27.3404 4.98936 27.6994C4.99543 27.8029 5.0197 27.906 5.06178 28.0058C5.06209 28.0064 5.06248 28.007 5.06279 28.0076C5.20615 28.3429 5.53853 28.6278 6.07891 28.879C6.73924 29.1857 7.72681 29.4438 9.01394 29.6456C9.07897 29.7693 9.14649 30.0801 9.19324 30.2929C9.24217 30.5191 9.2932 30.7517 9.36593 30.9988C9.44441 31.2664 9.64798 31.5863 10.1709 31.5863C10.3691 31.5863 10.597 31.5416 10.861 31.4905C11.2475 31.4146 11.7761 31.3112 12.4358 31.3112C12.8015 31.3112 13.1806 31.3434 13.5621 31.4068C14.2976 31.5292 14.9316 31.9771 15.6652 32.4958C16.739 33.2548 17.9544 34.114 19.8114 34.114C19.862 34.114 19.9128 34.1123 19.963 34.1088C20.0243 34.1117 20.1004 34.114 20.1807 34.114C22.0382 34.114 23.2533 33.2545 24.3259 32.4961L24.3276 32.4945C25.0614 31.9765 25.6947 31.5292 26.43 31.4068C26.8114 31.3434 27.1903 31.3112 27.5562 31.3112C28.1865 31.3112 28.6855 31.3915 29.131 31.4784C29.4218 31.5357 29.6477 31.5632 29.8211 31.5632L29.8381 31.5635H29.8557C30.2381 31.5635 30.5192 31.3536 30.6265 30.9862C30.6977 30.7443 30.7486 30.5172 30.7988 30.2872C30.8425 30.0877 30.9123 29.768 30.9773 29.643C32.2653 29.4408 33.2525 29.1833 33.9129 28.8767C34.4521 28.6266 34.784 28.3421 34.9283 28.0081C34.9715 27.908 34.9968 27.8043 35.0025 27.6986C35.0228 27.3403 34.7692 27.0237 34.4144 26.9656C30.4018 26.3042 28.5941 22.1812 28.5194 22.0061C28.5146 21.9946 28.5091 21.9831 28.5034 21.972C28.2983 21.5555 28.2509 21.2115 28.3622 20.9493C28.5811 20.4335 29.4217 20.1666 29.9779 19.99C30.1389 19.9393 30.2906 19.8911 30.4171 19.8411C30.9646 19.6249 31.3559 19.3903 31.6141 19.1239C31.9225 18.8063 31.9825 18.502 31.9788 18.3028C31.9694 17.821 31.601 17.3929 31.0152 17.1832C30.8173 17.1014 30.5916 17.0582 30.3618 17.0582C30.2054 17.0582 29.9737 17.0797 29.7545 17.1821C29.285 17.4017 28.8645 17.5218 28.5035 17.539C28.3115 17.5292 28.1769 17.4876 28.0897 17.4479C28.1007 17.2599 28.1128 17.0669 28.1253 16.8656L28.1305 16.7794C28.2591 14.7422 28.4189 12.2068 27.7478 10.7016C27.2879 9.67073 26.6702 8.78412 25.9118 8.0653C25.2756 7.46293 24.5366 6.97466 23.7149 6.61373C22.2849 5.98631 20.9518 5.89258 20.2845 5.89258Z"/>
</mask>
<path d="M20.2845 6.59561C21.4089 6.59561 25.2808 6.89765 27.1055 10.9884C27.7063 12.3354 27.5523 14.7755 27.4287 16.7356C27.4094 17.0467 27.3903 17.3482 27.3748 17.636L27.3682 17.7598L27.4508 17.852C27.4842 17.889 27.7965 18.2154 28.4911 18.2422L28.5023 18.2428L28.514 18.2426C28.9733 18.2251 29.4905 18.0825 30.0523 17.8193C30.1351 17.7806 30.2452 17.7617 30.3617 17.7617C30.4945 17.7617 30.6356 17.7866 30.752 17.8356L30.7696 17.8426C31.0642 17.9459 31.2724 18.1405 31.2756 18.3166C31.2773 18.4162 31.2029 18.7748 30.1586 19.1873C30.0566 19.2276 29.9223 19.2705 29.7665 19.3196C29.087 19.5353 28.0604 19.861 27.7148 20.6751C27.5203 21.1338 27.5736 21.675 27.8731 22.2836C27.9963 22.5712 29.9359 26.9403 34.3006 27.6595C34.2998 27.6802 34.2945 27.7028 34.2828 27.7295C34.2088 27.9037 33.7386 28.5057 30.8126 28.9572C30.3547 29.0274 30.2426 29.5406 30.1125 30.1372C30.0655 30.3508 30.0178 30.5664 29.9521 30.7891C29.9321 30.8564 29.9283 30.8602 29.8562 30.8602C29.8463 30.8602 29.8346 30.8602 29.8218 30.8602C29.6921 30.8602 29.4951 30.8333 29.2668 30.7885C28.8511 30.7075 28.2831 30.6082 27.5569 30.6082C27.1517 30.6082 26.7342 30.6434 26.3153 30.7134C25.4199 30.8623 24.6918 31.3773 23.9206 31.9224C22.8849 32.6542 21.8145 33.4115 20.1813 33.4115C20.11 33.4115 20.0404 33.4091 19.9706 33.4056L19.9522 33.4048L19.9338 33.4062C19.8937 33.4097 19.8534 33.4115 19.8121 33.4115C18.1792 33.4115 17.1083 32.6545 16.0731 31.9224C15.3018 31.3773 14.5732 30.8623 13.678 30.7134C13.2595 30.6437 12.8416 30.6082 12.4366 30.6082C11.7106 30.6082 11.1419 30.7193 10.727 30.8004C10.4987 30.8451 10.3011 30.8833 10.1717 30.8833C10.0658 30.8833 10.0637 30.8771 10.0413 30.8006C9.97569 30.5777 9.9277 30.357 9.88095 30.1437C9.75058 29.5464 9.63833 29.0304 9.18072 28.9602C6.25494 28.5083 5.78465 27.9053 5.71044 27.7315C5.69885 27.7041 5.69364 27.6808 5.69247 27.6601C10.0571 26.9415 11.9963 22.5723 12.1199 22.2836C12.42 21.6755 12.4732 21.1343 12.278 20.6751C11.9325 19.8614 10.906 19.5353 10.2269 19.32C10.0708 19.2706 9.93641 19.2276 9.83428 19.1873C8.95249 18.8389 8.68125 18.488 8.72154 18.2753C8.76829 18.03 9.19347 17.7806 9.56451 17.7806C9.6479 17.7806 9.72102 17.7941 9.77508 17.8194C10.3777 18.1018 10.9278 18.245 11.4103 18.245C12.1688 18.245 12.5064 17.8921 12.5426 17.8518L12.6249 17.7599L12.6182 17.6367C12.6029 17.349 12.584 17.0476 12.5641 16.7371C12.441 14.7765 12.287 12.3381 12.8875 10.991C14.7054 6.91531 18.5584 6.60113 19.6958 6.60113C19.7238 6.60113 20.2183 6.59608 20.2183 6.59608C20.2385 6.59592 20.261 6.59561 20.2845 6.59561ZM20.2845 5.89258H20.2832C20.2573 5.89258 20.233 5.89258 20.2098 5.89289C20.025 5.89476 19.7211 5.89771 19.6938 5.89802C19.0275 5.89802 17.6943 5.99214 16.2623 6.62423C15.4435 6.9854 14.707 7.47374 14.0734 8.07573C13.3179 8.79299 12.7025 9.67734 12.2445 10.7046C11.5737 12.2087 11.733 14.7421 11.8608 16.778L11.8613 16.7812C11.875 16.9992 11.8894 17.2269 11.9025 17.4487C11.8041 17.4939 11.6446 17.5416 11.4094 17.5416C11.0311 17.5416 10.5812 17.4206 10.0725 17.1823C9.92288 17.1126 9.75206 17.0774 9.56358 17.0774C9.26076 17.0774 8.94152 17.1665 8.66461 17.3293C8.3162 17.5339 8.09109 17.823 8.02995 18.1436C7.98965 18.3556 7.9916 18.7748 8.45715 19.1998C8.71322 19.4338 9.0894 19.6495 9.57494 19.8414C9.70235 19.8916 9.85357 19.9395 10.0137 19.9903C10.5695 20.167 11.4107 20.4339 11.63 20.9501C11.7412 21.2119 11.6934 21.5563 11.4882 21.9726C11.4829 21.984 11.4775 21.9951 11.4726 22.0068C11.4213 22.1265 10.9431 23.2097 9.96216 24.3522C9.40474 25.0018 8.79077 25.5448 8.1383 25.9664C7.34193 26.4811 6.48021 26.8176 5.57735 26.9663C5.2228 27.0245 4.9696 27.3404 4.98936 27.6994C4.99543 27.8029 5.0197 27.906 5.06178 28.0058C5.06209 28.0064 5.06248 28.007 5.06279 28.0076C5.20615 28.3429 5.53853 28.6278 6.07891 28.879C6.73924 29.1857 7.72681 29.4438 9.01394 29.6456C9.07897 29.7693 9.14649 30.0801 9.19324 30.2929C9.24217 30.5191 9.2932 30.7517 9.36593 30.9988C9.44441 31.2664 9.64798 31.5863 10.1709 31.5863C10.3691 31.5863 10.597 31.5416 10.861 31.4905C11.2475 31.4146 11.7761 31.3112 12.4358 31.3112C12.8015 31.3112 13.1806 31.3434 13.5621 31.4068C14.2976 31.5292 14.9316 31.9771 15.6652 32.4958C16.739 33.2548 17.9544 34.114 19.8114 34.114C19.862 34.114 19.9128 34.1123 19.963 34.1088C20.0243 34.1117 20.1004 34.114 20.1807 34.114C22.0382 34.114 23.2533 33.2545 24.3259 32.4961L24.3276 32.4945C25.0614 31.9765 25.6947 31.5292 26.43 31.4068C26.8114 31.3434 27.1903 31.3112 27.5562 31.3112C28.1865 31.3112 28.6855 31.3915 29.131 31.4784C29.4218 31.5357 29.6477 31.5632 29.8211 31.5632L29.8381 31.5635H29.8557C30.2381 31.5635 30.5192 31.3536 30.6265 30.9862C30.6977 30.7443 30.7486 30.5172 30.7988 30.2872C30.8425 30.0877 30.9123 29.768 30.9773 29.643C32.2653 29.4408 33.2525 29.1833 33.9129 28.8767C34.4521 28.6266 34.784 28.3421 34.9283 28.0081C34.9715 27.908 34.9968 27.8043 35.0025 27.6986C35.0228 27.3403 34.7692 27.0237 34.4144 26.9656C30.4018 26.3042 28.5941 22.1812 28.5194 22.0061C28.5146 21.9946 28.5091 21.9831 28.5034 21.972C28.2983 21.5555 28.2509 21.2115 28.3622 20.9493C28.5811 20.4335 29.4217 20.1666 29.9779 19.99C30.1389 19.9393 30.2906 19.8911 30.4171 19.8411C30.9646 19.6249 31.3559 19.3903 31.6141 19.1239C31.9225 18.8063 31.9825 18.502 31.9788 18.3028C31.9694 17.821 31.601 17.3929 31.0152 17.1832C30.8173 17.1014 30.5916 17.0582 30.3618 17.0582C30.2054 17.0582 29.9737 17.0797 29.7545 17.1821C29.285 17.4017 28.8645 17.5218 28.5035 17.539C28.3115 17.5292 28.1769 17.4876 28.0897 17.4479C28.1007 17.2599 28.1128 17.0669 28.1253 16.8656L28.1305 16.7794C28.2591 14.7422 28.4189 12.2068 27.7478 10.7016C27.2879 9.67073 26.6702 8.78412 25.9118 8.0653C25.2756 7.46293 24.5366 6.97466 23.7149 6.61373C22.2849 5.98631 20.9518 5.89258 20.2845 5.89258Z" fill="white"/>
<path d="M20.2845 6.59561C21.4089 6.59561 25.2808 6.89765 27.1055 10.9884C27.7063 12.3354 27.5523 14.7755 27.4287 16.7356C27.4094 17.0467 27.3903 17.3482 27.3748 17.636L27.3682 17.7598L27.4508 17.852C27.4842 17.889 27.7965 18.2154 28.4911 18.2422L28.5023 18.2428L28.514 18.2426C28.9733 18.2251 29.4905 18.0825 30.0523 17.8193C30.1351 17.7806 30.2452 17.7617 30.3617 17.7617C30.4945 17.7617 30.6356 17.7866 30.752 17.8356L30.7696 17.8426C31.0642 17.9459 31.2724 18.1405 31.2756 18.3166C31.2773 18.4162 31.2029 18.7748 30.1586 19.1873C30.0566 19.2276 29.9223 19.2705 29.7665 19.3196C29.087 19.5353 28.0604 19.861 27.7148 20.6751C27.5203 21.1338 27.5736 21.675 27.8731 22.2836C27.9963 22.5712 29.9359 26.9403 34.3006 27.6595C34.2998 27.6802 34.2945 27.7028 34.2828 27.7295C34.2088 27.9037 33.7386 28.5057 30.8126 28.9572C30.3547 29.0274 30.2426 29.5406 30.1125 30.1372C30.0655 30.3508 30.0178 30.5664 29.9521 30.7891C29.9321 30.8564 29.9283 30.8602 29.8562 30.8602C29.8463 30.8602 29.8346 30.8602 29.8218 30.8602C29.6921 30.8602 29.4951 30.8333 29.2668 30.7885C28.8511 30.7075 28.2831 30.6082 27.5569 30.6082C27.1517 30.6082 26.7342 30.6434 26.3153 30.7134C25.4199 30.8623 24.6918 31.3773 23.9206 31.9224C22.8849 32.6542 21.8145 33.4115 20.1813 33.4115C20.11 33.4115 20.0404 33.4091 19.9706 33.4056L19.9522 33.4048L19.9338 33.4062C19.8937 33.4097 19.8534 33.4115 19.8121 33.4115C18.1792 33.4115 17.1083 32.6545 16.0731 31.9224C15.3018 31.3773 14.5732 30.8623 13.678 30.7134C13.2595 30.6437 12.8416 30.6082 12.4366 30.6082C11.7106 30.6082 11.1419 30.7193 10.727 30.8004C10.4987 30.8451 10.3011 30.8833 10.1717 30.8833C10.0658 30.8833 10.0637 30.8771 10.0413 30.8006C9.97569 30.5777 9.9277 30.357 9.88095 30.1437C9.75058 29.5464 9.63833 29.0304 9.18072 28.9602C6.25494 28.5083 5.78465 27.9053 5.71044 27.7315C5.69885 27.7041 5.69364 27.6808 5.69247 27.6601C10.0571 26.9415 11.9963 22.5723 12.1199 22.2836C12.42 21.6755 12.4732 21.1343 12.278 20.6751C11.9325 19.8614 10.906 19.5353 10.2269 19.32C10.0708 19.2706 9.93641 19.2276 9.83428 19.1873C8.95249 18.8389 8.68125 18.488 8.72154 18.2753C8.76829 18.03 9.19347 17.7806 9.56451 17.7806C9.6479 17.7806 9.72102 17.7941 9.77508 17.8194C10.3777 18.1018 10.9278 18.245 11.4103 18.245C12.1688 18.245 12.5064 17.8921 12.5426 17.8518L12.6249 17.7599L12.6182 17.6367C12.6029 17.349 12.584 17.0476 12.5641 16.7371C12.441 14.7765 12.287 12.3381 12.8875 10.991C14.7054 6.91531 18.5584 6.60113 19.6958 6.60113C19.7238 6.60113 20.2183 6.59608 20.2183 6.59608C20.2385 6.59592 20.261 6.59561 20.2845 6.59561ZM20.2845 5.89258H20.2832C20.2573 5.89258 20.233 5.89258 20.2098 5.89289C20.025 5.89476 19.7211 5.89771 19.6938 5.89802C19.0275 5.89802 17.6943 5.99214 16.2623 6.62423C15.4435 6.9854 14.707 7.47374 14.0734 8.07573C13.3179 8.79299 12.7025 9.67734 12.2445 10.7046C11.5737 12.2087 11.733 14.7421 11.8608 16.778L11.8613 16.7812C11.875 16.9992 11.8894 17.2269 11.9025 17.4487C11.8041 17.4939 11.6446 17.5416 11.4094 17.5416C11.0311 17.5416 10.5812 17.4206 10.0725 17.1823C9.92288 17.1126 9.75206 17.0774 9.56358 17.0774C9.26076 17.0774 8.94152 17.1665 8.66461 17.3293C8.3162 17.5339 8.09109 17.823 8.02995 18.1436C7.98965 18.3556 7.9916 18.7748 8.45715 19.1998C8.71322 19.4338 9.0894 19.6495 9.57494 19.8414C9.70235 19.8916 9.85357 19.9395 10.0137 19.9903C10.5695 20.167 11.4107 20.4339 11.63 20.9501C11.7412 21.2119 11.6934 21.5563 11.4882 21.9726C11.4829 21.984 11.4775 21.9951 11.4726 22.0068C11.4213 22.1265 10.9431 23.2097 9.96216 24.3522C9.40474 25.0018 8.79077 25.5448 8.1383 25.9664C7.34193 26.4811 6.48021 26.8176 5.57735 26.9663C5.2228 27.0245 4.9696 27.3404 4.98936 27.6994C4.99543 27.8029 5.0197 27.906 5.06178 28.0058C5.06209 28.0064 5.06248 28.007 5.06279 28.0076C5.20615 28.3429 5.53853 28.6278 6.07891 28.879C6.73924 29.1857 7.72681 29.4438 9.01394 29.6456C9.07897 29.7693 9.14649 30.0801 9.19324 30.2929C9.24217 30.5191 9.2932 30.7517 9.36593 30.9988C9.44441 31.2664 9.64798 31.5863 10.1709 31.5863C10.3691 31.5863 10.597 31.5416 10.861 31.4905C11.2475 31.4146 11.7761 31.3112 12.4358 31.3112C12.8015 31.3112 13.1806 31.3434 13.5621 31.4068C14.2976 31.5292 14.9316 31.9771 15.6652 32.4958C16.739 33.2548 17.9544 34.114 19.8114 34.114C19.862 34.114 19.9128 34.1123 19.963 34.1088C20.0243 34.1117 20.1004 34.114 20.1807 34.114C22.0382 34.114 23.2533 33.2545 24.3259 32.4961L24.3276 32.4945C25.0614 31.9765 25.6947 31.5292 26.43 31.4068C26.8114 31.3434 27.1903 31.3112 27.5562 31.3112C28.1865 31.3112 28.6855 31.3915 29.131 31.4784C29.4218 31.5357 29.6477 31.5632 29.8211 31.5632L29.8381 31.5635H29.8557C30.2381 31.5635 30.5192 31.3536 30.6265 30.9862C30.6977 30.7443 30.7486 30.5172 30.7988 30.2872C30.8425 30.0877 30.9123 29.768 30.9773 29.643C32.2653 29.4408 33.2525 29.1833 33.9129 28.8767C34.4521 28.6266 34.784 28.3421 34.9283 28.0081C34.9715 27.908 34.9968 27.8043 35.0025 27.6986C35.0228 27.3403 34.7692 27.0237 34.4144 26.9656C30.4018 26.3042 28.5941 22.1812 28.5194 22.0061C28.5146 21.9946 28.5091 21.9831 28.5034 21.972C28.2983 21.5555 28.2509 21.2115 28.3622 20.9493C28.5811 20.4335 29.4217 20.1666 29.9779 19.99C30.1389 19.9393 30.2906 19.8911 30.4171 19.8411C30.9646 19.6249 31.3559 19.3903 31.6141 19.1239C31.9225 18.8063 31.9825 18.502 31.9788 18.3028C31.9694 17.821 31.601 17.3929 31.0152 17.1832C30.8173 17.1014 30.5916 17.0582 30.3618 17.0582C30.2054 17.0582 29.9737 17.0797 29.7545 17.1821C29.285 17.4017 28.8645 17.5218 28.5035 17.539C28.3115 17.5292 28.1769 17.4876 28.0897 17.4479C28.1007 17.2599 28.1128 17.0669 28.1253 16.8656L28.1305 16.7794C28.2591 14.7422 28.4189 12.2068 27.7478 10.7016C27.2879 9.67073 26.6702 8.78412 25.9118 8.0653C25.2756 7.46293 24.5366 6.97466 23.7149 6.61373C22.2849 5.98631 20.9518 5.89258 20.2845 5.89258Z" stroke="white" stroke-width="0.6" mask="url(#path-1-outside-1_312_16896)"/>
</svg>
