<svg width="28" height="28" viewBox="0 0 28 28" fill="none" xmlns="http://www.w3.org/2000/svg">
<path fill-rule="evenodd" clip-rule="evenodd" d="M14 0.667969C6.63686 0.667969 0.667969 6.63686 0.667969 14C0.667969 21.3631 6.63686 27.332 14 27.332C21.3631 27.332 27.332 21.3631 27.332 14C27.332 6.63686 21.363 0.667969 14 0.667969ZM10.443 20.4454H7.51579V10.9885H10.443V20.4454ZM8.96543 9.75006C8.00944 9.75006 7.23445 8.96875 7.23445 8.0051C7.23445 7.04136 8.00955 6.2601 8.96543 6.2601C9.9213 6.2601 10.6963 7.04136 10.6963 8.0051C10.6964 8.9688 9.92136 9.75006 8.96543 9.75006ZM21.4125 20.4454H18.4996V15.4813C18.4996 14.1198 17.9824 13.3598 16.9058 13.3598C15.7342 13.3598 15.1221 14.1513 15.1221 15.4813V20.4454H12.3146V10.9885H15.1221V12.2622C15.1221 12.2622 15.9665 10.7 17.9718 10.7C19.9771 10.7 21.4126 11.9245 21.4126 14.4574L21.4125 20.4454Z" fill="white"/>
</svg>
