<svg width="40" height="40" viewBox="0 0 40 40" fill="none" xmlns="http://www.w3.org/2000/svg">
<path fill-rule="evenodd" clip-rule="evenodd" d="M32 13.0339C31.117 13.4362 30.1688 13.7078 29.1718 13.8285C30.1883 13.2039 30.9692 12.2147 31.3376 11.0362C30.3856 11.6139 29.3323 12.0355 28.2108 12.2608C27.3121 11.2801 26.0323 10.667 24.6152 10.667C21.8957 10.667 19.6924 12.927 19.6924 15.7155C19.6924 16.1108 19.7352 16.497 19.8192 16.8662C15.7269 16.6555 12.099 14.6455 9.66992 11.5908C9.24681 12.337 9.00375 13.2039 9.00375 14.1293C9.00375 15.8816 9.87322 17.4262 11.1935 18.3324C10.3871 18.3055 9.62791 18.0793 8.96399 17.7008C8.96324 17.7216 8.96324 17.7439 8.96324 17.7639C8.96324 20.2108 10.6602 22.2516 12.913 22.7155C12.5004 22.8301 12.0653 22.8924 11.6159 22.8924C11.2978 22.8924 10.9902 22.8608 10.6902 22.8024C11.3158 24.807 13.135 26.267 15.2888 26.3085C13.6047 27.6624 11.4816 28.4708 9.17479 28.4708C8.77719 28.4708 8.38485 28.447 8 28.4001C10.1785 29.8308 12.7667 30.667 15.5476 30.667C24.6039 30.667 29.5574 22.9739 29.5574 16.3016C29.5574 16.0831 29.5514 15.8647 29.5424 15.6478C30.5049 14.9362 31.3391 14.0478 32 13.0339Z" fill="white"/>
</svg>
