<svg width="131" height="185" viewBox="0 0 131 185" fill="none" xmlns="http://www.w3.org/2000/svg">
<path d="M65.5075 0.36377C39.6508 0.36377 18.6553 21.3589 18.6553 47.2157V79.0122C19.1257 78.9732 19.5961 78.9337 20.106 78.9337H35.3772V47.2157C35.3772 30.592 48.8642 17.0656 65.5075 17.0656C82.3255 17.0656 95.6576 30.7878 95.6576 47.2157V78.9337H110.889C111.399 78.9337 111.87 78.9728 112.36 79.0122V47.2157C112.359 21.5912 91.5955 0.36377 65.5075 0.36377Z" fill="url(#paint0_linear_130_13988)"/>
<path d="M130.327 98.3708V165.203C130.327 175.922 121.649 184.636 110.893 184.636H20.1066C9.38698 184.636 0.672852 175.922 0.672852 165.203V98.3708C0.672852 87.6511 9.38698 78.937 20.1066 78.937H110.893C121.649 78.937 130.327 87.6511 130.327 98.3708Z" fill="url(#paint1_linear_130_13988)"/>
<path d="M39 135L56.9788 153L93 117" stroke="white" stroke-width="11" stroke-linecap="round" stroke-linejoin="round"/>
<defs>
<linearGradient id="paint0_linear_130_13988" x1="65.5075" y1="79.0122" x2="65.5075" y2="0.36377" gradientUnits="userSpaceOnUse">
<stop offset="0.017" stop-color="#4D5351"/>
<stop offset="1" stop-color="#4B5251"/>
</linearGradient>
<linearGradient id="paint1_linear_130_13988" x1="65.4998" y1="184.636" x2="65.4998" y2="78.937" gradientUnits="userSpaceOnUse">
<stop stop-color="#10907B"/>
<stop offset="1" stop-color="#5AE3CD"/>
</linearGradient>
</defs>
</svg>
