<svg width="187" height="187" viewBox="0 0 187 187" fill="none" xmlns="http://www.w3.org/2000/svg">
<path d="M93.5075 1.36377C67.6508 1.36377 46.6553 22.3589 46.6553 48.2157V80.0122C47.1257 79.9732 47.5961 79.9337 48.106 79.9337H63.3772V48.2157C63.3772 31.592 76.8642 18.0656 93.5075 18.0656C110.325 18.0656 123.658 31.7878 123.658 48.2157V79.9337H138.889C139.399 79.9337 139.87 79.9728 140.36 80.0122V48.2157C140.359 22.5912 119.595 1.36377 93.5075 1.36377Z" fill="url(#paint0_linear_130_13831)"/>
<path d="M158.327 99.3708V166.203C158.327 176.922 149.649 185.636 138.893 185.636H48.1066C37.387 185.636 28.6729 176.922 28.6729 166.203V99.3708C28.6729 88.6511 37.387 79.937 48.1066 79.937H138.893C149.649 79.937 158.327 88.6511 158.327 99.3708Z" fill="url(#paint1_linear_130_13831)"/>
<path d="M71.9212 129.864C71.9212 130.942 71.0392 131.824 69.961 131.824H64.2568L68.2948 135.862C68.4766 136.043 68.6207 136.259 68.7191 136.496C68.8175 136.733 68.8681 136.987 68.8681 137.244C68.8681 137.501 68.8175 137.755 68.7191 137.992C68.6207 138.229 68.4766 138.445 68.2948 138.626C67.4723 139.449 66.2382 139.371 65.5307 138.626L61.4927 134.588V140.312C61.4927 141.39 60.6103 142.272 59.5325 142.272C59.2748 142.273 59.0195 142.223 58.7813 142.125C58.5431 142.027 58.3267 141.882 58.1445 141.7C57.9623 141.518 57.8179 141.302 57.7197 141.063C57.6215 140.825 57.5714 140.57 57.5723 140.312V134.588L53.5343 138.626C52.7117 139.449 51.4776 139.371 50.7698 138.626C50.5839 138.447 50.436 138.233 50.335 137.995C50.234 137.758 50.182 137.502 50.182 137.244C50.182 136.986 50.234 136.731 50.335 136.493C50.436 136.256 50.5839 136.041 50.7698 135.862L54.8082 131.824H49.0842C48.0061 131.824 47.124 130.942 47.124 129.864C47.124 128.786 48.0061 127.904 49.0842 127.904H54.8082L50.7698 123.866C50.5839 123.687 50.436 123.472 50.335 123.234C50.234 122.997 50.1819 122.741 50.1819 122.483C50.1819 122.225 50.234 121.97 50.335 121.732C50.436 121.495 50.5839 121.28 50.7698 121.101C50.9512 120.919 51.1666 120.775 51.4038 120.677C51.641 120.578 51.8952 120.528 52.152 120.528C52.4088 120.528 52.663 120.578 52.9002 120.677C53.1374 120.775 53.3529 120.919 53.5343 121.101L57.5723 125.14V119.435C57.5723 118.337 58.435 117.475 59.5325 117.475C59.7902 117.474 60.0455 117.524 60.2837 117.622C60.522 117.721 60.7384 117.865 60.9206 118.047C61.1028 118.229 61.2472 118.446 61.3454 118.684C61.4436 118.922 61.4936 119.178 61.4927 119.435V125.14L65.5307 121.101C65.7121 120.919 65.9275 120.775 66.1647 120.677C66.4018 120.579 66.656 120.528 66.9128 120.528C67.1695 120.528 67.4237 120.579 67.6609 120.677C67.8981 120.775 68.1135 120.919 68.2948 121.101C68.4766 121.283 68.6208 121.498 68.7191 121.735C68.8175 121.972 68.8681 122.227 68.8681 122.483C68.8681 122.74 68.8175 122.994 68.7191 123.232C68.6208 123.469 68.4766 123.684 68.2948 123.866L64.2568 127.904H69.961C71.0392 127.904 71.9212 128.786 71.9212 129.864Z" fill="white"/>
<path d="M105.894 129.864C105.895 130.122 105.844 130.377 105.746 130.615C105.648 130.853 105.504 131.07 105.321 131.252C105.139 131.434 104.923 131.578 104.685 131.677C104.446 131.775 104.191 131.825 103.933 131.824H98.2288L102.267 135.862C102.449 136.043 102.593 136.259 102.691 136.496C102.79 136.733 102.84 136.987 102.84 137.244C102.84 137.501 102.79 137.755 102.691 137.992C102.593 138.229 102.449 138.445 102.267 138.626C101.53 139.402 100.254 139.417 99.5028 138.626L95.4644 134.588V140.312C95.4644 141.39 94.5823 142.272 93.5042 142.272C92.426 142.272 91.544 141.39 91.544 140.312V134.588L87.5056 138.626C86.6834 139.449 85.4489 139.371 84.7418 138.626C84.5559 138.447 84.4079 138.233 84.3068 137.995C84.2058 137.758 84.1537 137.502 84.1537 137.244C84.1537 136.986 84.2058 136.731 84.3068 136.493C84.4079 136.256 84.5559 136.041 84.7418 135.862L88.7802 131.824H83.0559C81.9777 131.824 81.0957 130.942 81.0957 129.864C81.0957 128.786 81.9781 127.904 83.0559 127.904H88.7802L84.7418 123.866C84.5558 123.687 84.4079 123.472 84.3068 123.234C84.2057 122.997 84.1537 122.741 84.1537 122.483C84.1537 122.225 84.2057 121.97 84.3068 121.732C84.4079 121.495 84.5558 121.28 84.7418 121.101C84.9231 120.919 85.1385 120.775 85.3756 120.677C85.6128 120.578 85.867 120.528 86.1237 120.528C86.3804 120.528 86.6346 120.578 86.8718 120.677C87.1089 120.775 87.3243 120.919 87.5056 121.101L91.544 125.14V119.435C91.544 118.337 92.426 117.475 93.5042 117.475C94.5823 117.475 95.4644 118.337 95.4644 119.435V125.14L99.5028 121.101C99.6842 120.919 99.8996 120.775 100.137 120.677C100.374 120.579 100.628 120.528 100.885 120.528C101.142 120.528 101.396 120.579 101.633 120.677C101.87 120.775 102.086 120.919 102.267 121.101C102.449 121.282 102.593 121.498 102.691 121.735C102.79 121.972 102.84 122.227 102.84 122.483C102.84 122.74 102.79 122.994 102.691 123.232C102.593 123.469 102.449 123.684 102.267 123.866L98.2288 127.904H103.933C104.191 127.903 104.446 127.953 104.685 128.051C104.923 128.149 105.139 128.294 105.321 128.476C105.504 128.658 105.648 128.874 105.746 129.113C105.844 129.351 105.895 129.606 105.894 129.864Z" fill="white"/>
<path d="M139.866 129.864C139.867 130.122 139.817 130.377 139.719 130.615C139.621 130.853 139.476 131.07 139.294 131.252C139.112 131.434 138.895 131.578 138.657 131.677C138.419 131.775 138.164 131.825 137.906 131.824H132.202L136.24 135.862C136.422 136.043 136.566 136.259 136.664 136.496C136.763 136.733 136.813 136.987 136.813 137.244C136.813 137.501 136.763 137.755 136.664 137.992C136.566 138.229 136.422 138.445 136.24 138.626C135.507 139.398 134.231 139.422 133.476 138.626L129.438 134.588V140.312C129.438 141.39 128.555 142.272 127.478 142.272C126.399 142.272 125.517 141.39 125.517 140.312V134.588L121.479 138.626C120.657 139.449 119.422 139.371 118.715 138.626C118.529 138.447 118.381 138.233 118.28 137.995C118.179 137.758 118.127 137.502 118.127 137.244C118.127 136.986 118.179 136.731 118.28 136.493C118.381 136.256 118.529 136.041 118.715 135.862L122.753 131.824H117.029C115.95 131.824 115.068 130.942 115.068 129.864C115.068 128.786 115.95 127.904 117.029 127.904H122.753L118.715 123.866C118.529 123.687 118.381 123.472 118.28 123.235C118.178 122.997 118.126 122.742 118.126 122.483C118.126 122.225 118.178 121.97 118.28 121.732C118.381 121.495 118.529 121.28 118.715 121.101C118.896 120.919 119.112 120.775 119.349 120.677C119.586 120.579 119.84 120.528 120.097 120.528C120.354 120.528 120.608 120.579 120.845 120.677C121.082 120.775 121.298 120.919 121.479 121.101L125.517 125.14V119.435C125.517 118.337 126.399 117.475 127.478 117.475C128.556 117.475 129.438 118.337 129.438 119.435V125.14L133.476 121.101C133.657 120.919 133.873 120.775 134.11 120.677C134.347 120.579 134.601 120.528 134.858 120.528C135.115 120.528 135.369 120.579 135.606 120.677C135.843 120.775 136.059 120.919 136.24 121.101C136.422 121.283 136.566 121.498 136.664 121.735C136.763 121.972 136.813 122.227 136.813 122.483C136.813 122.74 136.763 122.994 136.664 123.232C136.566 123.469 136.422 123.684 136.24 123.866L132.202 127.904H137.906C138.164 127.903 138.419 127.953 138.657 128.051C138.895 128.149 139.112 128.294 139.294 128.476C139.476 128.658 139.621 128.874 139.719 129.113C139.817 129.351 139.867 129.606 139.866 129.864Z" fill="white"/>
<defs>
<linearGradient id="paint0_linear_130_13831" x1="93.5075" y1="80.0122" x2="93.5075" y2="1.36377" gradientUnits="userSpaceOnUse">
<stop offset="0.017" stop-color="#4D5351"/>
<stop offset="1" stop-color="#4B5251"/>
</linearGradient>
<linearGradient id="paint1_linear_130_13831" x1="93.4998" y1="185.636" x2="93.4998" y2="79.937" gradientUnits="userSpaceOnUse">
<stop stop-color="#10907B"/>
<stop offset="1" stop-color="#5AE3CD"/>
</linearGradient>
</defs>
</svg>
