<svg width="32" height="32" viewBox="0 0 32 32" fill="none" xmlns="http://www.w3.org/2000/svg">
<path opacity="0.4" d="M10 9.76V22.227C10 26.4 12.9253 29 17.6058 29H21.3941C26.0746 29 28.9999 26.4 28.9999 22.24V9.76C29.0146 5.6 26.0893 3 21.4087 3H17.6058C12.9253 3 10 5.6 10 9.76Z" fill="#D41F40"/>
<path d="M16.5737 10.8267L21.0403 15.2933C21.427 15.68 21.427 16.32 21.0403 16.7067L16.5737 21.1733C16.187 21.56 15.547 21.56 15.1603 21.1733C14.7737 20.7867 14.7737 20.1467 15.1603 19.76L17.9203 17H5C4.45333 17 4 16.5467 4 16C4 15.4533 4.45333 15 5 15H17.9203L15.1603 12.24C14.9603 12.04 14.867 11.7867 14.867 11.5333C14.867 11.28 14.9603 11.0267 15.1603 10.8267C15.547 10.4267 16.1737 10.4267 16.5737 10.8267Z" fill="#D41F40"/>
</svg>
