<svg width="41" height="40" viewBox="0 0 41 40" fill="none" xmlns="http://www.w3.org/2000/svg">
<path d="M36.6752 9.67125H9.18658C9.03503 9.67125 8.88968 9.73145 8.78252 9.83862C8.67535 9.94578 8.61515 10.0911 8.61515 10.2427C8.61515 10.3942 8.67535 10.5396 8.78252 10.6467C8.88968 10.7539 9.03503 10.8141 9.18658 10.8141H36.6752C37.0831 10.8146 37.4743 10.9768 37.7628 11.2653C38.0513 11.5538 38.2136 11.945 38.214 12.353V27.6484C38.2136 28.0564 38.0513 28.4475 37.7628 28.736C37.4743 29.0245 37.0831 29.1868 36.6752 29.1872C-3.74371 29.1872 45.0643 29.185 4.89801 29.1872V7.02268C4.89725 6.49475 4.6872 5.98866 4.3139 5.61536C3.94059 5.24206 3.43451 5.03201 2.90658 5.03125H2.21401C2.06245 5.03125 1.91711 5.09145 1.80995 5.19862C1.70278 5.30578 1.64258 5.45113 1.64258 5.60268C1.64258 5.75423 1.70278 5.89958 1.80995 6.00674C1.91711 6.1139 2.06245 6.17411 2.21401 6.17411H2.90658C3.37515 6.17411 3.75515 6.55468 3.75515 7.02268C3.75515 7.08039 3.75401 36.2472 3.75515 34.3992C3.75515 34.5508 3.81535 34.6961 3.92252 34.8033C4.02968 34.9105 4.17503 34.9707 4.32658 34.9707C4.47813 34.9707 4.62348 34.9105 4.73064 34.8033C4.8378 34.6961 4.89801 34.5508 4.89801 34.3992V30.3307H9.34544V31.5575C9.34544 32.5347 10.1403 33.329 11.1174 33.329H23.0769C23.5465 33.3284 23.9968 33.1416 24.329 32.8095C24.6612 32.4774 24.8481 32.0272 24.8489 31.5575C24.8489 31.406 24.7887 31.2606 24.6815 31.1535C24.5743 31.0463 24.429 30.9861 24.2774 30.9861C24.1259 30.9861 23.9805 31.0463 23.8734 31.1535C23.7662 31.2606 23.706 31.406 23.706 31.5575C23.706 31.9044 23.4237 32.1861 23.0769 32.1861H11.1169C10.7706 32.1861 10.4883 31.9044 10.4883 31.5575V30.3301H36.6746C37.3856 30.3293 38.0674 30.0466 38.5702 29.5438C39.0731 29.0411 39.356 28.3594 39.3569 27.6484V12.353C39.3561 11.642 39.0733 10.9603 38.5706 10.4575C38.0678 9.95479 37.3862 9.67201 36.6752 9.67125Z" fill="#626878"/>
<path d="M31.9862 20.004C31.9862 18.4543 30.7262 17.3012 29.4171 17.244C29.35 17.2354 29.2824 17.2315 29.2148 17.2326C27.7439 17.2326 26.4434 18.4194 26.4434 20.004C26.4434 21.5474 27.7165 22.7012 29.0159 22.7583C29.0828 22.768 29.1485 22.7697 29.2148 22.7697C30.7159 22.7697 31.9862 21.5543 31.9862 20.004ZM30.8376 20.0972C30.7994 20.9223 30.1005 21.6263 29.2148 21.6263L29.1222 21.6217C28.3039 21.5829 27.5862 20.8846 27.5862 20.004L27.5919 19.9109C27.6314 19.0629 28.3502 18.3754 29.2148 18.3754L29.3079 18.3806C29.7227 18.4038 30.1129 18.5849 30.3984 18.8866C30.6839 19.1884 30.8431 19.588 30.8434 20.0034L30.8376 20.0972Z" fill="#626878"/>
<path d="M29.2145 12.9863C25.3545 12.9863 22.203 16.1155 22.203 20.0035C22.203 23.9018 25.3625 27.0149 29.2145 27.0149C33.0933 27.0149 36.2259 23.868 36.2259 20.0035C36.2259 16.2126 33.1173 12.9863 29.2145 12.9863ZM30.6693 25.6829C30.3013 25.0442 30.0313 24.3538 29.8682 23.6349C29.8341 23.4871 29.7427 23.359 29.6141 23.2786C29.4855 23.1982 29.3302 23.1722 29.1825 23.2063C29.0347 23.2404 28.9065 23.3318 28.8262 23.4604C28.7458 23.589 28.7198 23.7443 28.7539 23.892C28.9362 24.6795 29.2002 25.3389 29.4636 25.8595C28.3279 25.9167 27.2008 25.6347 26.2259 25.0492C26.3596 24.5452 26.595 23.8926 27.0213 23.1749C27.0966 23.0447 27.1176 22.8901 27.0797 22.7446C27.0418 22.5991 26.948 22.4744 26.8187 22.3975C26.6895 22.3207 26.5351 22.2979 26.3892 22.3341C26.2432 22.3703 26.1174 22.4625 26.039 22.5909C25.7137 23.1363 25.4493 23.7158 25.2505 24.3189C24.4148 23.5479 23.8189 22.5527 23.5339 21.452C24.1175 21.1172 24.7443 20.864 25.3967 20.6995C25.5399 20.6587 25.6615 20.5636 25.7356 20.4346C25.8098 20.3055 25.8306 20.1526 25.7938 20.0084C25.7569 19.8642 25.6653 19.7401 25.5383 19.6624C25.4113 19.5848 25.259 19.5597 25.1139 19.5926C24.5058 19.7478 23.9167 19.9697 23.3573 20.2543C23.3539 20.1703 23.3459 20.0886 23.3459 20.0029C23.3459 18.944 23.6293 17.9172 24.1647 17.0098C24.6722 17.1458 25.3265 17.3818 26.0362 17.8029C26.1664 17.8771 26.3205 17.8972 26.4653 17.8588C26.6102 17.8205 26.7342 17.7268 26.8106 17.5979C26.887 17.469 26.9098 17.3153 26.8739 17.1698C26.8381 17.0243 26.7466 16.8987 26.619 16.82C26.0737 16.4971 25.4944 16.2353 24.8916 16.0395C25.6629 15.2017 26.6592 14.604 27.7613 14.3178C28.0099 14.748 28.2905 15.3406 28.4927 16.0892C28.5114 16.1626 28.5444 16.2316 28.5899 16.2921C28.6355 16.3526 28.6926 16.4035 28.7579 16.4418C28.8233 16.48 28.8956 16.5049 28.9707 16.515C29.0457 16.525 29.1221 16.5201 29.1952 16.5004C29.2683 16.4807 29.3368 16.4466 29.3967 16.4002C29.4565 16.3539 29.5066 16.296 29.5439 16.2301C29.5812 16.1642 29.605 16.0915 29.614 16.0163C29.623 15.9411 29.6169 15.8649 29.5962 15.792C29.4419 15.2209 29.2286 14.6675 28.9596 14.1406C30.0969 14.0839 31.2256 14.3649 32.2036 14.948C32.0653 15.4738 31.8196 16.156 31.3665 16.9018C31.3275 16.9659 31.3015 17.0371 31.29 17.1112C31.2785 17.1854 31.2818 17.2611 31.2996 17.334C31.3173 17.4069 31.3493 17.4756 31.3936 17.5361C31.4379 17.5967 31.4938 17.6479 31.5579 17.6869C31.622 17.7259 31.6932 17.7519 31.7673 17.7633C31.8415 17.7748 31.9172 17.7716 31.9901 17.7538C32.063 17.736 32.1317 17.7041 32.1923 17.6597C32.2528 17.6154 32.304 17.5596 32.343 17.4955C32.6908 16.9247 32.9717 16.3157 33.1802 15.6806C34.0203 16.4471 34.6167 17.4436 34.895 18.5463C34.2549 18.9134 33.564 19.1838 32.8447 19.3486C32.7 19.3855 32.5754 19.4776 32.4977 19.6052C32.42 19.7328 32.3953 19.8857 32.429 20.0313C32.4627 20.1768 32.5521 20.3034 32.6779 20.3838C32.8038 20.4643 32.9562 20.4923 33.1025 20.4618C33.7848 20.3042 34.4458 20.0657 35.0716 19.7515C35.075 19.8355 35.083 19.92 35.083 20.0029C35.083 21.0635 34.8002 22.0886 34.2647 22.9915C33.4588 22.7719 32.6948 22.4205 32.0036 21.9515C31.8778 21.8668 31.7235 21.8356 31.5748 21.8647C31.426 21.8938 31.2948 21.9808 31.2102 22.1066C31.1255 22.2324 31.0943 22.3867 31.1234 22.5355C31.1525 22.6843 31.2395 22.8154 31.3653 22.9C32.0359 23.3528 32.7656 23.7112 33.5339 23.9652C32.7635 24.8007 31.7692 25.3969 30.6693 25.6829ZM9.86474 25.7892C10.1373 25.9212 11.5225 27.0149 13.8259 27.0149C16.2133 27.0149 18.3562 25.796 19.6116 23.9663L19.6247 23.9458L19.627 23.9423C20.4176 22.7811 20.8394 21.4083 20.8373 20.0035C20.8373 16.0458 17.6242 12.9863 13.8259 12.9863C9.98131 12.9863 6.81445 16.1029 6.81445 20.0035C6.81445 23.8995 9.81388 25.732 9.86474 25.7892ZM12.3727 14.3178C12.6207 14.748 12.9013 15.3406 13.1036 16.0892C13.1222 16.1626 13.1553 16.2316 13.2008 16.2921C13.2463 16.3526 13.3034 16.4035 13.3688 16.4418C13.4342 16.48 13.5065 16.5049 13.5815 16.515C13.6566 16.525 13.7329 16.5201 13.806 16.5004C13.8792 16.4807 13.9477 16.4466 14.0075 16.4002C14.0674 16.3539 14.1174 16.296 14.1547 16.2301C14.1921 16.1642 14.2159 16.0915 14.2249 16.0163C14.2338 15.9411 14.2278 15.8649 14.207 15.792C14.0528 15.221 13.8397 14.6676 13.571 14.1406C14.7085 14.0838 15.8374 14.3647 16.8156 14.948C16.6322 15.6365 16.35 16.2948 15.9779 16.9023C15.9361 16.9665 15.9077 17.0384 15.8943 17.1138C15.8809 17.1891 15.8827 17.2664 15.8997 17.3411C15.9168 17.4157 15.9486 17.4861 15.9934 17.5482C16.0382 17.6103 16.095 17.6628 16.1604 17.7025C16.2259 17.7422 16.2986 17.7684 16.3744 17.7794C16.4501 17.7905 16.5273 17.7862 16.6014 17.7668C16.6755 17.7474 16.7449 17.7134 16.8055 17.6667C16.8662 17.62 16.9168 17.5616 16.9545 17.4949C17.3022 16.9243 17.5831 16.3155 17.7916 15.6806C18.632 16.447 19.2286 17.4436 19.507 18.5463C18.8666 18.9135 18.1753 19.1839 17.4556 19.3486C17.3108 19.3855 17.1862 19.4776 17.1085 19.6052C17.0308 19.7328 17.0062 19.8857 17.0399 20.0313C17.0736 20.1768 17.1629 20.3034 17.2888 20.3838C17.4147 20.4643 17.5671 20.4923 17.7133 20.4618C18.3956 20.3043 19.0566 20.0661 19.6825 19.752C19.6865 19.8355 19.6939 19.9212 19.6939 20.0035C19.6939 21.064 19.4116 22.0892 18.8767 22.992C18.0706 22.7726 17.3064 22.4212 16.615 21.952C16.4893 21.8753 16.3388 21.8501 16.195 21.8815C16.0511 21.913 15.9249 21.9987 15.8426 22.1209C15.7604 22.243 15.7284 22.3922 15.7534 22.5374C15.7784 22.6825 15.8584 22.8124 15.9767 22.9C16.6473 23.3529 17.377 23.7113 18.1453 23.9652C17.3749 24.8006 16.3805 25.3968 15.2807 25.6829C14.913 25.044 14.6428 24.3537 14.479 23.6349C14.4449 23.4871 14.3535 23.359 14.2249 23.2786C14.0963 23.1982 13.9411 23.1722 13.7933 23.2063C13.6455 23.2404 13.5174 23.3318 13.437 23.4604C13.3566 23.589 13.3306 23.7443 13.3647 23.892C13.5217 24.5741 13.7602 25.2349 14.075 25.86C13.9922 25.864 13.9087 25.8715 13.8259 25.8715C12.7647 25.8715 11.7385 25.5886 10.8362 25.0526C10.9693 24.5492 11.2047 23.8955 11.6327 23.1743C11.7032 23.0445 11.7207 22.8925 11.6815 22.75C11.6423 22.6076 11.5495 22.4859 11.4225 22.4105C11.2955 22.335 11.1442 22.3116 11.0004 22.3453C10.8566 22.3789 10.7314 22.4669 10.651 22.5909C10.3257 23.1361 10.0612 23.7154 9.86245 24.3183C9.0266 23.5477 8.43045 22.5526 8.14531 21.452C8.72894 21.1172 9.35573 20.864 10.0082 20.6995C10.1508 20.6583 10.2717 20.5632 10.3455 20.4344C10.4192 20.3056 10.4399 20.1531 10.4032 20.0093C10.3666 19.8655 10.2754 19.7416 10.1489 19.6638C10.0225 19.586 9.87079 19.5605 9.72588 19.5926C9.11734 19.7479 8.52785 19.97 7.96817 20.2549C7.96474 20.1709 7.95674 20.0892 7.95674 20.0035C7.95674 18.9446 8.24017 17.9178 8.77617 17.0098C9.28474 17.1463 9.93845 17.3818 10.6482 17.8029C10.7784 17.8771 10.9325 17.8972 11.0773 17.8588C11.2222 17.8205 11.3462 17.7268 11.4226 17.5979C11.499 17.469 11.5218 17.3153 11.4859 17.1698C11.4501 17.0243 11.3586 16.8987 11.231 16.82C10.6856 16.4969 10.106 16.2351 9.50302 16.0395C10.2741 15.2015 11.2705 14.6037 12.3727 14.3178Z" fill="#626878"/>
<path d="M11.0547 20.004C11.0573 20.7377 11.3503 21.4406 11.8696 21.9589C12.389 22.4771 13.0924 22.7687 13.8261 22.7697C15.3667 22.7697 16.529 21.5166 16.5861 20.2029C16.5946 20.137 16.5984 20.0705 16.5975 20.004C16.5975 18.4697 15.3507 17.3012 14.029 17.244C13.9617 17.2353 13.8939 17.2315 13.8261 17.2326C12.3164 17.2326 11.0547 18.4577 11.0547 20.004ZM12.2033 19.9109C12.2427 19.0652 12.9575 18.3755 13.8261 18.3755L13.9193 18.3806C14.334 18.4039 14.7241 18.5851 15.0096 18.8868C15.2951 19.1885 15.4543 19.5881 15.4547 20.0035L15.4495 20.0972C15.4113 20.9223 14.7118 21.6263 13.8267 21.6263L13.7335 21.6217C13.3141 21.5971 12.9203 21.4117 12.634 21.1041C12.3477 20.7965 12.191 20.3905 12.1964 19.9703C12.1996 19.9506 12.2023 19.9308 12.2033 19.9109Z" fill="#626878"/>
</svg>
