<svg width="41" height="40" viewBox="0 0 41 40" fill="none" xmlns="http://www.w3.org/2000/svg">
<g clip-path="url(#clip0_1558_11433)">
<path d="M39.8994 16.5573H39.9531C40.025 16.5574 40.0961 16.5433 40.1625 16.5158C40.2288 16.4883 40.2891 16.448 40.3399 16.3973C40.3907 16.3465 40.431 16.2862 40.4585 16.2198C40.4859 16.1534 40.5 16.0823 40.5 16.0105V9.70703C40.5 9.6352 40.4859 9.56407 40.4585 9.4977C40.431 9.43133 40.3907 9.37103 40.3399 9.32024C40.2891 9.26945 40.2288 9.22917 40.1625 9.2017C40.0961 9.17423 40.025 9.16012 39.9531 9.16016H1.04688C0.975047 9.16012 0.903915 9.17423 0.837546 9.2017C0.771178 9.22917 0.710875 9.26945 0.660084 9.32024C0.609294 9.37103 0.569013 9.43133 0.541545 9.4977C0.514076 9.56407 0.499959 9.6352 0.5 9.70703V16.0105C0.499959 16.0823 0.514076 16.1534 0.541545 16.2198C0.569013 16.2862 0.609294 16.3465 0.660084 16.3973C0.710875 16.448 0.771178 16.4883 0.837546 16.5158C0.903915 16.5433 0.975047 16.5574 1.04688 16.5573H1.10063C1.60019 16.5638 2.07713 16.7667 2.42813 17.1222C2.77913 17.4778 2.97595 17.9573 2.97595 18.4569C2.97595 18.9565 2.77913 19.436 2.42813 19.7915C2.07713 20.147 1.60019 20.35 1.10063 20.3564H1.04688C0.975047 20.3564 0.903915 20.3705 0.837546 20.398C0.771178 20.4254 0.710875 20.4657 0.660084 20.5165C0.609294 20.5673 0.569013 20.6276 0.541545 20.694C0.514076 20.7603 0.499959 20.8315 0.5 20.9033V29.668C0.500413 29.9786 0.624011 30.2765 0.843691 30.4962C1.06337 30.7158 1.3612 30.8394 1.67188 30.8398H25.3438C25.6544 30.8394 25.9523 30.7158 26.1719 30.4962C26.3916 30.2765 26.5152 29.9786 26.5156 29.668V27.7539H28.7031V29.668C28.7035 29.9786 28.8271 30.2765 29.0468 30.4962C29.2665 30.7158 29.5643 30.8394 29.875 30.8398H39.3281C39.6388 30.8394 39.9366 30.7158 40.1563 30.4962C40.376 30.2765 40.4996 29.9786 40.5 29.668V20.9033C40.5 20.8315 40.4859 20.7603 40.4585 20.694C40.431 20.6276 40.3907 20.5673 40.3399 20.5165C40.2891 20.4657 40.2288 20.4254 40.1625 20.398C40.0961 20.3705 40.025 20.3564 39.9531 20.3564H39.8994C39.3998 20.35 38.9229 20.147 38.5719 19.7915C38.2209 19.436 38.0241 18.9565 38.0241 18.4569C38.0241 17.9573 38.2209 17.4778 38.5719 17.1222C38.9229 16.7667 39.3998 16.5638 39.8994 16.5573ZM25.4219 29.668C25.4218 29.6887 25.4135 29.7085 25.3989 29.7231C25.3843 29.7378 25.3644 29.746 25.3438 29.7461H1.67188C1.65118 29.746 1.63136 29.7378 1.61672 29.7231C1.60209 29.7085 1.59383 29.6887 1.59375 29.668V27.7539H25.4219V29.668ZM39.4062 29.668C39.4062 29.6887 39.3979 29.7085 39.3833 29.7231C39.3686 29.7378 39.3488 29.746 39.3281 29.7461H29.875C29.8543 29.746 29.8345 29.7378 29.8198 29.7231C29.8052 29.7085 29.797 29.6887 29.7969 29.668V27.7539H39.4062V29.668ZM39.4062 21.4095V26.6595H1.59375V21.4095C2.29291 21.2932 2.92811 20.9325 3.38631 20.3917C3.84451 19.851 4.09598 19.1652 4.09598 18.4564C4.09598 17.7476 3.84451 17.0618 3.38631 16.5211C2.92811 15.9803 2.29291 15.6197 1.59375 15.5033V10.2533H39.4062V15.5033C38.7071 15.6197 38.0719 15.9803 37.6137 16.5211C37.1555 17.0618 36.904 17.7476 36.904 18.4564C36.904 19.1652 37.1555 19.851 37.6137 20.3917C38.0719 20.9325 38.7071 21.2932 39.4062 21.4095Z" fill="#626878"/>
<path d="M24.3276 11.6602H16.6713C16.5995 11.6601 16.5284 11.6742 16.462 11.7017C16.3956 11.7292 16.3353 11.7695 16.2845 11.8202C16.2337 11.871 16.1935 11.9313 16.166 11.9977C16.1385 12.0641 16.1244 12.1352 16.1245 12.207V24.707C16.1245 24.8521 16.1821 24.9912 16.2846 25.0937C16.3872 25.1963 16.5263 25.2539 16.6713 25.2539H24.3276C24.4726 25.2539 24.6117 25.1963 24.7143 25.0937C24.8168 24.9912 24.8745 24.8521 24.8745 24.707V12.207C24.8745 12.1352 24.8604 12.0641 24.8329 11.9977C24.8054 11.9313 24.7652 11.871 24.7144 11.8202C24.6636 11.7695 24.6033 11.7292 24.5369 11.7017C24.4705 11.6742 24.3994 11.6601 24.3276 11.6602ZM23.7807 24.1602H17.2182V12.7539H23.7807V24.1602ZM34.3251 11.6602H26.8276C26.7558 11.6601 26.6846 11.6742 26.6182 11.7017C26.5519 11.7292 26.4916 11.7695 26.4408 11.8202C26.39 11.871 26.3497 11.9313 26.3222 11.9977C26.2948 12.0641 26.2807 12.1352 26.2807 12.207V24.707C26.2807 24.8521 26.3383 24.9912 26.4409 25.0937C26.5434 25.1963 26.6825 25.2539 26.8276 25.2539H34.3251C34.4701 25.2539 34.6092 25.1963 34.7118 25.0937C34.8143 24.9912 34.872 24.8521 34.872 24.707V12.207C34.872 12.1352 34.8579 12.0641 34.8304 11.9977C34.8029 11.9313 34.7627 11.871 34.7119 11.8202C34.6611 11.7695 34.6008 11.7292 34.5344 11.7017C34.468 11.6742 34.3969 11.6601 34.3251 11.6602ZM33.7782 24.1602H27.3745V12.7539H33.7782V24.1602ZM14.1713 11.6602H6.67383C6.602 11.6601 6.53087 11.6742 6.4645 11.7017C6.39813 11.7292 6.33783 11.7695 6.28704 11.8202C6.23625 11.871 6.19597 11.9313 6.1685 11.9977C6.14103 12.0641 6.12691 12.1352 6.12695 12.207V24.707C6.12695 24.8521 6.18457 24.9912 6.28713 25.0937C6.38969 25.1963 6.52879 25.2539 6.67383 25.2539H14.1713C14.3164 25.2539 14.4555 25.1963 14.558 25.0937C14.6606 24.9912 14.7182 24.8521 14.7182 24.707V12.207C14.7182 12.1352 14.7041 12.0641 14.6767 11.9977C14.6492 11.9313 14.6089 11.871 14.5581 11.8202C14.5073 11.7695 14.447 11.7292 14.3807 11.7017C14.3143 11.6742 14.2432 11.6601 14.1713 11.6602ZM13.6245 24.1602H7.2207V12.7539H13.6245V24.1602Z" fill="#626878"/>
</g>
<defs>
<clipPath id="clip0_1558_11433">
<rect width="40" height="40" fill="white" transform="translate(0.5)"/>
</clipPath>
</defs>
</svg>
