<svg width="41" height="40" viewBox="0 0 41 40" fill="none" xmlns="http://www.w3.org/2000/svg">
<path d="M6.33398 11.6673V28.334C6.33398 33.334 8.78398 36.6673 14.6673 36.6673H26.334C32.1173 36.6673 34.6673 33.334 34.6673 28.334V26.384C34.6673 25.5007 34.3173 24.6507 33.684 24.034L32.3007 22.6507C31.6673 22.0173 31.3173 21.184 31.3173 20.3007V16.6673C31.3173 15.7507 32.0673 15.0007 32.984 15.0007C33.9007 15.0007 34.6507 14.2507 34.6507 13.334V11.6673C34.6507 6.66732 32.1007 3.33398 26.3173 3.33398H14.6507C8.78398 3.33398 6.33398 6.66732 6.33398 11.6673Z" stroke="#626878" stroke-width="1.5" stroke-linecap="round" stroke-linejoin="round"/>
<path d="M13.8174 36.6173L13.8008 31.6673C13.8008 29.8173 15.2841 28.334 17.1341 28.334H23.8174C25.6508 28.334 27.1341 29.8173 27.1508 31.6506L27.2008 36.634" stroke="#626878" stroke-width="1.5" stroke-linecap="round" stroke-linejoin="round"/>
<path d="M15.4004 8.25026L15.4837 3.43359" stroke="#626878" stroke-width="1.5" stroke-linecap="round" stroke-linejoin="round"/>
<path d="M20.4004 8.25026L20.4837 3.43359" stroke="#626878" stroke-width="1.5" stroke-linecap="round" stroke-linejoin="round"/>
<path d="M25.4004 8.20039L25.4837 3.40039" stroke="#626878" stroke-width="1.5" stroke-linecap="round" stroke-linejoin="round"/>
</svg>
