<svg width="25" height="17" viewBox="0 0 25 17" fill="none" xmlns="http://www.w3.org/2000/svg">
<path d="M24.8306 14.5319C24.8333 14.8472 24.7739 15.16 24.6557 15.4524C24.5376 15.7447 24.3629 16.0109 24.1418 16.2358C23.9207 16.4606 23.6574 16.6397 23.367 16.7627C23.0767 16.8858 22.7649 16.9504 22.4496 16.9529H2.61156C2.29622 16.9504 1.98445 16.8858 1.69409 16.7627C1.40373 16.6397 1.14046 16.4606 0.919336 16.2358C0.698211 16.0109 0.523566 15.7447 0.405381 15.4524C0.287197 15.16 0.227792 14.8472 0.230561 14.5319V2.46886C0.227792 2.15351 0.287197 1.84071 0.405381 1.54834C0.523566 1.25597 0.698211 0.989755 0.919336 0.764915C1.14046 0.540076 1.40373 0.361022 1.69409 0.237984C1.98445 0.114946 2.29622 0.050336 2.61156 0.0478516H22.4536C23.0897 0.0539239 23.6975 0.312346 24.1432 0.766319C24.5889 1.22029 24.8362 1.83267 24.8306 2.46886V14.5319Z" fill="#009966"/>
<path d="M2.61133 0.0478516H22.4533C22.7687 0.050336 23.0804 0.114946 23.3708 0.237984C23.6612 0.361022 23.9244 0.540076 24.1456 0.764915C24.3667 0.989755 24.5413 1.25597 24.6595 1.54834C24.7777 1.84071 24.8371 2.15351 24.8343 2.46886V14.5319C24.8386 15.1679 24.5902 15.7796 24.1438 16.2326C23.6973 16.6856 23.0893 16.9428 22.4533 16.9479" fill="#038E5C"/>
<path d="M24.8306 14.5317C24.8333 14.8471 24.7739 15.1599 24.6557 15.4522C24.5376 15.7446 24.3629 16.0108 24.1418 16.2357C23.9207 16.4605 23.6574 16.6396 23.367 16.7626C23.0767 16.8856 22.7649 16.9502 22.4496 16.9527H2.61156C2.29622 16.9502 1.98445 16.8856 1.69409 16.7626C1.40373 16.6396 1.14046 16.4605 0.919336 16.2357C0.698211 16.0108 0.523566 15.7446 0.405381 15.4522C0.287197 15.1599 0.227792 14.8471 0.230561 14.5317" fill="#007A54"/>
<path d="M2.61133 0.0478516H22.4533C22.7687 0.050336 23.0804 0.114946 23.3708 0.237984C23.6612 0.361022 23.9244 0.540076 24.1456 0.764915C24.3667 0.989755 24.5413 1.25597 24.6595 1.54834C24.7777 1.84071 24.8371 2.15351 24.8343 2.46886V6.86885" fill="#007A54"/>
<path d="M3.24829 3.8981C3.40729 3.7791 3.40729 4.0981 3.24829 4.4541C3.37978 4.28188 3.45015 4.07076 3.4483 3.85409C3.4083 3.57609 3.24829 3.6161 3.13129 3.7751C3.04929 3.8981 3.08929 3.9771 3.24829 3.8981Z" fill="white"/>
<path d="M3.28736 6.15688C3.48736 5.79988 3.40636 5.52188 3.56536 5.00588C3.68436 4.68888 3.68436 4.92688 3.68436 5.12488C3.60536 5.64088 3.64436 6.47388 4.35936 6.43488C4.39936 6.91088 4.51836 7.74488 4.51836 8.06188C4.51836 8.33988 4.55836 8.26187 4.63736 8.10187C4.69375 7.90709 4.70739 7.70243 4.67736 7.50188C4.67736 7.26388 4.63736 6.82688 4.59836 6.23188C4.68888 6.1494 4.76882 6.05602 4.83636 5.95388C4.91536 5.75388 4.95536 5.79488 4.99536 5.95388C5.07436 6.27088 5.39536 6.46988 5.78936 6.15388C6.18936 5.87588 6.02736 5.32088 5.82936 4.72488C5.98836 4.76488 6.02936 4.64588 5.94836 4.48688C5.90836 4.40788 5.82936 4.32788 5.78936 4.24888C5.71036 4.16988 5.67036 4.08988 5.58936 4.16988C5.50836 4.24988 5.47036 4.32888 5.43036 4.36988C5.39036 4.41088 5.39036 4.48889 5.43036 4.60789C5.55693 4.91432 5.65013 5.23349 5.70836 5.55988C5.74836 5.75988 5.66836 5.79787 5.50836 5.79787C5.38936 5.79787 5.19136 5.75788 5.10836 5.44088C5.0277 5.22561 5.00059 4.99395 5.02936 4.76588C5.04825 4.66997 5.04744 4.57123 5.02698 4.47565C5.00653 4.38007 4.96685 4.28965 4.91036 4.20988C4.75136 4.00988 4.75136 4.05088 4.71036 4.13088C4.65405 4.28297 4.64022 4.44752 4.67036 4.60688C4.74936 4.88488 4.78936 5.12288 4.82936 5.28188C4.83229 5.3793 4.80778 5.47558 4.75862 5.55974C4.70947 5.64391 4.63765 5.71256 4.55136 5.75788C4.51136 5.35788 4.47236 4.88488 4.43236 4.44788C4.67036 4.36888 4.55136 4.09088 4.35336 3.77288C4.23436 3.53488 4.15336 3.61388 4.07536 3.77288C4.04261 3.82873 4.02881 3.89368 4.03602 3.95803C4.04323 4.02237 4.07106 4.08265 4.11536 4.12987C4.07536 4.24887 4.15536 4.40787 4.19436 4.68587C4.24925 5.06705 4.27566 5.45178 4.27336 5.83687C4.19368 5.82898 4.11786 5.79869 4.05468 5.74949C3.9915 5.70029 3.94355 5.6342 3.91636 5.55887C3.80601 5.30809 3.79178 5.02549 3.87636 4.76488C3.95536 4.56488 3.99536 4.28888 3.87636 4.20888C3.75736 4.12888 3.63836 4.20888 3.55936 4.36788C3.36649 4.63457 3.25626 4.95205 3.24236 5.28088C3.24089 5.45951 3.20027 5.63565 3.12336 5.79688C3.08336 5.91588 2.96436 5.91587 2.88536 5.75687C2.73573 5.37869 2.66758 4.9732 2.68536 4.56689C2.68536 4.40789 2.64536 4.36689 2.60636 4.56689C2.49858 5.08694 2.55411 5.62759 2.76536 6.11487C2.96936 6.47587 3.16836 6.39688 3.28736 6.15688Z" fill="white"/>
<path d="M5.1928 4.09483C5.2718 4.01583 5.27179 4.01583 5.31179 4.09483C5.32113 4.11334 5.33542 4.1289 5.35307 4.13976C5.37073 4.15063 5.39106 4.15638 5.41179 4.15638C5.43252 4.15638 5.45285 4.15063 5.47051 4.13976C5.48816 4.1289 5.50246 4.11334 5.5118 4.09483C5.53853 4.06203 5.55627 4.02284 5.56328 3.98112C5.57029 3.93939 5.56633 3.89656 5.55179 3.85682C5.51179 3.77782 5.5118 3.81681 5.4728 3.89681C5.4328 4.05581 5.27279 4.01582 5.27279 3.81782C5.27279 3.61982 5.23279 3.73883 5.15379 3.85783C5.07479 4.05783 4.95379 4.01682 4.95379 3.81782C4.95379 3.69882 4.91379 3.57982 4.83479 3.73882C4.80606 3.84565 4.82043 3.95949 4.8748 4.05583C4.9948 4.17483 5.1138 4.17483 5.1928 4.09483Z" fill="white"/>
<path d="M4.00109 7.07174C4.12009 7.03174 4.12009 7.03175 4.12009 6.87175C4.12009 6.71175 4.04109 6.79275 3.88209 6.83175C3.46503 6.98459 3.09562 7.24466 2.81109 7.58575C2.65209 7.78575 2.77109 7.70474 2.89009 7.62574C3.2306 7.38651 3.60511 7.19976 4.00109 7.07174Z" fill="white"/>
<path d="M3.20865 9.61173C3.08965 9.81173 2.85165 9.53273 3.00865 9.01173C3.04819 8.92333 3.07479 8.82971 3.08765 8.73373V8.45573C3.08765 8.37673 3.00865 8.49572 2.96865 8.65572C2.83213 9.00922 2.77776 9.38913 2.80965 9.76673C2.84965 10.2037 3.36565 10.2037 3.40965 9.64773C3.40665 9.41273 3.32765 9.41273 3.20865 9.61173Z" fill="white"/>
<path d="M6.73903 7.9451C6.73903 7.7451 6.69903 7.54509 6.69903 7.34509C6.73903 7.34509 6.73903 7.3051 6.77803 7.3051C6.89703 7.6621 7.41303 7.58309 7.57203 7.34509C7.65103 7.22609 7.65104 7.22609 7.73104 7.34509C7.85004 7.50409 8.24703 7.58309 8.33103 7.34509C8.40156 7.14094 8.41538 6.92149 8.37104 6.7101C8.33104 6.5101 8.29203 6.55111 8.17103 6.63111C8.05003 6.71111 8.13103 6.7501 8.17103 6.8691C8.21103 7.3451 7.81403 7.3061 7.77103 6.8291C7.73103 6.5121 7.69203 6.62909 7.65203 6.78909C7.45203 7.38909 6.93803 7.50309 7.01703 6.78909C7.01703 6.58909 6.89803 6.6701 6.81703 6.7491L6.65803 6.9081C6.61803 6.3521 6.57903 5.7171 6.49903 4.9241C6.65803 5.1241 6.81603 4.8841 6.69903 4.6861C6.62003 4.5271 6.49903 4.1301 6.42103 3.9321C6.34303 3.7341 6.30203 3.77309 6.14303 3.97209C5.98403 4.13109 6.02404 4.1721 6.06404 4.3721C6.05893 4.6651 6.08541 4.95779 6.14303 5.2451C6.18303 5.5621 6.26204 6.2371 6.34304 7.0701C6.26404 7.1101 6.14304 7.1891 6.06504 7.2291C6.02504 7.0701 5.90603 6.9911 5.74803 6.8291C5.51003 6.5911 5.34804 6.5911 5.14804 6.8691C5.07671 6.94986 5.0252 7.04615 4.9976 7.1503C4.97 7.25446 4.96707 7.36362 4.98903 7.4691C4.98903 7.7071 4.94904 7.7861 5.14804 7.8691C5.21028 7.89964 5.2787 7.91553 5.34803 7.91553C5.41737 7.91553 5.48578 7.89964 5.54803 7.8691C5.66266 7.81736 5.78229 7.77748 5.90503 7.75009C5.92285 7.81145 5.92496 7.87631 5.91116 7.93869C5.89735 8.00108 5.86808 8.05899 5.82603 8.1071C5.35003 8.6631 4.63603 9.09909 4.31803 8.70709C4.13669 8.4397 4.06508 8.11282 4.11803 7.7941C4.15803 7.4771 4.07803 7.6351 4.03903 7.7151C3.8997 8.09988 3.8997 8.52132 4.03903 8.9061C4.23903 9.3061 4.59503 9.4621 5.15003 9.1841C5.43216 9.09849 5.68343 8.93299 5.8735 8.70761C6.06356 8.48223 6.18428 8.20662 6.22103 7.91409V7.63609C6.29275 7.6056 6.36002 7.56557 6.42103 7.51709V8.19209C6.45011 8.39173 6.42061 8.59551 6.33612 8.7787C6.25162 8.9619 6.11576 9.11662 5.94503 9.22409C5.60855 9.47887 5.21218 9.6428 4.79403 9.70011C3.92103 9.81911 3.72303 9.2631 3.72303 8.5101C3.72303 8.3911 3.76303 8.31009 3.76303 8.15309C3.76303 7.83609 3.72303 7.8751 3.60403 8.1931C3.45541 8.7299 3.48311 9.30023 3.68303 9.8201C4.00003 10.4201 5.03203 10.2571 5.82603 9.86009C6.16956 9.68795 6.44588 9.40616 6.61125 9.05931C6.77661 8.71246 6.82158 8.32038 6.73903 7.9451ZM5.62803 7.34509C5.42803 7.42409 5.35003 7.3051 5.39003 7.1861C5.39003 7.0671 5.43003 6.98609 5.59003 7.06709C5.68821 7.12502 5.77011 7.20692 5.82804 7.3051C5.76486 7.33261 5.69692 7.34754 5.62803 7.34909V7.34509Z" fill="white"/>
<path d="M7.65057 8.61962C7.73725 8.46243 7.76526 8.27954 7.72958 8.10362C7.68958 7.98462 7.72958 7.94463 7.61058 7.86563C7.49158 7.82563 7.45158 7.90563 7.41058 7.98463C7.37058 8.10363 7.45058 8.26263 7.61058 8.18463C7.63578 8.31904 7.6219 8.45786 7.57059 8.58462C7.53159 8.73862 7.57157 8.77762 7.65057 8.61962Z" fill="white"/>
<path d="M7.96949 5.40489C7.81049 5.60489 7.69148 5.88089 7.92948 6.03989C8.04848 6.11889 8.28649 5.99989 8.36649 5.83989C8.44549 5.63989 8.40649 5.6019 8.24749 5.7999C8.04749 6.0379 7.81049 5.8399 8.04749 5.4829C8.20949 5.2459 8.08849 5.20689 7.96949 5.40489Z" fill="white"/>
<path d="M7.29399 5.44496C7.71916 5.28644 8.08133 4.9941 8.32599 4.61195C8.48499 4.65195 8.52599 4.53295 8.44499 4.41195C8.47734 4.31632 8.51712 4.22337 8.56398 4.13395C8.68298 3.61795 8.16399 3.57796 8.04799 3.97496C7.99954 4.05686 7.98093 4.15299 7.99533 4.24705C8.00973 4.34111 8.05625 4.42729 8.12698 4.49095C7.86678 4.82783 7.54343 5.11078 7.17499 5.32396C7.01699 5.48396 7.05599 5.56396 7.29399 5.44496ZM8.24599 4.05595C8.28599 3.93695 8.36499 4.01594 8.36499 4.09594C8.3553 4.1557 8.32775 4.21114 8.28598 4.25496C8.20698 4.21396 8.20599 4.13495 8.24599 4.05595Z" fill="white"/>
<path d="M8.04568 3.97571C7.99724 4.05761 7.97863 4.15376 7.99303 4.24782C8.00743 4.34188 8.05395 4.42806 8.12468 4.49171C8.08468 4.53171 8.04568 4.61071 8.00568 4.65071L8.20567 4.80971C8.24567 4.73071 8.32468 4.69071 8.36468 4.60971C8.52368 4.64971 8.56467 4.53071 8.48367 4.40971C8.51602 4.31408 8.55581 4.22113 8.60268 4.13171C8.68168 3.61871 8.20568 3.57871 8.04568 3.97571ZM8.36269 4.09471C8.353 4.15447 8.32545 4.20989 8.28368 4.25371C8.20468 4.21371 8.20468 4.13471 8.24368 4.05371C8.28468 3.93671 8.36468 4.01571 8.36468 4.09071L8.36269 4.09471Z" fill="#CFE7E8"/>
<path d="M8.64296 8.61973C8.54082 8.68727 8.44744 8.76722 8.36496 8.85774C8.36496 8.69874 8.40496 8.45772 8.40496 8.38172C8.40496 8.26272 8.36497 8.22273 8.28597 8.34173C8.15831 8.59282 8.06481 8.85986 8.00797 9.13574C7.50436 9.48223 6.97364 9.78754 6.42096 10.0487C6.22096 10.1277 6.34196 10.2077 6.49996 10.1677C7.01184 10.0084 7.51517 9.82281 8.00797 9.61174C8.04797 9.96874 8.16697 10.2117 8.48397 10.2867C9.08397 10.4457 9.67396 9.92973 10.349 9.01673C10.4721 9.34603 10.687 9.63314 10.9683 9.84405C11.2495 10.055 11.5854 10.1808 11.936 10.2067C12.373 10.2857 12.336 10.2467 12.412 10.0067C12.452 9.80672 12.531 9.76874 12.174 9.68974C11.737 9.53074 11.574 9.21374 12.015 9.01473C12.4751 8.82046 12.9539 8.67401 13.444 8.57772C13.722 8.53772 13.801 8.53772 13.881 8.29972C13.96 8.02172 14 7.98272 13.722 8.02172C12.9826 8.07545 12.2408 8.08881 11.5 8.06173C11.817 7.90273 12.254 7.74474 12.571 7.62474C12.69 7.70374 12.73 7.66473 12.69 7.58473C12.8158 7.54857 12.9359 7.49506 13.047 7.42573C13.404 7.22573 13.563 6.79074 13.166 6.51274C12.769 6.23474 12.452 6.15573 12.253 6.43373C12.094 6.67173 11.936 6.90973 12.174 7.22773C11.817 7.34673 11.499 7.46573 11.182 7.58473C10.944 7.66373 10.825 7.70372 10.745 8.02172C10.665 8.33972 10.626 8.33873 10.945 8.37873C11.3318 8.32491 11.7252 8.40918 12.056 8.61672C11.619 8.77572 11.302 9.09273 11.456 9.52973C11.247 9.49483 11.0533 9.39798 10.9 9.25173C10.583 8.93473 10.583 8.37872 10.463 7.74372C10.3574 7.24595 10.1838 6.76511 9.94696 6.31474C9.86796 6.07674 9.82797 6.19573 9.74697 6.35473C9.69358 6.42037 9.65822 6.49879 9.64437 6.58226C9.63051 6.66572 9.63865 6.75136 9.66796 6.83073C9.86919 7.37692 10.0414 7.93337 10.184 8.49774C10.0566 8.80087 9.86719 9.074 9.62799 9.2996C9.38878 9.5252 9.10503 9.69829 8.79496 9.80773C8.39496 9.88673 8.27897 9.64872 8.31897 9.45072C8.59636 9.28586 8.85002 9.08402 9.07296 8.85073C9.30665 8.63101 9.4578 8.3377 9.50112 8.01988C9.54445 7.70205 9.47731 7.37899 9.31096 7.10473C9.51096 7.14473 9.4713 6.98607 9.19197 6.62873C8.99197 6.39073 8.95396 6.42873 8.83496 6.66873C8.75596 6.86873 8.67597 7.02572 8.91397 7.10572C8.97686 7.27209 9.05661 7.4316 9.15197 7.58174C9.39697 8.10374 8.99996 8.29773 8.64296 8.61973ZM12.413 6.87373C12.413 6.75473 12.453 6.75473 12.651 6.87373C12.849 6.99273 13.008 7.03273 12.73 7.07373C12.651 7.11373 12.53 7.11374 12.452 7.15274C12.4614 7.05787 12.4487 6.96212 12.413 6.87373Z" fill="white"/>
<path d="M13.6826 8.02448C13.4826 8.02448 12.6116 8.06449 12.0156 8.06449L12.8096 8.73949C13.0057 8.67271 13.2062 8.61957 13.4096 8.58048C13.6876 8.54048 13.7666 8.54048 13.8466 8.30248C13.9156 8.02448 13.9596 7.98548 13.6826 8.02448Z" fill="#CFE7E8"/>
<path d="M9.79492 6.15918L9.87392 6.23817C9.87392 6.15917 9.83492 6.15918 9.79492 6.15918Z" fill="#CFE7E8"/>
<path d="M11.8198 7.86628C12.0578 7.74728 12.3358 7.66628 12.5338 7.58828C12.6528 7.66728 12.6928 7.62827 12.6528 7.54827C12.7786 7.5121 12.8988 7.45859 13.0098 7.38928C13.3668 7.18928 13.5258 6.75428 13.1288 6.47628C12.7318 6.19828 12.4148 6.11927 12.2158 6.39727C12.0568 6.63527 11.8988 6.87328 12.1368 7.19128C11.8772 7.2598 11.6248 7.35289 11.3828 7.46928L11.8198 7.86628ZM12.6928 6.87428C12.8928 6.99328 13.0498 7.03327 12.7718 7.07427C12.6928 7.11427 12.5718 7.11428 12.4938 7.15328C12.4668 7.07686 12.4533 6.99633 12.4538 6.91528C12.4148 6.75428 12.4938 6.75528 12.6928 6.87428Z" fill="#CFE7E8"/>
<path d="M13.3261 10.0901C13.4965 10.0191 13.6565 9.92555 13.8021 9.81212C13.9611 9.65312 13.8421 9.69311 13.7231 9.73311C13.5927 9.79306 13.4591 9.84616 13.3231 9.89213C13.1641 9.97113 13.1231 9.89212 13.2041 9.61412C13.2831 9.37612 13.2041 9.37611 13.0851 9.41411C12.9661 9.45211 12.9261 9.53312 12.8071 9.61412C12.7281 9.65412 12.7281 9.73313 12.9261 9.65413C13.0851 9.57513 13.0451 9.65411 13.0051 9.85411C12.9291 10.0481 13.0481 10.1671 13.3261 10.0901Z" fill="white"/>
<path d="M9.63671 5.76211C9.75571 5.48411 9.83671 5.20611 9.91471 5.00811C9.99271 4.81011 10.0737 4.84912 10.0337 5.04812C9.99372 5.40512 9.99372 5.96112 10.3507 6.19912C10.7077 6.39912 11.2637 6.04012 11.4617 5.64312C12.0617 6.39712 12.5727 6.04312 12.6127 5.32612C12.6056 5.02861 12.5519 4.73405 12.4537 4.45312C12.3747 4.29412 12.4537 4.29411 12.5327 4.37411C12.6117 4.45411 12.7707 4.53312 12.6917 4.25512C12.629 4.06019 12.5202 3.88321 12.3747 3.73911C12.2557 3.62011 12.2157 3.69911 12.1747 3.77911C12.1504 3.8538 12.1098 3.92213 12.0557 3.97912C11.9767 4.05812 12.0157 4.09811 12.0557 4.21711C12.2937 4.77311 12.4927 5.60611 12.1347 5.68511C11.8177 5.76411 11.6187 5.05012 11.6187 4.73312C11.6177 4.39619 11.5641 4.06148 11.4597 3.74111C11.3807 3.50311 11.3407 3.50311 11.2597 3.62211C11.2197 3.70111 11.2197 3.78112 11.1407 3.86012C11.1007 3.93912 11.1407 3.97912 11.1807 4.13812C11.3807 5.05112 11.3397 5.44812 10.9427 5.68612C10.5457 5.92412 10.3077 5.68612 10.3077 5.40812C10.3003 5.11654 10.3137 4.8248 10.3477 4.53512C10.3877 4.29712 10.4267 4.21811 10.3477 4.09811C10.2687 3.97811 10.1887 4.01912 10.0697 4.17712C9.82133 4.56169 9.6199 4.97463 9.46972 5.40711C9.39072 5.68511 9.19171 5.60712 9.06971 5.36712C8.94659 5.03745 8.91921 4.67967 8.99072 4.33511C9.03072 4.13511 9.03072 4.05711 8.91172 4.25611C8.79232 4.51503 8.75122 4.80321 8.79351 5.08518C8.8358 5.36715 8.95961 5.63061 9.14971 5.84312C9.35871 6.19812 9.51771 6.03911 9.63671 5.76211Z" fill="#CFE7E8"/>
<path d="M10.7483 4.69121C10.7483 4.81021 10.7484 4.96922 10.8274 4.73122C10.8747 4.48032 10.8609 4.2217 10.7873 3.97721C10.7083 3.77721 10.6683 3.73921 10.5873 3.81821C10.5063 3.89721 10.5083 3.93721 10.5873 4.01821C10.7147 4.21824 10.7714 4.45519 10.7483 4.69121Z" fill="#CFE7E8"/>
<path d="M11.5846 6.55297C11.5846 6.86997 11.5056 6.86997 11.3846 6.55297C11.3446 6.43397 11.3056 6.43398 11.2656 6.59298C11.2656 6.87098 11.1466 6.90997 11.0656 6.63297C11.0256 6.51397 11.0256 6.39498 10.9866 6.59298C10.9682 6.66125 10.9657 6.73283 10.9794 6.80219C10.9931 6.87155 11.0226 6.93682 11.0656 6.99297C11.1446 7.07197 11.2656 7.07198 11.3036 6.95298C11.3416 6.83398 11.3826 6.83397 11.4626 6.91297C11.5426 6.99197 11.8626 6.91298 11.7006 6.47598C11.6216 6.31798 11.5846 6.35297 11.5846 6.55297Z" fill="#CFE7E8"/>
<path d="M14.7955 4.05604C14.8733 4.11513 14.9332 4.19465 14.9685 4.28575C15.0038 4.37685 15.0132 4.47596 14.9955 4.57205C14.9555 4.77205 14.9955 4.88904 15.1145 4.61204C15.1625 4.48239 15.1804 4.34351 15.1667 4.20593C15.153 4.06835 15.1081 3.9357 15.0355 3.81805C14.9165 3.61805 14.8765 3.69904 14.7975 3.77804C14.7165 3.89704 14.6765 4.01604 14.7955 4.05604Z" fill="#CFE7E8"/>
<path d="M12.7704 4.17383C12.7704 4.29283 12.8104 4.37382 12.9704 4.41182C13.2874 4.84882 13.6454 5.32482 13.9624 5.76082C14.0024 6.16082 14.0814 6.55482 14.1214 6.91182C14.2528 7.68478 14.2927 8.47052 14.2404 9.25282C14.1614 9.60982 14.2404 9.72881 14.3994 9.21281C14.5553 8.62925 14.569 8.01679 14.4394 7.42682C14.3994 7.10982 14.3994 6.75182 14.3604 6.35582C14.8316 7.04727 15.243 7.77757 15.5904 8.53882C15.7094 8.85582 15.8284 8.89583 15.7094 8.49883C15.3746 7.53075 14.8926 6.62006 14.2804 5.79883C14.249 5.50894 14.2356 5.21738 14.2404 4.92583C14.3594 5.04483 14.4404 4.96582 14.3994 4.80682C14.3113 4.50973 14.2055 4.2182 14.0824 3.93382C14.0424 3.77482 13.8824 3.77482 13.8044 3.97382C13.7254 4.21182 13.7254 4.25183 13.8044 4.41083C13.8151 4.66355 13.8415 4.91537 13.8834 5.16483C13.7381 4.93068 13.5791 4.70528 13.4074 4.48982C13.6074 4.56882 13.7644 4.52983 13.5664 4.28983C13.3664 4.08983 13.0904 3.85282 12.9314 3.68982C12.7724 3.52682 12.6934 3.64981 12.6934 3.76881C12.7704 3.97581 12.8104 4.05483 12.7704 4.17383Z" fill="#CFE7E8"/>
<path d="M15.0329 5.28605C14.9929 5.48605 14.9139 5.40505 14.8739 5.24605C14.8339 5.16705 14.7949 5.20606 14.7949 5.36506C14.8349 5.52406 14.8739 5.64305 14.9949 5.52405C15.0739 5.44505 15.0739 5.44505 15.1949 5.52405C15.2739 5.60305 15.3539 5.52406 15.3949 5.48406C15.4179 5.37964 15.4179 5.27148 15.3949 5.16706C15.3549 4.96706 15.3159 5.08805 15.2759 5.24605C15.2359 5.40405 15.1569 5.44605 15.1169 5.24605C15.1119 5.08705 15.0329 5.12705 15.0329 5.28605Z" fill="#CFE7E8"/>
<path d="M15.9466 7.86493C15.9866 8.57893 16.0656 8.89692 15.6296 9.41292C15.3788 9.74575 15.0329 9.9947 14.6376 10.1269C14.3596 10.2059 14.2806 10.3269 14.6776 10.2859C15.2776 10.2459 15.3526 10.2459 15.8676 9.65092C16.1456 9.33392 16.2676 8.93693 16.2676 7.98393C16.2276 6.31693 16.0297 5.60292 16.0297 4.68992C16.1087 4.76892 16.2297 4.76893 16.1887 4.61093C16.1171 4.40435 16.0639 4.19185 16.0297 3.97592C15.9507 3.77592 15.9106 3.69792 15.8296 3.81692C15.7486 3.93592 15.6706 3.97593 15.6296 4.05493C15.6 4.1025 15.5843 4.1574 15.5843 4.21342C15.5843 4.26945 15.6 4.32435 15.6296 4.37192C15.8676 6.31692 15.9086 7.15093 15.9466 7.86493Z" fill="#CFE7E8"/>
<path d="M16.9786 8.06036C17.0583 8.43989 17.0583 8.83183 16.9786 9.21136C16.9386 9.33036 17.0186 9.41136 17.0976 9.21136C17.318 8.682 17.3459 8.09218 17.1766 7.54435C17.1366 6.94435 16.8986 5.40135 16.8596 4.76635L16.8996 4.80635C17.0586 4.88535 17.2566 4.96535 17.1376 4.72735C17.0082 4.47279 16.9021 4.20705 16.8206 3.93336C16.7416 3.69536 16.7016 3.69535 16.5826 3.89335C16.3446 4.21035 16.5036 4.52835 16.5826 4.92535C16.7406 6.27835 16.9396 7.66736 16.9786 8.06036Z" fill="#CFE7E8"/>
<path d="M17.8132 5.84208C17.9204 5.99174 18.0135 6.1511 18.0911 6.31808C18.1701 6.51808 18.2501 6.35807 18.2501 6.23907C18.23 6.03958 18.23 5.83857 18.2501 5.63908C18.3291 5.43908 18.4501 5.71807 18.4881 5.59907C18.5281 5.52007 18.4482 5.48007 18.4092 5.39907C18.3692 5.28007 18.3301 5.32008 18.2501 5.35908C18.1896 5.41088 18.1478 5.48115 18.1311 5.55907V5.99607C18.1311 6.15507 18.0911 6.15507 18.0521 6.07507C17.9971 5.90539 17.9169 5.74493 17.8142 5.59907C17.7997 5.57912 17.779 5.56455 17.7554 5.55766C17.7317 5.55076 17.7064 5.55193 17.6835 5.56098C17.6606 5.57003 17.6413 5.58646 17.6288 5.60766C17.6162 5.62886 17.6111 5.65363 17.6141 5.67808V5.87807C17.6131 5.96107 17.7722 5.96108 17.8132 5.84208Z" fill="#CFE7E8"/>
<path d="M17.7305 7.38933C17.7305 7.50833 17.8895 7.34935 18.0085 7.27035C18.1275 7.19135 18.4845 6.95334 18.6435 6.87034C18.8025 6.78734 18.7625 6.75134 18.7225 6.59234C18.7225 6.43334 18.6035 6.55235 18.4845 6.67135C18.3655 6.79035 18.0085 7.02834 17.8845 7.14734C17.7605 7.26634 17.7305 7.30933 17.7305 7.38933Z" fill="#CFE7E8"/>
<path d="M16.8995 9.53224C16.7734 9.24528 16.7188 8.93195 16.7405 8.61923C16.7405 8.38123 16.7005 8.18224 16.6215 8.57924C16.3835 9.53124 16.5425 9.73023 16.7805 9.92823C17.0975 10.2062 17.2165 10.2452 17.3805 9.96823C17.6975 9.49223 17.8176 9.09523 17.9806 8.85723C18.1396 8.65724 18.1395 8.81723 18.2185 8.89723C18.2925 8.9989 18.3875 9.08344 18.4971 9.14505C18.6067 9.20666 18.7282 9.2439 18.8535 9.25424C19.1315 9.29424 19.6075 9.05424 19.5675 8.18324C19.5275 7.62724 19.4885 6.91323 19.4485 6.11923C19.7265 6.47623 19.9245 6.79424 20.1235 7.07124C20.1958 7.51743 20.2356 7.96828 20.2425 8.42024C20.2025 8.85724 20.3215 8.85724 20.4015 8.42024C20.443 8.09087 20.443 7.7576 20.4015 7.42823C20.6534 7.73982 20.8791 8.07161 21.0765 8.42024C21.2355 8.69824 21.3145 8.89623 21.2765 8.38023C21.2765 8.18023 21.1975 8.02323 20.9595 7.66623C20.7215 7.34923 20.5235 7.03123 20.3245 6.71423C20.2455 5.96023 20.1656 5.12723 20.1656 4.69023C20.2846 4.76923 20.3655 4.69023 20.2845 4.53123C20.2235 4.26142 20.144 3.99612 20.0465 3.73722C19.9675 3.57822 19.8875 3.57823 19.8085 3.77723C19.7295 3.93623 19.6495 4.01523 19.6895 4.13423C19.723 4.83867 19.8025 5.54017 19.9275 6.23423C19.7275 5.95623 19.5275 5.67823 19.3715 5.44023C19.3715 5.16223 19.3315 4.88423 19.3315 4.60723C19.4505 4.68623 19.4905 4.68623 19.4505 4.48823C19.3752 4.24384 19.2823 4.00521 19.1725 3.77423C19.0935 3.61523 19.0535 3.61523 18.9725 3.73423C18.9088 3.81122 18.8707 3.90616 18.8636 4.00583C18.8564 4.10549 18.8805 4.20492 18.9326 4.29023C18.9326 4.49023 18.9725 4.64723 18.9725 4.84623C18.8764 4.69385 18.7706 4.54788 18.6555 4.40924C18.7745 4.44924 18.8556 4.36923 18.7346 4.25023C18.6136 4.13122 18.3775 3.93323 18.2585 3.81323C18.1395 3.65423 18.0585 3.69423 18.0585 3.81323V4.17024C18.0509 4.31331 18.0929 4.45462 18.1775 4.57023C18.4555 4.92723 18.7776 5.28423 19.0106 5.64123C19.1296 6.91123 19.1696 7.74123 19.1696 8.26023C19.1696 8.57723 19.0505 8.73623 18.8915 8.77623C18.7325 8.81623 18.5746 8.73623 18.4156 8.49823C18.1376 8.09823 18.0155 8.18123 17.8155 8.53823C17.6155 8.89523 17.4585 9.17324 17.3395 9.41124C17.2565 9.65124 17.0585 9.84924 16.8995 9.53224Z" fill="#CFE7E8"/>
<path d="M20.7111 5.12825C20.7111 5.36625 20.7901 5.32825 20.8301 5.12825C20.8812 4.84861 20.8538 4.56031 20.7511 4.29526C20.6321 4.01726 20.5921 4.13625 20.5511 4.21625C20.4721 4.33525 20.4721 4.37525 20.5911 4.49425C20.6612 4.69875 20.7017 4.91226 20.7111 5.12825Z" fill="#CFE7E8"/>
<path d="M21.7803 7.58813C21.7013 5.92113 21.5023 5.20713 21.5423 4.57213C21.701 4.69147 21.7406 4.6518 21.6613 4.45313C21.5823 4.25313 21.4613 4.01613 21.3833 3.77813C21.3043 3.57813 21.2643 3.61913 21.1453 3.77813C21.099 3.82358 21.0668 3.88153 21.0528 3.94491C21.0388 4.00828 21.0435 4.07436 21.0663 4.13512C21.3043 6.15912 21.4233 7.23513 21.4663 7.86513C21.5189 8.26179 21.448 8.66501 21.2634 9.01998C21.0787 9.37495 20.7893 9.66445 20.4343 9.84913C20.1563 10.0491 19.8343 10.2491 20.5133 10.0871C21.1453 9.88913 21.8603 9.45213 21.7803 7.58813Z" fill="#CFE7E8"/>
<path d="M19.5587 9.33412C19.4397 9.49312 19.7177 9.57211 19.7587 9.45311C19.8377 9.57211 19.7587 9.77012 19.6397 9.89012C19.4397 10.0491 19.5607 10.0901 19.6797 9.9691C19.7987 9.8901 20.1167 9.53311 19.9177 9.29411C19.8917 9.27259 19.8617 9.25653 19.8294 9.24687C19.7971 9.23721 19.7632 9.23413 19.7297 9.23787C19.6962 9.2416 19.6638 9.25207 19.6344 9.2686C19.605 9.28513 19.5793 9.30742 19.5587 9.33412Z" fill="#CFE7E8"/>
<path d="M18.6832 12.2698C18.1672 12.2698 17.6912 12.2698 17.1752 12.3098V12.1508C17.3342 11.9508 17.2942 11.9508 17.1752 11.7508C17.1352 11.6718 17.0962 11.5918 16.9752 11.7508C16.8542 11.9098 16.8562 11.9508 17.0152 12.1508V12.3098C13.0862 12.3498 8.76125 12.3098 5.03125 12.2698C5.43125 12.9448 6.77725 12.9048 8.00725 12.9048C9.11825 12.9048 12.4522 12.9048 16.9752 12.7858V12.9858C16.8162 13.1858 16.8562 13.1858 16.9752 13.3858C17.0942 13.5448 17.1342 13.4648 17.1752 13.3858C17.1979 13.3654 17.2122 13.3372 17.2152 13.3068H17.8152C17.8152 13.3858 17.9342 13.4258 17.9742 13.4258C18.0142 13.4258 18.1332 13.3858 18.1332 13.3068H18.8082C18.8348 13.3569 18.8751 13.3984 18.9243 13.4265C18.9735 13.4547 19.0296 13.4683 19.0862 13.4658C19.3242 13.4658 19.4432 13.1878 19.4032 12.8308C19.3582 12.3098 19.1592 12.2298 18.6832 12.2698ZM18.1272 13.0638C18.1272 12.9848 18.0082 12.9448 17.9682 12.9448C17.9282 12.9448 17.8092 12.9848 17.8092 13.0638H17.2092C17.2092 13.0238 17.1692 12.9848 17.0902 12.9048V12.7048C17.6062 12.7048 18.1612 12.6648 18.7172 12.6648C18.6844 12.7808 18.6709 12.9014 18.6772 13.0218L18.1272 13.0638Z" fill="white"/>
<path d="M18.6823 12.2698C18.1663 12.2698 17.6903 12.2698 17.1743 12.3098V12.1508C17.3333 11.9508 17.2933 11.9508 17.1743 11.7508C17.1343 11.6718 17.0953 11.5918 16.9743 11.7508C16.8533 11.9098 16.8553 11.9508 17.0143 12.1508V12.3098H16.9743L17.5303 12.7858C17.9303 12.7858 18.3633 12.7458 18.7603 12.7458C18.7275 12.8618 18.7139 12.9824 18.7203 13.1028H18.1203C18.1203 13.0238 18.0013 12.9838 17.9613 12.9838C17.9213 12.9838 17.8423 13.0238 17.8423 13.0628L18.1203 13.3008V13.2608H18.7953C18.8219 13.3109 18.8621 13.3524 18.9113 13.3805C18.9605 13.4087 19.0167 13.4223 19.0733 13.4198C19.3113 13.4198 19.4303 13.1418 19.3903 12.7848C19.3573 12.3098 19.1593 12.2298 18.6823 12.2698Z" fill="#CFE7E8"/>
</svg>
