<svg width="36" height="36" viewBox="0 0 36 36" fill="none" xmlns="http://www.w3.org/2000/svg">
<path d="M27.8102 6.17977L19.5602 3.08977C18.7052 2.77477 17.3102 2.77477 16.4552 3.08977L8.2052 6.17977C6.6152 6.77977 5.3252 8.63977 5.3252 10.3348V22.4848C5.3252 23.6998 6.1202 25.3048 7.0952 26.0248L15.3452 32.1898C16.8002 33.2848 19.1852 33.2848 20.6402 32.1898L28.8902 26.0248C29.8652 25.2898 30.6602 23.6998 30.6602 22.4848V10.3348C30.6752 8.63977 29.3852 6.77977 27.8102 6.17977ZM23.2202 14.5798L16.7702 21.0298C16.5452 21.2548 16.2602 21.3598 15.9752 21.3598C15.6902 21.3598 15.4052 21.2548 15.1802 21.0298L12.7802 18.5998C12.3452 18.1648 12.3452 17.4448 12.7802 17.0098C13.2152 16.5748 13.9352 16.5748 14.3702 17.0098L15.9902 18.6298L21.6452 12.9748C22.0802 12.5398 22.8002 12.5398 23.2352 12.9748C23.6702 13.4098 23.6702 14.1448 23.2202 14.5798Z" fill="url(#paint0_linear_203_9621)"/>
<defs>
<linearGradient id="paint0_linear_203_9621" x1="26.9867" y1="29.8445" x2="6.3139" y2="9.13257" gradientUnits="userSpaceOnUse">
<stop stop-color="#10907B"/>
<stop offset="1" stop-color="#6FD9D3"/>
</linearGradient>
</defs>
</svg>
