<svg width="32" height="32" viewBox="0 0 32 32" fill="none" xmlns="http://www.w3.org/2000/svg">
<path d="M28.8815 13.9199L27.5749 19.4933C26.4549 24.3066 24.2415 26.2533 20.0815 25.8533C19.4149 25.7999 18.6949 25.6799 17.9215 25.4933L15.6815 24.9599C10.1215 23.6399 8.40154 20.8933 9.70821 15.3199L11.0149 9.73326C11.2815 8.59993 11.6015 7.61326 12.0015 6.79993C13.5615 3.57326 16.2149 2.7066 20.6682 3.75993L22.8949 4.27993C28.4815 5.5866 30.1882 8.3466 28.8815 13.9199Z" stroke="#6E7079" stroke-width="1.5" stroke-linecap="round" stroke-linejoin="round"/>
<path d="M20.0805 25.8534C19.2538 26.4134 18.2138 26.88 16.9471 27.2934L14.8405 27.9867C9.54712 29.6934 6.76045 28.2667 5.04045 22.9734L3.33379 17.7067C1.62712 12.4134 3.04045 9.61338 8.33379 7.90672L10.4405 7.21338C10.9871 7.04005 11.5071 6.89338 12.0005 6.80005C11.6005 7.61338 11.2805 8.60005 11.0138 9.73338L9.70712 15.32C8.40046 20.8934 10.1205 23.64 15.6805 24.96L17.9205 25.4934C18.6938 25.6801 19.4138 25.8 20.0805 25.8534Z" stroke="#6E7079" stroke-width="1.5" stroke-linecap="round" stroke-linejoin="round"/>
</svg>
