<svg width="52" height="52" viewBox="0 0 52 52" fill="none" xmlns="http://www.w3.org/2000/svg">
<circle cx="26" cy="26" r="26" fill="#E5E8EC"/>
<g clip-path="url(#clip0_202_8943)">
<path d="M34.4048 18.7312C34.4048 20.3621 33.0829 21.6843 31.4519 21.6843C29.821 21.6843 28.499 20.3621 28.499 18.7312C28.499 17.1005 29.821 15.7783 31.4519 15.7783C33.0829 15.7783 34.4048 17.1005 34.4048 18.7312Z" fill="#626878"/>
<path d="M31.4517 22.3656C29.4473 22.3656 27.8174 20.7355 27.8174 18.731C27.8174 16.7268 29.4473 15.0967 31.4517 15.0967C33.4561 15.0967 35.0861 16.7268 35.0861 18.731C35.0861 20.7355 33.4561 22.3656 31.4517 22.3656ZM31.4517 16.4596C30.1988 16.4596 29.1803 17.4791 29.1803 18.731C29.1803 19.9831 30.1988 21.0027 31.4517 21.0027C32.7047 21.0027 33.7232 19.9831 33.7232 18.731C33.7232 17.4791 32.7047 16.4596 31.4517 16.4596ZM34.4046 33.2688C34.4046 34.8995 33.0827 36.2217 31.4517 36.2217C29.8208 36.2217 28.4988 34.8995 28.4988 33.2688C28.4988 31.6379 29.8208 30.3157 31.4517 30.3157C33.0827 30.3157 34.4046 31.6379 34.4046 33.2688Z" fill="#626878"/>
<path d="M31.4517 36.903C29.4473 36.903 27.8174 35.2729 27.8174 33.2686C27.8174 31.2642 29.4473 29.6341 31.4517 29.6341C33.4561 29.6341 35.0861 31.2642 35.0861 33.2686C35.0861 35.2729 33.4561 36.903 31.4517 36.903ZM31.4517 30.997C30.1988 30.997 29.1803 32.0166 29.1803 33.2686C29.1803 34.5206 30.1988 35.5401 31.4517 35.5401C32.7046 35.5401 33.7232 34.5206 33.7232 33.2686C33.7232 32.0166 32.7046 30.997 31.4517 30.997ZM21.6843 25.9998C21.6843 27.6307 20.3621 28.9527 18.7312 28.9527C17.1005 28.9527 15.7783 27.6307 15.7783 25.9998C15.7783 24.3688 17.1005 23.0469 18.7312 23.0469C20.3621 23.0469 21.6843 24.3688 21.6843 25.9998Z" fill="#626878"/>
<path d="M18.731 29.6339C16.7268 29.6339 15.0967 28.004 15.0967 25.9996C15.0967 23.9952 16.7268 22.3652 18.731 22.3652C20.7355 22.3652 22.3656 23.9952 22.3656 25.9996C22.3656 28.004 20.7355 29.6339 18.731 29.6339ZM18.731 23.7281C17.4781 23.7281 16.4596 24.7475 16.4596 25.9996C16.4596 27.2517 17.4781 28.271 18.731 28.271C19.9841 28.271 21.0027 27.2517 21.0027 25.9996C21.0027 24.7475 19.9841 23.7281 18.731 23.7281Z" fill="#626878"/>
<path d="M20.8763 25.5643C20.56 25.5643 20.2529 25.3998 20.0857 25.1055C19.8376 24.6703 19.9904 24.1151 20.4256 23.866L28.8564 19.0596C29.2916 18.8097 29.8468 18.9624 30.0958 19.3993C30.3439 19.8345 30.1912 20.3897 29.756 20.6388L21.325 25.4452C21.1884 25.5233 21.0337 25.5644 20.8763 25.5643ZM29.3063 33.0603C29.1536 33.0603 28.9992 33.022 28.8574 32.9412L20.4265 28.1347C19.9912 27.8867 19.8387 27.3315 20.0868 26.8953C20.3338 26.4592 20.8898 26.3057 21.3261 26.5555L29.757 31.362C30.1923 31.61 30.3448 32.1653 30.0967 32.6014C29.9287 32.8957 29.6216 33.0603 29.3063 33.0603H29.3063Z" fill="#626878"/>
</g>
<defs>
<clipPath id="clip0_202_8943">
<rect width="21.8065" height="21.8065" fill="white" transform="translate(15.0967 15.0967)"/>
</clipPath>
</defs>
</svg>
