<svg width="32" height="32" viewBox="0 0 32 32" fill="none" xmlns="http://www.w3.org/2000/svg">
<path d="M13.3327 5.99996V24C13.3327 25.44 12.746 26.76 11.8127 27.72L11.7594 27.7733C11.6394 27.8933 11.506 28.0133 11.386 28.1066C10.986 28.4533 10.5327 28.72 10.066 28.9066C9.91933 28.9733 9.77268 29.0266 9.62602 29.08C9.10602 29.2533 8.54602 29.3333 7.99935 29.3333C7.63935 29.3333 7.27936 29.2933 6.9327 29.2266C6.75936 29.1866 6.58601 29.1466 6.41268 29.0933C6.19935 29.0266 5.99936 28.96 5.79936 28.8666C5.79936 28.8533 5.79934 28.8533 5.78601 28.8666C5.41268 28.68 5.05269 28.4666 4.71936 28.2133L4.70601 28.2C4.53268 28.0666 4.3727 27.9333 4.22603 27.7733C4.07937 27.6133 3.93268 27.4533 3.78601 27.28C3.53268 26.9466 3.31936 26.5866 3.13269 26.2133C3.14602 26.2 3.14602 26.2 3.13269 26.2C3.13269 26.2 3.13268 26.1866 3.11934 26.1733C3.03934 25.9866 2.97267 25.7866 2.90601 25.5866C2.85267 25.4133 2.81266 25.24 2.77266 25.0666C2.706 24.72 2.66602 24.36 2.66602 24V5.99996C2.66602 3.99996 3.99935 2.66663 5.99935 2.66663H9.99935C11.9993 2.66663 13.3327 3.99996 13.3327 5.99996Z" stroke="#6E7079" stroke-width="1.5" stroke-linecap="round" stroke-linejoin="round"/>
<path d="M29.3333 22V26C29.3333 28 28 29.3333 26 29.3333H8C8.54667 29.3333 9.10667 29.2533 9.62667 29.08C9.77334 29.0266 9.91998 28.9733 10.0667 28.9066C10.5333 28.72 10.9867 28.4533 11.3867 28.1066C11.5067 28.0133 11.64 27.8933 11.76 27.7733L11.8133 27.72L20.88 18.6666H26C28 18.6666 29.3333 20 29.3333 22Z" stroke="#6E7079" stroke-width="1.5" stroke-linecap="round" stroke-linejoin="round"/>
<path d="M6.41292 29.0933C5.61292 28.8533 4.85294 28.4133 4.22628 27.7733C3.58628 27.1467 3.14625 26.3867 2.90625 25.5867C3.42625 27.2533 4.74626 28.5733 6.41292 29.0933Z" stroke="#6E7079" stroke-width="1.5" stroke-linecap="round" stroke-linejoin="round"/>
<path d="M24.4925 15.0533L20.8792 18.6666L11.8125 27.72C12.7458 26.76 13.3325 25.44 13.3325 24V11.12L16.9458 7.50666C18.3592 6.09332 20.2525 6.09332 21.6659 7.50666L24.4925 10.3333C25.9058 11.7466 25.9058 13.64 24.4925 15.0533Z" stroke="#6E7079" stroke-width="1.5" stroke-linecap="round" stroke-linejoin="round"/>
<path d="M7.99935 25.3333C8.73573 25.3333 9.33268 24.7363 9.33268 24C9.33268 23.2636 8.73573 22.6666 7.99935 22.6666C7.26297 22.6666 6.66602 23.2636 6.66602 24C6.66602 24.7363 7.26297 25.3333 7.99935 25.3333Z" stroke="#6E7079" stroke-width="1.5" stroke-linecap="round" stroke-linejoin="round"/>
</svg>
