<svg width="32" height="32" viewBox="0 0 32 32" fill="none" xmlns="http://www.w3.org/2000/svg">
<path opacity="0.4" d="M29.3332 8.33342V15.1334C29.3332 16.8267 28.7732 18.2534 27.7732 19.2401C26.7865 20.2401 25.3598 20.8 23.6665 20.8V23.2134C23.6665 24.12 22.6532 24.6667 21.9065 24.1601L20.6132 23.3067C20.7332 22.8934 20.7865 22.44 20.7865 21.96V16.5334C20.7865 13.8134 18.9732 12.0001 16.2532 12.0001H7.19983C7.01316 12.0001 6.83984 12.0134 6.6665 12.0268V8.33342C6.6665 4.93341 8.93317 2.66675 12.3332 2.66675H23.6665C27.0665 2.66675 29.3332 4.93341 29.3332 8.33342Z" fill="#10907B"/>
<path d="M20.7865 16.5334V21.96C20.7865 22.44 20.7332 22.8933 20.6132 23.3066C20.1198 25.2666 18.4932 26.4933 16.2532 26.4933H12.6265L8.59983 29.1733C7.99983 29.5867 7.19983 29.1467 7.19983 28.4267V26.4933C5.83983 26.4933 4.70651 26.04 3.91984 25.2533C3.11984 24.4533 2.6665 23.32 2.6665 21.96V16.5334C2.6665 14 4.23984 12.2534 6.6665 12.0267C6.83984 12.0134 7.01316 12 7.19983 12H16.2532C18.9732 12 20.7865 13.8134 20.7865 16.5334Z" fill="#10907B"/>
</svg>
