<svg width="123" height="128" viewBox="0 0 123 128" fill="none" xmlns="http://www.w3.org/2000/svg">
<path d="M122.793 55.9938V114.285C122.793 121.528 116.914 127.406 109.671 127.406H13.5035C6.26055 127.406 0.381836 121.528 0.381836 114.285V55.9938L52.3228 4.22637C57.4326 -0.883398 65.7174 -0.883398 70.8271 4.22637L122.793 55.9938Z" fill="url(#paint0_linear_130_13867)"/>
<path d="M23.7477 15.0166H99.526C106.769 15.0166 112.648 20.8953 112.648 28.1383V103.917C112.648 111.16 106.769 117.038 99.526 117.038H23.7477C16.5047 117.038 10.626 111.16 10.626 103.917V28.1135C10.626 20.8705 16.5047 15.0166 23.7477 15.0166Z" fill="#5A6462"/>
<path d="M122.792 55.9937V114.285C122.792 121.528 116.914 127.406 109.671 127.406H61.5744L61.5 117.286L122.792 55.9937Z" fill="url(#paint1_linear_130_13867)"/>
<path d="M0.208008 55.9937V114.285C0.208008 121.528 6.08672 127.406 13.3297 127.406H61.426L61.5004 117.286L0.208008 55.9937Z" fill="url(#paint2_linear_130_13867)"/>
<path d="M118.973 123.537C116.914 125.621 114.136 127.01 111.06 127.357L13.032 127.406C9.58418 127.282 6.45879 125.819 4.17676 123.537L52.2979 75.4158C57.4076 70.3061 65.7172 70.3061 70.8518 75.4158L118.973 123.537Z" fill="url(#paint3_linear_130_13867)"/>
<path d="M61.5004 65.1468C73.5694 65.1468 83.3533 55.3629 83.3533 43.2938C83.3533 31.2248 73.5694 21.4409 61.5004 21.4409C49.4314 21.4409 39.6475 31.2248 39.6475 43.2938C39.6475 55.3629 49.4314 65.1468 61.5004 65.1468Z" fill="url(#paint4_linear_130_13867)"/>
<path d="M65.2215 43.7401L53.34 31.8587C52.6951 31.2138 51.6285 31.2138 50.9588 31.8587C50.3139 32.5036 50.3139 33.5702 50.9588 34.2399L51.827 35.1081L49.1232 37.8118C48.5279 38.4071 48.5279 39.3745 49.1232 39.9698C49.7186 40.5651 50.6859 40.5651 51.2812 39.9698L53.1664 38.0847L55.002 39.9202L53.5137 41.4085C53.0176 41.9046 52.9184 42.7231 53.3896 43.2688C53.9105 43.889 54.8283 43.9386 55.3988 43.3681L57.7305 41.0364L62.8402 46.1462C61.5504 48.4778 61.8729 51.4544 63.8572 53.4388C66.2385 55.82 70.108 55.82 72.5141 53.4388C74.9201 51.0575 74.8953 47.188 72.5141 44.7819C70.5297 42.7728 67.5531 42.4255 65.2215 43.7401ZM70.1328 51.0327C69.0414 52.1241 67.3051 52.1241 66.2137 51.0327C65.1223 49.9413 65.1223 48.205 66.2137 47.1136C67.3051 46.0222 69.0414 46.0222 70.1328 47.1136C71.2242 48.205 71.2242 49.9661 70.1328 51.0327Z" fill="white"/>
<defs>
<linearGradient id="paint0_linear_130_13867" x1="61.5824" y1="127.406" x2="61.5824" y2="0.404459" gradientUnits="userSpaceOnUse">
<stop offset="0.5" stop-color="#10907B"/>
<stop offset="1" stop-color="#1EE3C3"/>
</linearGradient>
<linearGradient id="paint1_linear_130_13867" x1="72.4126" y1="138.236" x2="138.712" y2="71.9336" gradientUnits="userSpaceOnUse">
<stop offset="0.2" stop-color="#10907B"/>
<stop offset="0.8" stop-color="#2BDCC0"/>
</linearGradient>
<linearGradient id="paint2_linear_130_13867" x1="50.5901" y1="138.236" x2="-15.7104" y2="71.9356" gradientUnits="userSpaceOnUse">
<stop offset="0.2" stop-color="#10907B"/>
<stop offset="0.8" stop-color="#29E1C4"/>
</linearGradient>
<linearGradient id="paint3_linear_130_13867" x1="61.5822" y1="127.399" x2="61.5822" y2="71.5592" gradientUnits="userSpaceOnUse">
<stop stop-color="#10907B"/>
<stop offset="1" stop-color="#3DDEC4"/>
</linearGradient>
<linearGradient id="paint4_linear_130_13867" x1="46.0451" y1="27.8261" x2="76.9582" y2="58.7368" gradientUnits="userSpaceOnUse">
<stop stop-color="#2FDBBF"/>
<stop offset="1" stop-color="#10907B"/>
</linearGradient>
</defs>
</svg>
