<svg width="45" height="28" viewBox="0 0 45 28" fill="none" xmlns="http://www.w3.org/2000/svg">
<path d="M27.2951 13.806C27.2951 21.4308 21.1849 27.6119 13.6475 27.6119C6.11021 27.6119 0 21.4308 0 13.806C0 6.18114 6.11021 0 13.6475 0C21.1849 0 27.2951 6.18114 27.2951 13.806Z" fill="#ED0006"/>
<path d="M45.0002 13.806C45.0002 21.4308 38.8899 27.6119 31.3526 27.6119C23.8153 27.6119 17.7051 21.4308 17.7051 13.806C17.7051 6.18114 23.8153 0 31.3526 0C38.8899 0 45.0002 6.18114 45.0002 13.806Z" fill="#0099DF"/>
<path fill-rule="evenodd" clip-rule="evenodd" d="M22.5001 3.29883C25.4345 5.8311 27.2951 9.59908 27.2951 13.8067C27.2951 18.0143 25.4345 21.7823 22.5001 24.3145C19.5657 21.7823 17.7051 18.0143 17.7051 13.8067C17.7051 9.59908 19.5657 5.8311 22.5001 3.29883Z" fill="#6C6BBD"/>
</svg>
