<svg width="70" height="21" viewBox="0 0 70 21" fill="none" xmlns="http://www.w3.org/2000/svg">
<path d="M45.4434 14.9714V4.26341H47.2593V5.12202C47.812 4.43118 48.6311 4.05615 49.6476 4.05615C51.7399 4.05615 53.24 5.72404 53.24 8.11238C53.24 10.5007 51.73 12.1982 49.6476 12.1982C48.6212 12.1982 47.812 11.8034 47.2593 11.1126V14.9714H45.4434ZM47.2593 7.12546V9.09929C47.6442 9.89869 48.335 10.481 49.3318 10.481C50.5358 10.481 51.3451 9.58288 51.3451 8.10251C51.3451 6.64187 50.5358 5.75365 49.3318 5.75365C48.335 5.76352 47.6442 6.30632 47.2593 7.12546Z" fill="#02AA7C"/>
<path d="M54.4141 9.77028C54.4141 8.46755 55.2233 7.55959 56.5655 7.39181L59.6546 6.99705V6.61215C59.6546 6.1483 59.4177 5.90157 58.9835 5.90157H55.1049V4.25342H59.0526C60.6218 4.25342 61.4804 5.02321 61.4804 6.38516V11.9612H59.6447V11.0237C59.1118 11.7737 58.2334 12.1981 57.0985 12.1981C55.4997 12.1981 54.4141 11.221 54.4141 9.77028ZM57.5426 10.7177C58.4703 10.7177 59.3289 10.1946 59.6447 9.42486V8.45768L57.286 8.78336C56.6346 8.87218 56.2695 9.2176 56.2695 9.78015C56.2695 10.3822 56.7333 10.7177 57.5426 10.7177Z" fill="#02AA7C"/>
<path d="M62.8044 13.3232H64.1269C64.6302 13.3232 64.8572 13.1159 65.025 12.6422L65.2618 11.9612L62.459 4.25342H64.3539L66.1007 9.62224H66.1402L67.8081 4.25342H69.6733L66.604 13.106C66.1895 14.32 65.6369 14.9713 64.2848 14.9713H62.8044V13.3232Z" fill="#02AA7C"/>
<path d="M7.38824 20.2713C9.50024 20.2713 11.2372 19.61 12.382 18.5047C13.2407 17.6559 13.744 16.5111 13.744 15.1886C13.744 13.9945 13.2999 12.9187 12.4807 12.0996C11.6616 11.2805 10.4872 10.6784 9.00679 10.3922L6.57897 9.9185C5.57232 9.73099 4.99991 9.22766 4.99991 8.52695C4.99991 7.60912 5.88813 6.9775 7.30929 6.9775C8.19752 6.9775 8.95744 7.2637 9.46077 7.76703C9.77658 8.11245 9.9937 8.55656 10.0628 9.05989L13.5663 8.27036C13.4676 7.2637 12.9939 6.37548 12.2735 5.64516C11.1188 4.51021 9.35221 3.78976 7.26981 3.78976C5.34533 3.78976 3.73666 4.42138 2.62144 5.42804C1.674 6.31626 1.14107 7.51043 1.14107 8.84277C1.14107 10.0073 1.51609 10.9942 2.27602 11.7443C3.03595 12.5042 4.14129 13.0668 5.59206 13.4221L7.99026 13.9945C9.1943 14.2807 9.72723 14.7248 9.72723 15.5143C9.72723 16.4914 8.83901 17.0638 7.38824 17.0638C6.34211 17.0638 5.49337 16.7184 4.96043 16.1459C4.5854 15.7709 4.35841 15.2577 4.32881 14.6952L0.726562 15.4847C0.825254 16.5604 1.32858 17.5079 2.08851 18.2678C3.28267 19.5212 5.21703 20.2713 7.38824 20.2713ZM34.0547 20.2713C36.3937 20.2713 38.1899 19.4225 39.4235 18.2185C40.4006 17.271 41.0026 16.1657 41.3184 15.0307L37.6273 13.7971C37.4694 14.3695 37.1536 14.9715 36.6503 15.4354C36.0483 16.0078 35.2291 16.4124 34.0547 16.4124C32.979 16.4124 31.9723 15.9979 31.242 15.2775C30.5117 14.5175 30.0676 13.4122 30.0676 12.0206C30.0676 10.5995 30.5117 9.52374 31.242 8.76381C31.9625 8.0335 32.9494 7.65847 34.0251 7.65847C35.1601 7.65847 35.9496 8.03349 36.522 8.60591C36.9957 9.07963 37.2819 9.68164 37.4694 10.2837L41.2296 9.02041C40.9434 7.91507 40.3414 6.80972 39.463 5.89189C38.1998 4.65824 36.3641 3.77989 33.9363 3.77989C31.696 3.77989 29.6728 4.62864 28.222 6.08927C26.7713 7.56964 25.883 9.6323 25.883 12.0305C25.883 14.4287 26.8009 16.4815 28.2813 17.9717C29.7222 19.4225 31.7749 20.2713 34.0547 20.2713ZM21.2939 20.2713C22.9322 20.2713 24.1066 19.7679 24.6099 19.3238V15.9091C24.225 16.1953 23.475 16.5407 22.4881 16.5407C21.7873 16.5407 21.284 16.3828 20.909 16.0374C20.5932 15.7216 20.4353 15.1788 20.4353 14.4583V0H16.2606V4.26348H24.6001V8.30983H16.2606V15.4847C16.2606 16.9355 16.7047 18.1099 17.4943 18.929C18.3825 19.7975 19.6852 20.2713 21.2939 20.2713Z" fill="#502C84"/>
</svg>
