<svg width="40" height="40" viewBox="0 0 40 40" fill="none" xmlns="http://www.w3.org/2000/svg">
<rect width="40" height="40" fill="#F2F4F7"/>
<path fill-rule="evenodd" clip-rule="evenodd" d="M30.3841 15.3035H33.2049L32.8717 16.9433C33.7336 15.5951 34.7202 15.2065 35.9291 15.1231C36.3458 15.1097 36.8601 15.1649 37.3188 15.2343L36.7763 17.3882C36.332 17.277 35.8599 17.1936 35.4427 17.1936C33.7752 17.166 32.5382 18.2909 32.1076 19.9024L31.1346 23.5993H28.2168C28.9389 20.8341 29.8982 17.8191 30.3841 15.3035Z" fill="#376355"/>
<path fill-rule="evenodd" clip-rule="evenodd" d="M22.3641 18.9869C22.8504 18.7507 24.5458 18.7764 25.6434 18.6374C26.9082 18.4846 28.6724 17.7898 28.6304 16.7337C28.5612 15.6081 27.5611 15.3529 26.6299 15.4781C24.4346 15.7977 23.0032 17.2361 22.3641 18.9869ZM22.0923 19.7052C22.0369 20.1911 21.9751 20.7081 22.0165 21.0972C22.1969 22.4728 23.4033 23.1164 24.6955 23.158C25.7718 23.1835 27.0838 22.5398 27.7975 21.7379C27.9322 21.5863 28.0873 21.6357 28.1786 21.7567C28.2482 21.8491 28.2209 22.0576 28.1565 22.1213C27.0359 23.2341 25.8836 23.8619 24.2818 23.8757C22.4615 23.8895 20.182 23.1953 19.9045 21.3058C19.8627 21.0834 19.8627 20.8333 19.8905 20.5689C20.2518 17.0684 23.4481 15.1773 26.5885 15.0106C28.089 14.9272 30.2573 15.3163 30.1317 16.9423C30.0071 18.6516 27.4221 19.2491 25.7408 19.2907C24.3234 19.3323 22.5786 19.326 22.0923 19.7052Z" fill="#376355"/>
<path fill-rule="evenodd" clip-rule="evenodd" d="M20.523 21.6811L20.0509 23.4872C19.2588 23.6542 18.23 23.8074 17.2849 23.7792C14.478 23.7238 12.4213 22.431 12.5464 19.763C12.699 16.6922 15.7428 15.1219 18.6749 15.0801C19.6478 15.0801 20.537 15.1771 21.5235 15.4134L20.6482 17.1504C20.0089 16.9698 19.1472 16.803 18.2856 16.8864C16.9376 16.9836 15.701 17.7063 15.3396 19.1237C14.8671 20.9022 15.8953 22.1536 17.7159 22.1536C18.6747 22.1536 19.606 21.9592 20.523 21.6811Z" fill="#376355"/>
<path fill-rule="evenodd" clip-rule="evenodd" d="M8.65595 15.1074C11.0044 15.1074 12.7732 15.6469 12.9419 17.5968C13.0068 18.3469 12.7335 19.0159 12.5251 19.8082L11.5463 23.6121C9.6704 23.6121 8.14183 23.6537 6.44648 23.7929C4.87612 23.7929 3 23.4594 3 21.4581C3.03297 18.188 8.10004 18.4841 10.2539 18.4841C10.7126 17.1779 9.64241 16.6498 8.14163 16.6498C6.77983 16.6498 5.65823 17.0389 4.56039 17.4003L4.94532 15.6353C6.01574 15.288 7.39134 15.1074 8.65595 15.1074ZM9.93436 19.7903C8.75103 19.7903 5.40711 19.5112 5.40711 21.3191C5.40711 22.2222 6.35216 22.3569 7.14425 22.3569C9.22567 22.3569 9.5504 21.6302 9.93436 19.7903ZM36.3368 21.9162C36.1871 21.9153 36.0386 21.9444 35.9003 22.0018C35.7619 22.0591 35.6364 22.1436 35.5312 22.2502C35.3096 22.4863 35.184 22.7777 35.184 23.0833C35.184 23.3896 35.3094 23.6674 35.5179 23.8897C35.7395 24.1121 36.0317 24.2371 36.3367 24.2371C36.6426 24.2371 36.9345 24.1121 37.1573 23.8897C37.38 23.6674 37.4905 23.3896 37.4905 23.0833C37.4905 22.7643 37.38 22.4729 37.1573 22.2641C36.9349 22.0418 36.6428 21.9162 36.3368 21.9162ZM37.3804 23.0833C37.3804 23.3614 37.2689 23.6123 37.0741 23.8061C36.8773 23.9998 36.613 24.1095 36.3368 24.1121C36.2001 24.112 36.0647 24.0849 35.9383 24.0324C35.812 23.9799 35.6973 23.903 35.6007 23.8061C35.4064 23.6121 35.2956 23.3478 35.2956 23.0833C35.2956 22.8063 35.4064 22.5419 35.6007 22.333C35.7961 22.1379 36.0608 22.0281 36.3368 22.0278C36.6154 22.0278 36.8797 22.139 37.0741 22.3475C37.2689 22.5419 37.3804 22.7917 37.3804 23.0833ZM36.3654 22.3888H35.8925V23.7235H36.0736V23.1256H36.4072L36.6986 23.7235H36.9075L36.6016 23.1122C36.796 23.0835 36.9213 22.9445 36.9213 22.7645C36.9213 22.5003 36.7406 22.3888 36.3654 22.3888ZM36.3368 22.5141C36.6016 22.5141 36.7404 22.5833 36.7404 22.7503C36.7404 22.9585 36.6154 23.0143 36.3368 23.0143H36.0736V22.5141H36.3368Z" fill="#376355"/>
</svg>
