<svg width="40" height="40" viewBox="0 0 40 40" fill="none" xmlns="http://www.w3.org/2000/svg">
<rect width="40" height="40" fill="#F2F4F7"/>
<path fill-rule="evenodd" clip-rule="evenodd" d="M19.9996 2.5C29.6569 2.5 37.4856 10.3345 37.4856 19.9988C37.4856 29.6631 29.6569 37.4976 19.9996 37.4976C19.676 37.4976 19.3545 37.4881 19.0352 37.4707L22.713 27.1337H26.5368C27.6472 27.1337 28.8156 26.2245 29.1333 25.1132L32.362 16.0385C33.0175 14.1961 31.7911 13.1093 30.3839 13.1053L24.084 13.1034L15.6032 36.9395C8.07411 34.9883 2.51367 28.1435 2.51367 19.9988C2.51367 11.6835 8.30943 4.7229 16.0789 2.94194L7.67237 26.5696H11.2933L15.3651 15.1253H17.4456L13.3824 26.5455H17.0033L20.7416 16.0385C21.3971 14.1961 20.1707 13.1093 18.7635 13.1053L16.0865 13.0976L19.8564 2.50181C19.9042 2.50143 19.9518 2.5 19.9996 2.5Z" fill="#015294"/>
<path fill-rule="evenodd" clip-rule="evenodd" d="M23.4336 25.1129L26.9872 15.125H29.0677L25.514 25.1129H23.4336Z" fill="#015294"/>
</svg>
