<svg width="37" height="40" viewBox="0 0 37 40" fill="none" xmlns="http://www.w3.org/2000/svg">
<g clip-path="url(#clip0_2580_7777)">
<path d="M29.7867 21.0681C29.7685 17.8015 31.2809 15.336 34.3421 13.5202C32.6293 11.1259 30.0418 9.80863 26.6253 9.55051C23.391 9.30129 19.856 11.393 18.5623 11.393C17.1957 11.393 14.0616 9.63952 11.6017 9.63952C6.5179 9.71963 1.11523 13.6004 1.11523 21.4953C1.11523 23.8273 1.55255 26.2365 2.42718 28.7227C3.59336 31.9893 7.80252 40 12.1939 39.8665C14.4898 39.8131 16.1115 38.2733 19.0998 38.2733C21.997 38.2733 23.5003 39.8665 26.0604 39.8665C30.4883 39.8042 34.2965 32.5234 35.4081 29.2479C29.4679 26.5154 29.7867 21.2372 29.7867 21.0681ZM24.6301 6.45305C27.1173 3.5692 26.8895 0.94348 26.8166 0C24.6209 0.124611 22.079 1.45972 20.6304 3.10636C19.0361 4.86871 18.0977 7.0494 18.2981 9.50601C20.676 9.68402 22.8443 8.49132 24.6301 6.45305Z" fill="#3D3C48"/>
</g>
<defs>
<clipPath id="clip0_2580_7777">
<rect width="36.5217" height="40" fill="white"/>
</clipPath>
</defs>
</svg>
