<svg width="40" height="40" viewBox="0 0 40 40" fill="none" xmlns="http://www.w3.org/2000/svg">
<rect width="40" height="40" fill="#F2F4F7"/>
<g clip-path="url(#clip0_2580_3709)">
<path d="M19.4424 2H20.5582C25.9853 2.30702 29.8549 4.37445 32.7237 7.27186C35.5926 10.1693 37.7133 13.9907 37.9966 19.4584V20.5416C37.7211 26.0968 35.563 29.7632 32.7237 32.7463C29.7412 35.5799 26.0746 37.7268 20.5402 37.9999H19.4424C14.0159 37.6923 10.1456 35.6257 7.27682 32.7281C4.408 29.8307 2.28729 26.0094 2.00391 20.5416V19.4584C2.01803 19.4545 2.02493 19.4433 2.02191 19.4223C2.29326 13.9755 4.42554 10.1143 7.2769 7.2538C10.1414 4.37997 14.0511 2.29776 19.4424 2ZM15.9151 4.58175C14.8458 4.869 13.8869 5.23378 13.0177 5.66497C10.3721 6.97737 8.19044 8.855 6.66497 11.2618C5.17605 13.611 3.88686 16.633 4.07356 20.5958C4.19127 23.094 4.75951 25.1956 5.65715 26.987C7.42984 30.524 10.1286 33.1302 13.8636 34.7142C15.7105 35.4975 17.9991 36.0469 20.5762 35.9238C23.0482 35.8057 25.1903 35.2482 26.965 34.3531C30.4432 32.5986 33.1843 29.8916 34.7035 26.1565C35.4719 24.2671 36.0529 22.0844 35.9273 19.4403C35.6895 14.4315 33.6586 11.0352 30.9784 8.4453C29.6522 7.16381 28.0552 6.07374 26.1733 5.28586C24.3474 4.52142 21.9704 3.95462 19.4246 4.07622C18.1731 4.136 16.9924 4.29232 15.9151 4.58175Z" fill="#0083CA"/>
<path d="M18.3452 15.3242C18.9153 15.703 19.4986 16.0688 20.0368 16.4797C18.8208 17.2457 17.6287 18.0357 16.4196 18.8087C16.6032 18.9495 16.8119 19.065 16.9955 19.2058C18.2147 18.431 19.4342 17.6566 20.6488 16.8768C21.1935 17.2151 21.7298 17.5617 22.2325 17.9421C21.0155 18.7132 19.8393 19.5252 18.6332 20.3071C18.8119 20.4529 19.031 20.5581 19.227 20.6863C20.4736 19.9208 21.6891 19.1243 22.9162 18.3393V15.7756H25.6157V20.885C26.3775 20.927 27.2175 20.891 28.0093 20.9029V23.3042H22.9162V20.8667C21.4199 21.7788 19.8864 22.8102 18.3812 23.7735C16.8136 22.7524 15.3029 21.674 13.7381 20.6502C13.2848 22.0916 12.2081 23.176 10.4267 23.3042C9.31565 23.3839 8.05316 23.2446 6.77344 23.3042V15.7756C8.37332 15.8819 10.1301 15.5609 11.3985 15.9561C12.52 16.3055 13.3151 17.2033 13.684 18.3212C15.25 17.3345 16.7908 16.3227 18.3452 15.3242ZM9.34685 18.1949V20.9029C9.98989 20.9061 10.479 20.9436 10.8585 20.6503C11.4232 20.2139 11.5369 19.1323 11.0385 18.5559C10.7058 18.1713 10.1442 18.0906 9.36477 18.1407C9.34398 18.1437 9.34529 18.1692 9.34685 18.1949ZM28.711 15.7756H31.4105V20.9029H33.786V23.3042H28.6929V15.8297C28.6915 15.8041 28.69 15.7786 28.711 15.7756Z" fill="#0083CA"/>
</g>
<defs>
<clipPath id="clip0_2580_3709">
<rect width="36" height="36" fill="white" transform="translate(2 2)"/>
</clipPath>
</defs>
</svg>
