<svg width="40" height="40" viewBox="0 0 40 40" fill="none" xmlns="http://www.w3.org/2000/svg">
<rect width="40" height="40" fill="#F2F4F7"/>
<path d="M19.1589 18.6563C19.1589 19.2086 18.7112 19.6563 18.1589 19.6563H4C3.44771 19.6563 3 19.2086 3 18.6563V4.5C3 3.94772 3.44772 3.5 4 3.5H18.1589C18.7112 3.5 19.1589 3.94772 19.1589 4.5V18.6563Z" fill="#F1511B"/>
<path d="M37.0001 19.6563H21.8398C21.2876 19.6563 20.8398 19.2086 20.8398 18.6563V4.5C20.8398 3.94772 21.2876 3.5 21.8398 3.5H35.9988C36.5511 3.5 36.9988 3.94772 36.9988 4.5V19.655C36.9988 19.6557 36.9994 19.6563 37.0001 19.6563Z" fill="#80CC28"/>
<path d="M19.1589 36.5021C19.1589 37.0543 18.7112 37.5021 18.1589 37.5021H4C3.44771 37.5021 3 37.0543 3 36.5021V22.3457C3 21.7934 3.44772 21.3457 4 21.3457H18.1589C18.7112 21.3457 19.1589 21.7934 19.1589 22.3457V36.5021Z" fill="#00ADEF"/>
<path d="M37.0001 37.5021H21.8398C21.2876 37.5021 20.8398 37.0543 20.8398 36.5021V22.3457C20.8398 21.7934 21.2876 21.3457 21.8398 21.3457H35.9988C36.5511 21.3457 36.9988 21.7934 36.9988 22.3457V37.5007C36.9988 37.5014 36.9994 37.5021 37.0001 37.5021Z" fill="#FBBC09"/>
</svg>
