<svg width="51" height="21" viewBox="0 0 51 21" fill="none" xmlns="http://www.w3.org/2000/svg">
<path fill-rule="evenodd" clip-rule="evenodd" d="M7.19242 3.86592C8.1325 3.94522 9.07258 3.39011 9.66013 2.68632C10.2379 1.9627 10.6198 0.99126 10.5219 0C9.68951 0.0396504 8.6613 0.555106 8.07375 1.27873C7.53516 1.90322 7.07491 2.91431 7.19242 3.86592ZM18.3755 16.6333V1.17959H24.1041C27.0615 1.17959 29.1277 3.24141 29.1277 6.25484C29.1277 9.26827 27.0223 11.3499 24.0258 11.3499H20.7453V16.6333H18.3755ZM10.512 4.05425C9.68381 4.006 8.92812 4.30637 8.31772 4.54899C7.92492 4.70513 7.59229 4.83734 7.33923 4.83734C7.05525 4.83734 6.7089 4.69806 6.32002 4.54168L6.32001 4.54168L6.31999 4.54167L6.31999 4.54167C5.81042 4.33675 5.22784 4.10248 4.61691 4.11372C3.21658 4.13355 1.91417 4.93647 1.19932 6.21519C-0.26956 8.77264 0.817409 12.5593 2.23732 14.6409C2.93259 15.6718 3.76496 16.8018 4.86172 16.7622C5.34423 16.7438 5.69132 16.5947 6.05052 16.4404C6.46407 16.2628 6.89367 16.0782 7.56446 16.0782C8.21199 16.0782 8.6228 16.2579 9.01716 16.4305C9.39213 16.5945 9.75221 16.752 10.2868 16.7424C11.4227 16.7225 12.1376 15.7115 12.8328 14.6806C13.5831 13.5741 13.9129 12.4943 13.9629 12.3304L13.9688 12.3114C13.9676 12.3102 13.9583 12.3059 13.9419 12.2984C13.6911 12.1821 11.774 11.2937 11.7557 8.91142C11.7372 6.91183 13.2762 5.89871 13.5185 5.73923C13.5332 5.72952 13.5432 5.72298 13.5477 5.71956C12.5684 4.2525 11.0408 4.0939 10.512 4.05425ZM33.4561 16.7523C34.9445 16.7523 36.3253 15.989 36.952 14.7797H37.001V16.6333H39.1945V8.94116C39.1945 6.71083 37.4318 5.2735 34.7193 5.2735C32.2026 5.2735 30.342 6.73065 30.2735 8.733H32.4083C32.5845 7.78139 33.4561 7.15689 34.6508 7.15689C36.1 7.15689 36.9128 7.84086 36.9128 9.09976V9.95225L33.9555 10.1307C31.2038 10.2992 29.7153 11.4391 29.7153 13.4217C29.7153 15.424 31.2527 16.7523 33.4561 16.7523ZM34.0924 14.9185C32.8292 14.9185 32.0262 14.3039 32.0262 13.3622C32.0262 12.3908 32.7998 11.8257 34.2785 11.7365L36.9127 11.568V12.4403C36.9127 13.8876 35.6984 14.9185 34.0924 14.9185ZM46.4702 17.238C45.5204 19.9442 44.4334 20.8363 42.1224 20.8363C41.9461 20.8363 41.3585 20.8165 41.2214 20.7768V18.9232C41.3683 18.943 41.7307 18.9628 41.9167 18.9628C42.9645 18.9628 43.5521 18.5167 43.9144 17.357L44.1298 16.673L40.1149 5.4222H42.5924L45.3833 14.5517H45.4322L48.2231 5.4222H50.6321L46.4702 17.238ZM20.7451 3.20176H23.4772C25.5336 3.20176 26.7087 4.31198 26.7087 6.26476C26.7087 8.21754 25.5336 9.33766 23.4674 9.33766H20.7451V3.20176Z" fill="black"/>
</svg>
