<svg width="50" height="21" viewBox="0 0 50 21" fill="none" xmlns="http://www.w3.org/2000/svg">
<path fill-rule="evenodd" clip-rule="evenodd" d="M23.0593 16.1048V10.0629H26.1776C27.4555 10.0629 28.534 9.63472 29.4132 8.79028L29.6242 8.5762C31.2303 6.82785 31.1248 4.10424 29.4132 2.48672C28.5574 1.63039 27.3851 1.16654 26.1776 1.19032H21.1719V16.1048H23.0593ZM23.0595 8.23126V3.0219H26.2253C26.9053 3.0219 27.5502 3.28356 28.0309 3.7593C29.051 4.75836 29.0744 6.42345 28.0895 7.45819C27.6088 7.96961 26.9288 8.25505 26.2253 8.23126H23.0595ZM38.4283 6.69704C37.6194 5.94775 36.5175 5.56715 35.1224 5.56715C33.3288 5.56715 31.9806 6.23319 31.0897 7.55337L32.7544 8.61189C33.364 7.70799 34.1963 7.25603 35.2514 7.25603C35.9196 7.25603 36.5644 7.5058 37.0685 7.95775C37.5608 8.38592 37.8422 9.00438 37.8422 9.65852V10.0986C37.1154 9.6942 36.201 9.48012 35.0755 9.48012C33.7625 9.48012 32.7075 9.78935 31.922 10.4197C31.1366 11.0501 30.738 11.8826 30.738 12.9411C30.7145 13.9045 31.1248 14.8203 31.8517 15.4388C32.5902 16.1048 33.5281 16.4378 34.6301 16.4378C35.9313 16.4378 36.963 15.855 37.7484 14.6895H37.8305V16.1048H39.6358V9.81314C39.6358 8.49296 39.2372 7.44633 38.4283 6.69704ZM33.3057 14.2256C32.9187 13.9402 32.6842 13.4763 32.6842 12.9768C32.6842 12.4178 32.9422 11.954 33.4464 11.5853C33.9623 11.2166 34.6071 11.0263 35.3693 11.0263C36.4245 11.0144 37.2453 11.2522 37.8315 11.728C37.8315 12.5367 37.5149 13.2385 36.8935 13.8331C36.3307 14.404 35.5686 14.7252 34.7713 14.7252C34.2437 14.737 33.7278 14.5586 33.3057 14.2256ZM43.6921 20.5887L49.9991 5.90018H47.9476L45.0285 13.2266H44.9933L42.0039 5.90018H39.9524L44.0906 15.4507L41.746 20.5887H43.6921Z" fill="#3C4043"/>
<path d="M16.544 8.75403C16.544 8.17125 16.4971 7.58847 16.4034 7.01758H8.44336V10.3121H13.0037C12.8161 11.3706 12.2065 12.3221 11.3155 12.9168V15.0576H14.0353C15.6296 13.5709 16.544 11.3706 16.544 8.75403Z" fill="#4285F4"/>
<path d="M8.44421 17.1271C10.7185 17.1271 12.6411 16.3659 14.0361 15.0576L11.3164 12.9168C10.5544 13.4401 9.58136 13.7375 8.44421 13.7375C6.24027 13.7375 4.37629 12.227 3.70807 10.2051H0.90625V12.4173C2.33647 15.3074 5.25553 17.1271 8.44421 17.1271Z" fill="#34A853"/>
<path d="M3.70803 10.2056C3.35628 9.14705 3.35628 7.99338 3.70803 6.92296V4.72266H0.905755C-0.301918 7.13704 -0.301918 9.99149 0.905755 12.4059L3.70803 10.2056Z" fill="#FBBC04"/>
<path d="M8.44421 3.39017C9.65169 3.36638 10.8123 3.83023 11.6798 4.67467L14.0948 2.22461C12.559 0.773597 10.5427 -0.0232694 8.44421 0.000517618C5.25553 0.000517618 2.33647 1.83212 0.90625 4.72225L3.70807 6.93444C4.37629 4.90065 6.24027 3.39017 8.44421 3.39017Z" fill="#EA4335"/>
</svg>
