<svg width="60" height="20" viewBox="0 0 60 20" fill="none" xmlns="http://www.w3.org/2000/svg">
<path d="M25.3139 11.2832H0.492188V19.5522H25.3139V11.2832Z" fill="#84B740"/>
<path d="M25.3139 0H0.492188V8.27636H25.3139V0Z" fill="#259BD6"/>
<path d="M50.1372 17.8719L50.0266 17.894C49.6434 17.9677 49.5034 17.9972 49.2233 17.9972C48.5748 17.9972 47.8083 17.6655 47.8083 16.1031C47.8083 15.2998 47.941 14.2312 49.1496 14.2312H49.157C49.3633 14.2459 49.5992 14.268 50.0414 14.4007L50.1372 14.4302V17.8719ZM50.3362 10.0819L50.1372 10.1188V13.0078L49.9603 12.9562L49.9087 12.9415C49.7097 12.8825 49.2528 12.7498 48.8106 12.7498C46.3933 12.7498 45.8848 14.5776 45.8848 16.1105C45.8848 18.2109 47.0639 19.4196 49.1201 19.4196C49.9898 19.4196 50.631 19.3311 51.2795 19.1174C51.8765 18.9258 52.0902 18.6531 52.0902 18.0709V9.77979C51.5153 9.88296 50.9184 9.98614 50.3362 10.0819Z" fill="#27292D"/>
<path d="M57.3202 17.9234L57.217 17.9529L56.8485 18.0487C56.5022 18.1371 56.1926 18.1887 55.9568 18.1887C55.3893 18.1887 55.0503 17.9086 55.0503 17.4296C55.0503 17.1201 55.1903 16.5968 56.1189 16.5968H57.3202V17.9234ZM56.4727 12.7129C55.7283 12.7129 54.9619 12.8455 54.0112 13.1403L53.3921 13.3246L53.5984 14.7249L54.2028 14.5259C54.8366 14.3195 55.6252 14.1869 56.2147 14.1869C56.4801 14.1869 57.2907 14.1869 57.2907 15.0639V15.4471H56.1632C54.107 15.4471 53.1562 16.103 53.1562 17.5107C53.1562 18.712 54.0333 19.4342 55.5072 19.4342C55.9642 19.4342 56.598 19.3458 57.1433 19.2131L57.1728 19.2057L57.2023 19.2131L57.3865 19.2426C57.9614 19.3458 58.5584 19.4489 59.1406 19.5595V14.9607C59.1406 13.472 58.2415 12.7129 56.4727 12.7129Z" fill="#27292D"/>
<path d="M43.0019 17.9234L42.8987 17.9529L42.5302 18.0487C42.1838 18.1371 41.8816 18.1887 41.6384 18.1887C41.071 18.1887 40.7319 17.9086 40.7319 17.4296C40.7319 17.1201 40.872 16.5968 41.7932 16.5968H42.9945V17.9234H43.0019ZM42.1617 12.7129C41.41 12.7129 40.6509 12.8455 39.7002 13.1403L39.0811 13.3246L39.2875 14.7249L39.8918 14.5259C40.5256 14.3195 41.3142 14.1869 41.9038 14.1869C42.1691 14.1869 42.9798 14.1869 42.9798 15.0639V15.4471H41.8522C39.796 15.4471 38.8379 16.103 38.8379 17.5107C38.8379 18.712 39.7149 19.4342 41.1962 19.4342C41.6532 19.4342 42.287 19.3458 42.8324 19.2131L42.8618 19.2057L42.8913 19.2131L43.0682 19.2426C43.6504 19.3458 44.24 19.4489 44.8222 19.5669V14.9681C44.8296 13.4646 43.9305 12.7129 42.1617 12.7129Z" fill="#27292D"/>
<path d="M35.2411 12.7276C34.3051 12.7276 33.5312 13.0371 33.2438 13.1698L33.1701 13.2066L33.1038 13.155C32.7058 12.8676 32.1236 12.7202 31.3129 12.7202C30.598 12.7202 29.9274 12.8234 29.1978 13.0371C28.5713 13.2287 28.3281 13.5309 28.3281 14.0984V19.3531H30.2885V14.4964L30.3843 14.4669C30.7823 14.3342 31.0181 14.3121 31.2466 14.3121C31.8141 14.3121 32.1015 14.6143 32.1015 15.2039V19.3605H34.0324V15.1228C34.0324 14.8722 33.9808 14.7248 33.9734 14.6953L33.9071 14.57L34.0398 14.5111C34.3346 14.3784 34.6588 14.3121 34.9979 14.3121C35.3885 14.3121 35.8528 14.4669 35.8528 15.2039V19.3605H37.7763V15.0122C37.7763 13.4719 36.9509 12.7276 35.2411 12.7276Z" fill="#27292D"/>
<path d="M55.8777 5.39474C55.5902 5.39474 55.1112 5.36526 54.7353 5.29156L54.6248 5.26945V2.43205C54.6248 2.19622 54.5806 2.04882 54.5732 2.02671L54.5142 1.9088L54.6395 1.85721C54.669 1.84247 54.6985 1.8351 54.7353 1.82036L54.7575 1.80562C54.8017 1.79088 54.8459 1.77614 54.8901 1.7614C54.9122 1.75403 54.927 1.74666 54.9417 1.74666C55.3765 1.62874 55.7745 1.64348 55.9514 1.62874H55.9587C57.16 1.62874 57.3001 2.69737 57.3001 3.50068C57.2927 5.0631 56.5189 5.39474 55.8777 5.39474ZM55.8703 0C55.8556 0 55.8335 0 55.8187 0C54.6911 0 53.5341 0.309536 53.1213 0.913865C52.9003 1.20866 52.775 1.57715 52.7676 2.01197V4.93781C52.7676 5.18838 52.716 5.28419 52.7086 5.3063L52.6423 5.43159H49.0827V3.39751H49.0753C49.0311 1.25288 47.7635 0.0736986 45.9284 0.0736986H45.7146H44.1375C44.0638 0.596959 44.0048 0.965453 43.9311 1.48871H45.7146C46.6506 1.48871 47.1444 2.28466 47.1444 3.50806V5.55688L47.0191 5.49055C46.997 5.48318 46.8422 5.43159 46.599 5.43159H43.5184C43.4595 5.82219 43.3858 6.33071 43.3047 6.83923H52.775C53.0992 6.77291 53.4751 6.71395 53.7994 6.66236C54.2784 6.89819 55.1702 7.02348 55.7819 7.02348C57.8381 7.02348 59.172 5.64532 59.172 3.5228C59.1646 1.42238 57.8749 0.0442192 55.8703 0Z" fill="#27292D"/>
<path d="M39.265 7.70149H39.3534C41.4096 7.70149 42.3677 7.02347 42.3677 5.35051C42.3677 4.14922 41.4907 3.19114 40.0167 3.19114H38.1227C37.5552 3.19114 37.2162 2.86686 37.2162 2.32149C37.2162 1.953 37.3562 1.49607 38.2848 1.49607H42.4267C42.5151 0.958069 42.5593 0.619055 42.6404 0.0810547H38.3364C36.3318 0.0810547 35.3221 0.921219 35.3221 2.32149C35.3221 3.70703 36.1991 4.42927 37.6731 4.42927H39.5672C40.1346 4.42927 40.4737 4.87884 40.4737 5.35051C40.4737 5.66004 40.3336 6.30122 39.4124 6.30122H39.0955L33.0301 6.28648H31.9246C30.9886 6.28648 30.3327 5.75585 30.3327 4.52508V3.67755C30.3327 2.39519 30.8412 1.59925 31.9246 1.59925H33.7229C33.8039 1.05388 33.8555 0.707493 33.9292 0.191603H31.6888H31.4751C29.64 0.191603 28.3723 1.42237 28.3281 3.567V3.64807V4.52508C28.3723 6.66971 29.64 7.69412 31.4751 7.69412H31.6888H33.2659L36.5529 7.70149H38.5133H39.265Z" fill="#27292D"/>
</svg>
