<svg width="40" height="35" viewBox="0 0 40 35" fill="none" xmlns="http://www.w3.org/2000/svg">
<path fill-rule="evenodd" clip-rule="evenodd" d="M4.80001 24.1758H1.68878C1.47588 24.1758 1.2948 24.3305 1.2616 24.5406L0.00326376 32.5187C-0.0217468 32.6762 0.10017 32.8181 0.259855 32.8181H1.74519C1.95809 32.8181 2.13916 32.6634 2.17236 32.4529L2.51175 30.3011C2.54449 30.0903 2.72601 29.9358 2.93847 29.9358H3.92338C5.97286 29.9358 7.1556 28.944 7.46465 26.9787C7.60381 26.1189 7.47054 25.4434 7.06781 24.9701C6.6257 24.4507 5.84128 24.1758 4.80001 24.1758ZM5.15896 27.0897C4.98885 28.2061 4.13584 28.2061 3.31106 28.2061H2.84157L3.17094 26.121C3.19049 25.9952 3.29967 25.9023 3.42706 25.9023H3.64224C4.20407 25.9023 4.73412 25.9023 5.00801 26.2225C5.17117 26.4137 5.22128 26.6975 5.15896 27.0897ZM14.1002 27.0539H12.6103C12.4834 27.0539 12.3737 27.1467 12.3541 27.2728L12.2882 27.6895L12.184 27.5385C11.8615 27.0703 11.1423 26.9139 10.4244 26.9139C8.77792 26.9139 7.37181 28.1608 7.09791 29.9101C6.9556 30.7825 7.15791 31.6169 7.65286 32.1987C8.10697 32.7337 8.75665 32.9566 9.5295 32.9566C10.856 32.9566 11.5918 32.1036 11.5918 32.1036L11.5253 32.5177C11.5002 32.676 11.6221 32.8179 11.7809 32.8179H13.123C13.3365 32.8179 13.5165 32.6632 13.5501 32.4526L14.3554 27.3533C14.3809 27.1964 14.2594 27.0539 14.1002 27.0539ZM12.0234 29.9537C11.8796 30.8048 11.204 31.3762 10.3426 31.3762C9.90992 31.3762 9.56402 31.2375 9.34213 30.9745C9.12192 30.7135 9.03813 30.3417 9.10823 29.9278C9.24255 29.0838 9.9295 28.4939 10.7779 28.4939C11.2009 28.4939 11.5449 28.6343 11.7714 28.8996C11.9983 29.1676 12.0885 29.5415 12.0234 29.9537ZM20.5379 27.0537H22.0352C22.2449 27.0537 22.3672 27.2888 22.2481 27.4608L17.2685 34.6486C17.1878 34.7651 17.055 34.8343 16.9131 34.8343H15.4177C15.2072 34.8343 15.0842 34.5973 15.2061 34.4249L16.7567 32.2362L15.1076 27.3966C15.0506 27.2284 15.1748 27.0537 15.3537 27.0537H16.8249C17.016 27.0537 17.1847 27.1792 17.2398 27.3621L18.115 30.2851L20.1801 27.2434C20.2609 27.1246 20.3952 27.0537 20.5379 27.0537Z" fill="#253B80"/>
<path fill-rule="evenodd" clip-rule="evenodd" d="M36.7703 32.5192L38.0471 24.3952C38.0667 24.269 38.176 24.1762 38.3029 24.1758H39.7404C39.8991 24.1758 40.021 24.3181 39.996 24.4756L38.7368 32.4533C38.704 32.6638 38.5229 32.8185 38.3097 32.8185H37.0259C36.8671 32.8185 36.7452 32.6766 36.7703 32.5192ZM26.9915 24.1762H23.8797C23.6673 24.1762 23.4863 24.3309 23.453 24.541L22.1947 32.5192C22.1696 32.6766 22.2915 32.8185 22.4505 32.8185H24.0471C24.1955 32.8185 24.3225 32.7103 24.3456 32.563L24.7027 30.3015C24.7355 30.0907 24.917 29.9362 25.1294 29.9362H26.1138C28.1637 29.9362 29.3463 28.9444 29.6555 26.9792C29.7951 26.1194 29.661 25.4438 29.2585 24.9705C28.8166 24.4511 28.0328 24.1762 26.9915 24.1762ZM27.3505 27.0901C27.1808 28.2065 26.3277 28.2065 25.5025 28.2065H25.0334L25.3633 26.1215C25.3829 25.9956 25.4911 25.9027 25.6189 25.9027H25.8341C26.3955 25.9027 26.9261 25.9027 27.1997 26.2229C27.3631 26.4141 27.4128 26.6979 27.3505 27.0901ZM36.2909 27.0543H34.8021C34.6741 27.0543 34.5654 27.1472 34.5463 27.2733L34.4804 27.6899L34.3758 27.5389C34.0532 27.0707 33.3345 26.9143 32.6166 26.9143C30.9701 26.9143 29.5644 28.1613 29.2905 29.9105C29.1486 30.783 29.3501 31.6173 29.845 32.1992C30.3 32.7341 30.9488 32.9571 31.7217 32.9571C33.0482 32.9571 33.7838 32.104 33.7838 32.104L33.7174 32.5181C33.6924 32.6764 33.8143 32.8183 33.9741 32.8183H35.3156C35.528 32.8183 35.709 32.6636 35.7423 32.4531L36.548 27.3537C36.5726 27.1968 36.4507 27.0543 36.2909 27.0543ZM34.2143 29.9541C34.0713 30.8053 33.3949 31.3766 32.5332 31.3766C32.1014 31.3766 31.7549 31.2379 31.5328 30.975C31.3126 30.7139 31.2299 30.3421 31.2991 29.9282C31.4341 29.0842 32.1202 28.4943 32.9686 28.4943C33.3918 28.4943 33.7356 28.6347 33.9623 28.9C34.1901 29.168 34.2802 29.5419 34.2143 29.9541Z" fill="#179BD7"/>
<path d="M16.3133 21.321L16.6958 18.8915L15.8438 18.8717H11.7754L14.6028 0.944047C14.6114 0.889921 14.64 0.839458 14.6817 0.803626C14.7234 0.767794 14.7769 0.748047 14.8325 0.748047H21.6925C23.9699 0.748047 25.5415 1.22196 26.3622 2.15736C26.7468 2.59618 26.9918 3.05473 27.1104 3.55936C27.2346 4.08888 27.2369 4.72149 27.1154 5.49307L27.1066 5.54938V6.04376L27.4914 6.26172C27.8154 6.43358 28.0727 6.63031 28.2702 6.85558C28.5994 7.23076 28.8123 7.7076 28.9022 8.27293C28.995 8.85436 28.9643 9.54621 28.8123 10.3295C28.6367 11.2305 28.3529 12.0153 27.9697 12.6574C27.6171 13.2491 27.1681 13.7397 26.635 14.1201C26.126 14.4814 25.5211 14.7557 24.8373 14.9313C24.1746 15.1037 23.4192 15.1909 22.5906 15.1909H22.0567C21.675 15.1909 21.304 15.3283 21.0131 15.5749C20.7213 15.8264 20.528 16.17 20.4689 16.546L20.4287 16.7648L19.7529 21.0467L19.7221 21.2039C19.7141 21.2538 19.7003 21.2787 19.6798 21.2955C19.6615 21.3107 19.6352 21.321 19.6095 21.321H16.3133Z" fill="#253B80"/>
<path d="M27.8558 5.60742C27.8354 5.73833 27.812 5.87216 27.7857 6.00965C26.8808 10.6545 23.7859 12.2591 19.8328 12.2591H17.8202C17.3368 12.2591 16.9294 12.6101 16.8541 13.087L15.8235 19.6224L15.5317 21.4748C15.4827 21.7879 15.7242 22.0702 16.04 22.0702H19.6099C20.0326 22.0702 20.3915 21.763 20.4581 21.3462L20.4932 21.1647L21.1654 16.8994L21.2086 16.6656C21.2743 16.2472 21.6341 15.9401 22.0568 15.9401H22.5907C26.0492 15.9401 28.7568 14.5359 29.5482 10.4724C29.8787 8.7749 29.7076 7.35755 28.8328 6.36071C28.5682 6.06012 28.2398 5.81073 27.8558 5.60742Z" fill="#179BD7"/>
<path d="M26.9089 5.23097C26.7708 5.19074 26.6281 5.15417 26.4817 5.12126C26.3348 5.08909 26.1841 5.06057 26.0291 5.0357C25.4864 4.94793 24.8919 4.90625 24.2548 4.90625H18.8779C18.7455 4.90625 18.6198 4.93623 18.5072 4.99036C18.2592 5.10956 18.075 5.34434 18.0304 5.63175L16.8864 12.8765L16.8535 13.0879C16.9289 12.611 17.3363 12.26 17.8196 12.26H19.8323C23.7853 12.26 26.8805 10.6547 27.7851 6.01059C27.8121 5.87309 27.8348 5.73926 27.8552 5.60836C27.6264 5.48695 27.3784 5.38309 27.1114 5.29459C27.0457 5.27265 26.9778 5.25145 26.9089 5.23097Z" fill="#222D65"/>
<path d="M18.0311 5.63069C18.0758 5.34326 18.2602 5.1085 18.508 4.99001C18.6215 4.93589 18.7465 4.90591 18.8787 4.90591H24.2558C24.8928 4.90591 25.4874 4.94759 26.0299 5.03536C26.185 5.06022 26.3358 5.08875 26.4827 5.12092C26.629 5.15384 26.7716 5.19041 26.9099 5.23062C26.9785 5.25111 27.0465 5.27231 27.1131 5.29353C27.38 5.38201 27.628 5.4866 27.8568 5.60728C28.1261 3.89079 27.8547 2.72209 26.9267 1.66381C25.9036 0.49878 24.0568 0 21.6939 0H14.8337C14.3509 0 13.9393 0.351032 13.8646 0.828613L11.0073 18.9406C10.9509 19.2989 11.2273 19.6223 11.5886 19.6223H15.824L16.8873 12.8755L18.0311 5.63069Z" fill="#253B80"/>
</svg>
